*
G04 Mass Parameters ***
*
G04 Image ***
*
%INE:\MUSHTAQ PCB\SAJJAD HUSSAIN\PROGRAMMABLE GPIO72 CARD\PROGRAMMABLE_GPIO72_CARD_REV2 11-09-2012\PROGRAMMABLE_GPIO72_CARD-9.FAB*%
%ICAS*%
%MOIN*%
%IPPOS*%
%ASAXBY*%
G74*%FSLAN2X34Y34*%
*
G04 Aperture Definitions ***
*
%ADD10R,0.0800X0.0800*%
%ADD11R,0.0320X0.0380*%
%ADD12R,0.0380X0.0320*%
%ADD13R,0.0500X0.0500*%
%ADD14C,0.0580*%
%ADD15R,0.0580X0.0580*%
%ADD16C,0.0600*%
%ADD17R,0.0600X0.0600*%
%ADD18C,0.0300*%
%ADD19R,0.0300X0.0300*%
%ADD20R,0.0590X0.0161*%
%ADD21O,0.0900X0.0160*%
%ADD22R,0.0900X0.0160*%
%ADD23R,0.1968X0.4724*%
%ADD24R,0.0880X0.0480*%
%ADD25O,0.0700X0.0110*%
%ADD26R,0.0700X0.0110*%
%ADD27O,0.0110X0.0700*%
%ADD28R,0.0110X0.0700*%
%ADD29O,0.0315X0.2559*%
%ADD30O,0.0250X0.0860*%
%ADD31R,0.0250X0.0860*%
%ADD32C,0.0080*%
%ADD33C,0.0100*%
%ADD34C,0.0300*%
%ADD35C,0.0160*%
%ADD36C,0.0450*%
%ADD37C,0.0250*%
%ADD38C,0.0200*%
%ADD39C,0.0120*%
%ADD40C,0.0300*%
%ADD41C,0.0450*%
%ADD42R,0.0380X0.0320*%
%ADD43R,0.0500X0.0500*%
%ADD44R,0.0320X0.0380*%
%ADD45R,0.0800X0.0800*%
%ADD46C,0.0580*%
%ADD47R,0.0580X0.0580*%
%ADD48C,0.0600*%
%ADD49R,0.0600X0.0600*%
%ADD50C,0.0300*%
%ADD51R,0.0300X0.0300*%
%ADD52O,0.0400X0.0270*%
%ADD53R,0.0400X0.0270*%
%ADD54O,0.0315X0.2559*%
%ADD55R,0.0787X0.0708*%
%ADD56C,0.0300*%
%ADD57C,0.0010*%
%ADD58C,0.0450*%
%ADD59C,0.0700*%
%ADD60R,0.0700X0.0700*%
%ADD61C,0.0400*%
%ADD62R,0.0400X0.0400*%
%ADD63R,0.0590X0.0161*%
%ADD64O,0.0900X0.0160*%
%ADD65R,0.0900X0.0160*%
%ADD66R,0.1968X0.4724*%
%ADD67R,0.0880X0.0480*%
%ADD68O,0.0700X0.0110*%
%ADD69R,0.0700X0.0110*%
%ADD70O,0.0110X0.0700*%
%ADD71R,0.0110X0.0700*%
%ADD72O,0.0250X0.0860*%
%ADD73R,0.0250X0.0860*%
%ADD74C,0.0650*%
%ADD75R,0.0650X0.0650*%
%ADD76R,0.0480X0.0560*%
%ADD77C,0.0060*%
%ADD78C,0.0050*%
%ADD79C,0.0070*%
%ADD80C,0.0030*%
%ADD81C,0.0150*%
*
G04 Plot Data ***
*
G54D33*
G01Y0007873D02*
X0005511D01*
Y0010826D01*
X0015353D01*
X0015350Y0007700D01*
X0021350D01*
Y0010400D01*
X0021390Y0010410D01*
X0021340Y0010400D01*
X0022040D01*
Y0007700D01*
X0040350D01*
Y0010400D01*
X0041040D01*
Y0007700D01*
X0041050Y0007720D01*
Y0007690D01*
X0041040Y0007686D01*
X0041050Y0007700D01*
X0046846D01*
Y0010826D01*
X0065742D01*
Y0049602D01*
X-0000394D01*
Y0007873D01*
X0000000D01*
G54D40*
X0029850Y0035390D03*
X0043800Y0042210D03*
X0052690Y0046270D03*
X0025470Y0032070D03*
X0023680Y0037060D03*
X0026520Y0039750D03*
X0032970Y0020560D03*
X0031070Y0019200D03*
X0032080Y0016990D03*
X0037600Y0017330D03*
X0026410Y0040510D03*
X0026380Y0041270D03*
X0024310Y0024340D03*
X0044060Y0032160D03*
X0025270Y0021420D03*
X0026670Y0020210D03*
X0030720Y0015850D03*
X0040760Y0024040D03*
X0027910Y0036400D03*
X0033650Y0042130D03*
X0035210Y0042320D03*
X0038750Y0042590D03*
X0041300Y0031510D03*
X0035710Y0030140D03*
X0030790Y0028580D03*
X0033937Y0028627D03*
X0029210Y0024630D03*
X0033675Y0024925D03*
X0042720Y0018630D03*
X0036830Y0015940D03*
X0033440Y0015920D03*
X0040880Y0015980D03*
X0023900Y0018500D03*
X0039400Y0021190D03*
X0043850Y0025490D03*
X0037270Y0024890D03*
X0035590Y0028650D03*
X0039230Y0028720D03*
X0027710Y0031400D03*
X0027780Y0034360D03*
X0041430Y0039060D03*
X0030290Y0042090D03*
X0027990Y0039190D03*
X0041380Y0036290D03*
X0041550Y0034370D03*
X0011860Y0031220D03*
X0036990Y0044660D03*
X0036380Y0019770D03*
X0040710Y0020420D03*
X0039510Y0018640D03*
X0039030Y0018100D03*
X0029470Y0038950D03*
X0038790Y0034980D03*
X0039180Y0032600D03*
X0040380Y0027550D03*
X0035540Y0017660D03*
X0036070Y0016290D03*
X0032220Y0026310D03*
X0032830Y0016300D03*
X0031410Y0016770D03*
X0026730Y0026100D03*
X0028810Y0025720D03*
X0033930Y0026940D03*
X0029580Y0032590D03*
X0029440Y0031290D03*
X0030120Y0027420D03*
X0029150Y0028910D03*
X0036440Y0033130D03*
X0031760Y0018840D03*
X0037800Y0016360D03*
X0039191Y0015891D03*
X0042080Y0017440D03*
X0041610Y0015110D03*
X0034330Y0026440D03*
X0062495Y0022795D03*
X0028490Y0021860D03*
X0030460Y0020840D03*
X0030450Y0022010D03*
X0040500Y0025530D03*
X0040120Y0025140D03*
X0040720Y0022800D03*
X0022280Y0017940D03*
X0033650Y0043920D03*
X0033937Y0040517D03*
X0034800Y0040520D03*
X0017090Y0011360D03*
X0019943Y0011406D03*
X0017900Y0012710D03*
X0034255Y0023850D03*
X0034463Y0024603D03*
X0020943Y0011616D03*
X0022280Y0011430D03*
X0024170Y0011160D03*
X0023800Y0011760D03*
X0024950Y0012670D03*
X0030588Y0040522D03*
X0035340Y0039460D03*
X0035180Y0038850D03*
X0037483Y0030263D03*
X0037490Y0030920D03*
X0036240Y0031740D03*
X0035180Y0031800D03*
X0001220Y0022980D03*
X0043340Y0039060D03*
X0042860Y0041300D03*
X0041920Y0048020D03*
X0038540Y0043580D03*
X0041920Y0046820D03*
X0041930Y0045610D03*
X0038170Y0030190D03*
X0039774Y0032854D03*
X0040560Y0042290D03*
X0060105Y0031055D03*
X0036060Y0024890D03*
X0045820Y0023260D03*
X0021450Y0040410D03*
X0016525Y0012620D03*
X0028616Y0017736D03*
X0026260Y0012620D03*
X0033300Y0034820D03*
X0039090Y0035870D03*
X0036980Y0042730D03*
X0032390Y0011370D03*
X0033410Y0011540D03*
X0039880Y0037870D03*
X0034760Y0011150D03*
X0038620Y0038340D03*
X0039844Y0036006D03*
X0041310Y0035020D03*
X0039760Y0035500D03*
X0040490Y0029950D03*
X0039740Y0032200D03*
X0013790Y0023250D03*
X0004250Y0015120D03*
X0002610Y0031560D03*
X0015650Y0012490D03*
X0010640Y0014770D03*
X0043960Y0031640D03*
X0044104Y0028164D03*
X0045330Y0024760D03*
X0060300Y0014740D03*
X0029440Y0034630D03*
X0030550Y0035500D03*
X0026210Y0033170D03*
X0026100Y0030900D03*
X0025200Y0035460D03*
X0025280Y0033210D03*
X0027450Y0017840D03*
X0024070Y0017800D03*
X0030330Y0011310D03*
X0030880Y0030310D03*
X0032210Y0028600D03*
X0045897Y0030520D03*
X0036390Y0011990D03*
X0045940Y0010780D03*
X0024777Y0040890D03*
X0036892Y0030212D03*
X0031210Y0038890D03*
X0029460Y0040470D03*
X0030020Y0039060D03*
X0029480Y0036120D03*
X0029431Y0037779D03*
X0031650Y0040430D03*
X0029100Y0041700D03*
X0025730Y0042130D03*
X0038800Y0011330D03*
X0037100Y0012250D03*
X0029612Y0033248D03*
X0032361Y0040569D03*
X0042340Y0011170D03*
X0039443Y0011496D03*
X0046900Y0012300D03*
X0044060Y0012520D03*
X0044960Y0012580D03*
X0031710Y0011110D03*
X0038770Y0040180D03*
X0027270Y0011340D03*
X0029390Y0011300D03*
X0035230Y0010740D03*
X0033250Y0010840D03*
X0033540Y0031360D03*
X0036500Y0040450D03*
X0030020Y0037320D03*
X0040310Y0011420D03*
X0043300Y0011340D03*
X0038450Y0018020D03*
X0029450Y0036880D03*
X0039800Y0039300D03*
X0040190Y0041850D03*
X0049600Y0047440D03*
X0029030Y0016020D03*
X0026360Y0015000D03*
X0046000Y0047440D03*
X0044820D03*
X0043600Y0047400D03*
X0046590Y0027160D03*
X0037240Y0011120D03*
X0035870Y0010710D03*
X0019443Y0011126D03*
X0024180Y0013340D03*
X0037480Y0028410D03*
X0042060Y0040040D03*
X0039375Y0033445D03*
X0039660Y0037470D03*
X0048400Y0047430D03*
X0047200D03*
X0044940Y0010820D03*
X0027800Y0034950D03*
X0030600Y0023390D03*
X0046150Y0027670D03*
X0032120Y0036780D03*
X0033000Y0019890D03*
X0046650Y0028370D03*
X0039560Y0031520D03*
X0025540Y0021930D03*
X0025530Y0022590D03*
X0025940Y0032660D03*
X0038820Y0018630D03*
X0032300Y0016100D03*
X0028030Y0011300D03*
X0026360Y0011290D03*
X0039500Y0033940D03*
X0042900Y0016200D03*
X0035420Y0016070D03*
X0024380Y0032930D03*
X0039110Y0031940D03*
X0027790Y0032040D03*
X0026590Y0025490D03*
X0026760Y0022780D03*
X0031500Y0045500D03*
X0033550Y0045310D03*
X0037120Y0040390D03*
X0037540Y0040190D03*
X0034370Y0045060D03*
X0030460Y0022710D03*
X0040840Y0020910D03*
X0043870Y0020860D03*
X0032740Y0045220D03*
X0032510Y0036120D03*
X0035430Y0036570D03*
G54D41*
X0047438Y0031520D03*
X0046680Y0036400D03*
X0050230Y0031440D03*
X0046010Y0034840D03*
X0044380Y0032810D03*
X0048220Y0036280D03*
X0049470Y0035050D03*
X0043160Y0036350D03*
X0048470Y0031300D03*
X0052550Y0012410D03*
X0047410Y0013090D03*
X0049062Y0017702D03*
X0049910Y0011350D03*
X0046890Y0011480D03*
X0052860Y0039710D03*
X0019070Y0037400D03*
X0044160Y0033670D03*
X0044030Y0034660D03*
X0049920Y0013580D03*
X0050420Y0035050D03*
X0050690Y0036380D03*
G54D50*
X0017910Y0011060D03*
X0030390Y0026050D03*
G54D56*
X0023970Y0033320D03*
X0030890Y0045420D03*
X0033350Y0044840D03*
X0031970Y0045050D03*
X0038080Y0040120D03*
X0037160Y0038790D03*
X0026280Y0016340D03*
X0031280Y0021460D03*
X0039940Y0013170D03*
X0039150Y0012480D03*
X0030260Y0045560D03*
X0023510Y0033700D03*
X0023080Y0035740D03*
X0031340Y0031230D03*
X0037290Y0023000D03*
X0034420Y0034210D03*
X0035920Y0036150D03*
X0032290Y0045590D03*
X0028940Y0021550D03*
X0027100Y0023370D03*
X0023390Y0017340D03*
X0033370Y0020980D03*
X0039500Y0026310D03*
X0039696Y0039946D03*
X0034790Y0016220D03*
X0035370Y0023650D03*
X0035000Y0031200D03*
X0027990Y0030320D03*
X0026090D03*
X0036350Y0011210D03*
X0034090Y0015940D03*
X0027950Y0012460D03*
X0031000Y0030830D03*
X0037650Y0022620D03*
X0034020Y0045660D03*
X0036660Y0014170D03*
X0033060Y0013130D03*
X0039810Y0036920D03*
X0022950Y0012630D03*
X0033470Y0026320D03*
X0039180Y0024510D03*
X0023580Y0035360D03*
X0033810Y0011120D03*
X0032970Y0031340D03*
X0035760Y0024000D03*
X0038800Y0016270D03*
X0044443Y0017140D03*
X0031030Y0012120D03*
X0031070Y0011280D03*
X0028740Y0011040D03*
X0037310Y0022230D03*
X0030340Y0030180D03*
X0037130Y0021660D03*
X0030800Y0028010D03*
X0031860Y0031610D03*
X0037780Y0023320D03*
X0039272Y0017342D03*
X0032310Y0030990D03*
X0036140Y0023630D03*
X0026360Y0019620D03*
X0030600Y0019570D03*
X0034950Y0023990D03*
X0034670Y0030650D03*
X0040733Y0022267D03*
X0038550Y0012170D03*
X0026580Y0013280D03*
X0026360Y0021940D03*
X0025950Y0023130D03*
X0031500Y0016100D03*
X0037180Y0023620D03*
X0032460Y0031800D03*
X0034020Y0030330D03*
X0038930Y0024930D03*
X0025070Y0024820D03*
X0029160Y0024100D03*
X0038540Y0031780D03*
X0030670Y0017480D03*
X0028870Y0020900D03*
X0027040Y0021710D03*
X0026300Y0023600D03*
X0029400Y0011950D03*
X0029820Y0031890D03*
X0030530Y0023970D03*
X0043900Y0018130D03*
X0049390Y0025860D03*
X0043920Y0016530D03*
X0041430Y0013670D03*
X0024320Y0035290D03*
X0053390Y0038900D03*
X0048500Y0028790D03*
G54D58*
X0044390Y0036370D03*
X0045890Y0015790D03*
X0047420Y0017270D03*
M02*
