*
G04 Mass Parameters ***
*
G04 Image ***
*
%INE:\MUSHTAQ PCB\SAJJAD HUSSAIN\PROGRAMMABLE GPIO72 CARD\PROGRAMMABLE_GPIO72_CARD_REV2 11-09-2012\PROGRAMMABLE_GPIO72_CARD-9.SSB*%
%ICAS*%
%MOIN*%
%IPPOS*%
%ASAXBY*%
G74*%FSLAN2X34Y34*%
*
G04 Aperture Definitions ***
*
%ADD10R,0.0800X0.0800*%
%ADD11R,0.0320X0.0380*%
%ADD12R,0.0380X0.0320*%
%ADD13R,0.0500X0.0500*%
%ADD14C,0.0580*%
%ADD15R,0.0580X0.0580*%
%ADD16C,0.0600*%
%ADD17R,0.0600X0.0600*%
%ADD18C,0.0300*%
%ADD19R,0.0300X0.0300*%
%ADD20R,0.0590X0.0161*%
%ADD21O,0.0900X0.0160*%
%ADD22R,0.0900X0.0160*%
%ADD23R,0.1968X0.4724*%
%ADD24R,0.0880X0.0480*%
%ADD25O,0.0700X0.0110*%
%ADD26R,0.0700X0.0110*%
%ADD27O,0.0110X0.0700*%
%ADD28R,0.0110X0.0700*%
%ADD29O,0.0315X0.2559*%
%ADD30O,0.0250X0.0860*%
%ADD31R,0.0250X0.0860*%
%ADD32C,0.0080*%
%ADD33C,0.0100*%
%ADD34C,0.0300*%
%ADD35C,0.0160*%
%ADD36C,0.0450*%
%ADD37C,0.0250*%
%ADD38C,0.0200*%
%ADD39C,0.0120*%
%ADD40C,0.0300*%
%ADD41C,0.0450*%
%ADD42R,0.0380X0.0320*%
%ADD43R,0.0500X0.0500*%
%ADD44R,0.0320X0.0380*%
%ADD45R,0.0800X0.0800*%
%ADD46C,0.0580*%
%ADD47R,0.0580X0.0580*%
%ADD48C,0.0600*%
%ADD49R,0.0600X0.0600*%
%ADD50C,0.0300*%
%ADD51R,0.0300X0.0300*%
%ADD52O,0.0400X0.0270*%
%ADD53R,0.0400X0.0270*%
%ADD54O,0.0315X0.2559*%
%ADD55R,0.0787X0.0708*%
%ADD56C,0.0300*%
%ADD57C,0.0010*%
%ADD58C,0.0450*%
%ADD59C,0.0700*%
%ADD60R,0.0700X0.0700*%
%ADD61C,0.0400*%
%ADD62R,0.0400X0.0400*%
%ADD63R,0.0590X0.0161*%
%ADD64O,0.0900X0.0160*%
%ADD65R,0.0900X0.0160*%
%ADD66R,0.1968X0.4724*%
%ADD67R,0.0880X0.0480*%
%ADD68O,0.0700X0.0110*%
%ADD69R,0.0700X0.0110*%
%ADD70O,0.0110X0.0700*%
%ADD71R,0.0110X0.0700*%
%ADD72O,0.0250X0.0860*%
%ADD73R,0.0250X0.0860*%
%ADD74C,0.0650*%
%ADD75R,0.0650X0.0650*%
%ADD76R,0.0480X0.0560*%
%ADD77C,0.0060*%
%ADD78C,0.0050*%
%ADD79C,0.0070*%
%ADD80C,0.0030*%
%ADD81C,0.0150*%
*
G04 Plot Data ***
*
G54D32*
G01X0021526Y0039645D02*
X0021637D01*
X0021582D02*
Y0039978D01*
X0021637Y0039923D01*
X0021992Y0039645D02*
Y0039812D01*
X0021880Y0039978D02*
X0021964Y0039812D01*
X0022019D01*
X0022103Y0039978D01*
X0021526Y0039645D02*
X0021637D01*
X0021582D02*
Y0039978D01*
X0021637Y0039923D01*
X0021992Y0039645D02*
Y0039812D01*
X0021880Y0039978D02*
X0021964Y0039812D01*
X0022019D01*
X0022103Y0039978D01*
X0040581Y0011402D02*
X0040415D01*
X0040387Y0011346D01*
Y0011291D01*
X0040415Y0011235D01*
X0040581D01*
X0040609Y0011291D01*
Y0011346D01*
X0040498Y0011569D01*
X0040797Y0011235D02*
X0041019D01*
X0040797Y0011458D01*
Y0011513D01*
X0040825Y0011569D01*
X0040991D01*
X0041019Y0011513D01*
X0041207Y0011569D02*
Y0011291D01*
X0041235Y0011235D01*
X0041401D01*
X0041429Y0011291D01*
Y0011569D01*
X0040584Y0011401D02*
X0040418D01*
X0040390Y0011346D01*
Y0011290D01*
X0040418Y0011235D01*
X0040584D01*
X0040612Y0011290D01*
Y0011346D01*
X0040501Y0011568D01*
X0040800Y0011235D02*
X0041022D01*
X0040800Y0011457D01*
Y0011512D01*
X0040828Y0011568D01*
X0040994D01*
X0041022Y0011512D01*
X0041210Y0011568D02*
Y0011290D01*
X0041238Y0011235D01*
X0041404D01*
X0041432Y0011290D01*
Y0011568D01*
X0047111Y0038523D02*
X0047333D01*
X0047222Y0038746D01*
X0047167D01*
Y0038412D01*
X0047521Y0038746D02*
Y0038468D01*
X0047549Y0038412D01*
X0047716D01*
X0047743Y0038468D01*
Y0038746D01*
G54D33*
G01X0032941Y0018404D02*
Y0018849D01*
X0033163Y0018626D02*
X0032719D01*
X0034854Y0028649D02*
X0035299D01*
X0035076Y0028427D02*
Y0028871D01*
X0034854Y0028649D02*
X0035299D01*
X0035076Y0028427D02*
Y0028871D01*
X0031526Y0035731D02*
X0031081D01*
X0031304Y0035953D02*
Y0035509D01*
X0032941Y0018404D02*
Y0018849D01*
X0033163Y0018626D02*
X0032719D01*
X0031686Y0032096D02*
X0031241D01*
X0031464Y0031873D02*
Y0032318D01*
X0031686Y0032096D02*
X0031241D01*
X0031464Y0031873D02*
Y0032318D01*
X0032461Y0034104D02*
Y0034549D01*
X0032683Y0034326D02*
X0032239D01*
X0036524Y0038599D02*
X0036969D01*
X0036746Y0038377D02*
Y0038821D01*
X0032601Y0037724D02*
Y0038169D01*
X0032823Y0037946D02*
X0032379D01*
X0039309Y0020866D02*
Y0020421D01*
X0039087Y0020644D02*
X0039531D01*
X0036134Y0034829D02*
X0036579D01*
X0036356Y0034607D02*
Y0035051D01*
X0020626Y0037421D02*
X0020181D01*
X0020404Y0037643D02*
Y0037199D01*
X0034861Y0043424D02*
Y0043869D01*
X0035083Y0043646D02*
X0034639D01*
X0032461Y0034104D02*
Y0034549D01*
X0032683Y0034326D02*
X0032239D01*
X0036524Y0038599D02*
X0036969D01*
X0036746Y0038377D02*
Y0038821D01*
X0039309Y0020866D02*
Y0020421D01*
X0039087Y0020644D02*
X0039531D01*
X0027736Y0023661D02*
X0027291D01*
X0027514Y0023883D02*
Y0023439D01*
X0027736Y0023661D02*
X0027291D01*
X0027514Y0023883D02*
Y0023439D01*
X0020626Y0037421D02*
X0020181D01*
X0020404Y0037643D02*
Y0037199D01*
X0031526Y0035731D02*
X0031081D01*
X0031304Y0035953D02*
Y0035509D01*
X0026034Y0037299D02*
X0026479D01*
X0026256Y0037077D02*
Y0037521D01*
X0032601Y0037724D02*
Y0038169D01*
X0032823Y0037946D02*
X0032379D01*
X0026034Y0037299D02*
X0026479D01*
X0026256Y0037077D02*
Y0037521D01*
X0045474Y0038849D02*
X0045919D01*
X0045696Y0038627D02*
Y0039071D01*
X0034861Y0043424D02*
Y0043869D01*
X0035083Y0043646D02*
X0034639D01*
X0049364Y0038849D02*
X0049809D01*
X0049586Y0038627D02*
Y0039071D01*
X0036134Y0034829D02*
X0036579D01*
X0036356Y0034607D02*
Y0035051D01*
G54D77*
G01X0033640Y0018712D02*
X0033473D01*
X0033445Y0018656D01*
Y0018601D01*
X0033473Y0018545D01*
X0033640D01*
X0033668Y0018601D01*
Y0018656D01*
X0033557Y0018878D01*
X0033843Y0018712D02*
X0034010D01*
X0034038Y0018767D01*
Y0018823D01*
X0034010Y0018878D01*
X0033843D01*
X0033815Y0018823D01*
Y0018767D01*
X0033927Y0018545D01*
X0034185Y0018601D02*
X0034213Y0018545D01*
X0034380D01*
X0034408Y0018601D01*
Y0018823D01*
X0034380Y0018878D01*
X0034213D01*
X0034185Y0018823D01*
X0031649Y0016238D02*
X0031705Y0016210D01*
Y0016043D01*
X0031649Y0016015D01*
X0031538D01*
X0031483Y0016071D01*
Y0016238D01*
X0031372D01*
Y0016015D01*
X0031538Y0016413D02*
Y0016580D01*
X0031483Y0016608D01*
X0031427D01*
X0031372Y0016580D01*
Y0016413D01*
X0031427Y0016385D01*
X0031483D01*
X0031705Y0016497D01*
X0031649Y0016755D02*
X0031705Y0016783D01*
Y0016950D01*
X0031649Y0016978D01*
X0031427D01*
X0031372Y0016950D01*
Y0016783D01*
X0031427Y0016755D01*
X0034586Y0027274D02*
Y0027497D01*
X0034364Y0027386D01*
Y0027330D01*
X0034697D01*
X0034531Y0027672D02*
Y0027839D01*
X0034475Y0027867D01*
X0034419D01*
X0034364Y0027839D01*
Y0027672D01*
X0034419Y0027644D01*
X0034475D01*
X0034697Y0027756D01*
X0034642Y0028014D02*
X0034697Y0028042D01*
Y0028209D01*
X0034642Y0028237D01*
X0034419D01*
X0034364Y0028209D01*
Y0028042D01*
X0034419Y0028014D01*
X0022667Y0017943D02*
X0022612Y0017999D01*
X0022556Y0018027D01*
X0022445D01*
X0022389Y0017999D01*
X0022334Y0017943D01*
Y0017888D01*
X0022389Y0017832D01*
X0022445Y0017804D01*
X0022556D01*
X0022612Y0017832D01*
X0022667Y0017888D01*
Y0017943D01*
X0022501Y0018202D02*
Y0018369D01*
X0022445Y0018397D01*
X0022389D01*
X0022334Y0018369D01*
Y0018202D01*
X0022389Y0018174D01*
X0022445D01*
X0022667Y0018286D01*
X0022612Y0018544D02*
X0022667Y0018572D01*
Y0018739D01*
X0022612Y0018767D01*
X0022389D01*
X0022334Y0018739D01*
Y0018572D01*
X0022389Y0018544D01*
X0033252Y0027517D02*
X0033307Y0027461D01*
Y0027350D01*
X0033252Y0027294D01*
X0033196D01*
X0033085Y0027406D01*
X0032974Y0027294D01*
Y0027517D01*
X0033141Y0027692D02*
Y0027859D01*
X0033085Y0027887D01*
X0033029D01*
X0032974Y0027859D01*
Y0027692D01*
X0033029Y0027664D01*
X0033085D01*
X0033307Y0027776D01*
X0033252Y0028034D02*
X0033307Y0028062D01*
Y0028229D01*
X0033252Y0028257D01*
X0033029D01*
X0032974Y0028229D01*
Y0028062D01*
X0033029Y0028034D01*
X0044379Y0040741D02*
Y0040908D01*
X0044324Y0040935D01*
X0044268D01*
X0044213Y0040908D01*
Y0040741D01*
X0044268Y0040713D01*
X0044324D01*
X0044546Y0040824D01*
X0044213Y0040565D02*
Y0040343D01*
X0044435Y0040565D01*
X0044490D01*
X0044546Y0040538D01*
Y0040371D01*
X0044490Y0040343D01*
X0044379Y0040112D02*
X0044213Y0040195D01*
X0044379Y0039973D02*
Y0040140D01*
X0044435Y0040195D01*
X0044490D01*
X0044546Y0040140D01*
Y0039973D01*
X0044213D01*
X0044155Y0025295D02*
X0044378D01*
X0044155Y0025517D01*
Y0025573D01*
X0044183Y0025628D01*
X0044350D01*
X0044378Y0025573D01*
X0044525Y0025295D02*
X0044748D01*
X0044525Y0025517D01*
Y0025573D01*
X0044553Y0025628D01*
X0044720D01*
X0044748Y0025573D01*
X0044895Y0025351D02*
X0044923Y0025295D01*
X0045090D01*
X0045118Y0025351D01*
Y0025573D01*
X0045090Y0025628D01*
X0044923D01*
X0044895Y0025573D01*
X0028788Y0025963D02*
Y0026130D01*
X0028733Y0026158D01*
X0028677D01*
X0028622Y0026130D01*
Y0025963D01*
X0028677Y0025935D01*
X0028733D01*
X0028955Y0026047D01*
X0028788Y0026333D02*
X0028733Y0026305D01*
X0028677D01*
X0028622Y0026333D01*
Y0026500D01*
X0028677Y0026528D01*
X0028733D01*
X0028788Y0026500D01*
Y0026333D01*
X0028844Y0026305D01*
X0028899D01*
X0028955Y0026333D01*
Y0026500D01*
X0028899Y0026528D01*
X0028844D01*
X0028788Y0026500D01*
X0028899Y0026675D02*
X0028955Y0026703D01*
Y0026870D01*
X0028899Y0026898D01*
X0028677D01*
X0028622Y0026870D01*
Y0026703D01*
X0028677Y0026675D01*
X0010635Y0030886D02*
X0010858D01*
X0010747Y0031108D01*
X0010691D01*
Y0030775D01*
X0011033Y0030942D02*
X0011005Y0030997D01*
Y0031053D01*
X0011033Y0031108D01*
X0011200D01*
X0011228Y0031053D01*
Y0030997D01*
X0011200Y0030942D01*
X0011033D01*
X0011005Y0030886D01*
Y0030831D01*
X0011033Y0030775D01*
X0011200D01*
X0011228Y0030831D01*
Y0030886D01*
X0011200Y0030942D01*
X0011375Y0030831D02*
X0011403Y0030775D01*
X0011570D01*
X0011598Y0030831D01*
Y0031053D01*
X0011570Y0031108D01*
X0011403D01*
X0011375Y0031053D01*
X0031687Y0019663D02*
X0031520Y0019996D01*
X0031742D01*
X0031890Y0019663D02*
X0032001D01*
X0031946D02*
Y0019996D01*
X0032001Y0019940D01*
X0032288Y0019829D02*
X0032204Y0019663D01*
X0032427Y0019829D02*
X0032260D01*
X0032204Y0019885D01*
Y0019940D01*
X0032260Y0019996D01*
X0032427D01*
Y0019663D01*
X0044932Y0036697D02*
X0044987Y0036669D01*
Y0036502D01*
X0044932Y0036474D01*
X0044821D01*
X0044765Y0036530D01*
Y0036697D01*
X0044654D01*
Y0036474D01*
X0044876Y0036844D02*
Y0037067D01*
X0044654Y0036956D01*
Y0036900D01*
X0044987D01*
X0044932Y0037214D02*
X0044987Y0037242D01*
Y0037409D01*
X0044932Y0037437D01*
X0044709D01*
X0044654Y0037409D01*
Y0037242D01*
X0044709Y0037214D01*
X0036281Y0033342D02*
Y0033509D01*
X0036225Y0033537D01*
X0036169D01*
X0036114Y0033509D01*
Y0033342D01*
X0036169Y0033314D01*
X0036225D01*
X0036447Y0033426D01*
X0036281Y0033879D02*
Y0033712D01*
X0036336Y0033684D01*
X0036392D01*
X0036447Y0033712D01*
Y0033879D01*
X0036392Y0033907D01*
X0036336D01*
X0036114Y0033796D01*
X0036392Y0034054D02*
X0036447Y0034082D01*
Y0034249D01*
X0036392Y0034277D01*
X0036169D01*
X0036114Y0034249D01*
Y0034082D01*
X0036169Y0034054D01*
X0042061Y0041182D02*
X0042005Y0041238D01*
Y0041349D01*
X0042061Y0041404D01*
X0042116D01*
X0042227Y0041293D01*
X0042338Y0041404D01*
Y0041182D01*
X0042005Y0041034D02*
Y0040812D01*
X0042227Y0041034D01*
X0042283D01*
X0042338Y0041007D01*
Y0040840D01*
X0042283Y0040812D01*
X0042172Y0040581D02*
X0042005Y0040664D01*
X0042172Y0040442D02*
Y0040609D01*
X0042227Y0040664D01*
X0042283D01*
X0042338Y0040609D01*
Y0040442D01*
X0042005D01*
X0003505Y0014726D02*
X0003728D01*
X0003617Y0014948D01*
X0003561D01*
Y0014615D01*
X0004098Y0014671D02*
X0004070Y0014615D01*
X0003903D01*
X0003875Y0014671D01*
Y0014782D01*
X0003931Y0014837D01*
X0004098D01*
Y0014948D01*
X0003875D01*
X0004245Y0014671D02*
X0004273Y0014615D01*
X0004440D01*
X0004468Y0014671D01*
Y0014893D01*
X0004440Y0014948D01*
X0004273D01*
X0004245Y0014893D01*
X0037692Y0039405D02*
X0037525Y0039738D01*
X0037748D01*
X0037979Y0039572D02*
X0037895Y0039405D01*
X0038118Y0039572D02*
X0037951D01*
X0037895Y0039627D01*
Y0039683D01*
X0037951Y0039738D01*
X0038118D01*
Y0039405D01*
X0023009Y0036418D02*
X0023065Y0036390D01*
Y0036223D01*
X0023009Y0036195D01*
X0022898D01*
X0022843Y0036251D01*
Y0036418D01*
X0022732D01*
Y0036195D01*
X0023065Y0036565D02*
Y0036788D01*
X0022843Y0036565D01*
X0022787D01*
X0022732Y0036593D01*
Y0036760D01*
X0022787Y0036788D01*
X0022898Y0037019D02*
X0023065Y0036935D01*
X0022898Y0037158D02*
Y0036991D01*
X0022843Y0036935D01*
X0022787D01*
X0022732Y0036991D01*
Y0037158D01*
X0023065D01*
X0021605Y0037131D02*
Y0037242D01*
Y0037187D02*
X0021272D01*
X0021327Y0037242D01*
X0021605Y0037445D02*
Y0037668D01*
X0021383Y0037445D01*
X0021327D01*
X0021272Y0037473D01*
Y0037640D01*
X0021327Y0037668D01*
X0021549Y0037815D02*
X0021605Y0037843D01*
Y0038010D01*
X0021549Y0038038D01*
X0021327D01*
X0021272Y0038010D01*
Y0037843D01*
X0021327Y0037815D01*
X0025052Y0037559D02*
X0025219D01*
X0025247Y0037615D01*
Y0037670D01*
X0025219Y0037726D01*
X0025052D01*
X0025024Y0037670D01*
Y0037615D01*
X0025136Y0037393D01*
X0025478Y0037559D02*
X0025394Y0037393D01*
X0025617Y0037559D02*
X0025450D01*
X0025394Y0037615D01*
Y0037670D01*
X0025450Y0037726D01*
X0025617D01*
Y0037393D01*
X0024044Y0037115D02*
X0024266D01*
X0024155Y0037338D01*
X0024099D01*
Y0037004D01*
X0024414D02*
X0024636D01*
X0024414Y0037227D01*
Y0037282D01*
X0024442Y0037338D01*
X0024608D01*
X0024636Y0037282D01*
X0024867Y0037171D02*
X0024784Y0037004D01*
X0025006Y0037171D02*
X0024839D01*
X0024784Y0037227D01*
Y0037282D01*
X0024839Y0037338D01*
X0025006D01*
Y0037004D01*
X0024044Y0037115D02*
X0024266D01*
X0024155Y0037338D01*
X0024099D01*
Y0037004D01*
X0024414D02*
X0024636D01*
X0024414Y0037227D01*
Y0037282D01*
X0024442Y0037338D01*
X0024608D01*
X0024636Y0037282D01*
X0024867Y0037171D02*
X0024784Y0037004D01*
X0025006Y0037171D02*
X0024839D01*
X0024784Y0037227D01*
Y0037282D01*
X0024839Y0037338D01*
X0025006D01*
Y0037004D01*
X0061395Y0022642D02*
X0061228D01*
X0061200Y0022586D01*
Y0022531D01*
X0061228Y0022475D01*
X0061395D01*
X0061423Y0022531D01*
Y0022586D01*
X0061312Y0022808D01*
X0061598Y0022642D02*
X0061570Y0022697D01*
Y0022753D01*
X0061598Y0022808D01*
X0061765D01*
X0061793Y0022753D01*
Y0022697D01*
X0061765Y0022642D01*
X0061598D01*
X0061570Y0022586D01*
Y0022531D01*
X0061598Y0022475D01*
X0061765D01*
X0061793Y0022531D01*
Y0022586D01*
X0061765Y0022642D01*
X0061940Y0022531D02*
X0061968Y0022475D01*
X0062135D01*
X0062163Y0022531D01*
Y0022753D01*
X0062135Y0022808D01*
X0061968D01*
X0061940Y0022753D01*
X0032255Y0037194D02*
X0032199Y0037250D01*
X0032144Y0037278D01*
X0032033D01*
X0031977Y0037250D01*
X0031922Y0037194D01*
Y0037139D01*
X0031977Y0037083D01*
X0032033Y0037055D01*
X0032144D01*
X0032199Y0037083D01*
X0032255Y0037139D01*
Y0037194D01*
Y0037592D02*
X0031922Y0037425D01*
Y0037648D01*
X0032199Y0037795D02*
X0032255Y0037823D01*
Y0037990D01*
X0032199Y0038018D01*
X0031977D01*
X0031922Y0037990D01*
Y0037823D01*
X0031977Y0037795D01*
X0059007Y0030585D02*
X0058840Y0030918D01*
X0059063D01*
X0059238Y0030752D02*
X0059210Y0030807D01*
Y0030863D01*
X0059238Y0030918D01*
X0059405D01*
X0059433Y0030863D01*
Y0030807D01*
X0059405Y0030752D01*
X0059238D01*
X0059210Y0030696D01*
Y0030641D01*
X0059238Y0030585D01*
X0059405D01*
X0059433Y0030641D01*
Y0030696D01*
X0059405Y0030752D01*
X0059580Y0030641D02*
X0059608Y0030585D01*
X0059775D01*
X0059803Y0030641D01*
Y0030863D01*
X0059775Y0030918D01*
X0059608D01*
X0059580Y0030863D01*
X0059083Y0014622D02*
X0059055Y0014677D01*
Y0014733D01*
X0059083Y0014788D01*
X0059250D01*
X0059278Y0014733D01*
Y0014677D01*
X0059250Y0014622D01*
X0059083D01*
X0059055Y0014566D01*
Y0014511D01*
X0059083Y0014455D01*
X0059250D01*
X0059278Y0014511D01*
Y0014566D01*
X0059250Y0014622D01*
X0059453D02*
X0059425Y0014677D01*
Y0014733D01*
X0059453Y0014788D01*
X0059620D01*
X0059648Y0014733D01*
Y0014677D01*
X0059620Y0014622D01*
X0059453D01*
X0059425Y0014566D01*
Y0014511D01*
X0059453Y0014455D01*
X0059620D01*
X0059648Y0014511D01*
Y0014566D01*
X0059620Y0014622D01*
X0059795Y0014511D02*
X0059823Y0014455D01*
X0059990D01*
X0060018Y0014511D01*
Y0014733D01*
X0059990Y0014788D01*
X0059823D01*
X0059795Y0014733D01*
X0026664Y0011551D02*
Y0011773D01*
X0026442Y0011662D01*
Y0011607D01*
X0026775D01*
Y0012060D02*
X0026719Y0012116D01*
X0026664Y0012143D01*
X0026553D01*
X0026497Y0012116D01*
X0026442Y0012060D01*
Y0012004D01*
X0026497Y0011949D01*
X0026553Y0011921D01*
X0026664D01*
X0026719Y0011949D01*
X0026775Y0012004D01*
Y0012060D01*
Y0012291D02*
Y0012402D01*
Y0012347D02*
X0026442D01*
X0026497Y0012402D01*
X0026719Y0012605D02*
X0026775Y0012633D01*
Y0012800D01*
X0026719Y0012828D01*
X0026497D01*
X0026442Y0012800D01*
Y0012633D01*
X0026497Y0012605D01*
X0031462Y0018148D02*
X0031435Y0018093D01*
X0031268D01*
X0031240Y0018148D01*
Y0018259D01*
X0031296Y0018315D01*
X0031462D01*
Y0018426D01*
X0031240D01*
X0031610Y0018093D02*
X0031721D01*
X0031666D02*
Y0018426D01*
X0031721Y0018370D01*
X0032008Y0018259D02*
X0031924Y0018093D01*
X0032147Y0018259D02*
X0031980D01*
X0031924Y0018315D01*
Y0018370D01*
X0031980Y0018426D01*
X0032147D01*
Y0018093D01*
X0037478Y0011806D02*
Y0011639D01*
X0037534Y0011611D01*
X0037589D01*
X0037645Y0011639D01*
Y0011806D01*
X0037589Y0011833D01*
X0037534D01*
X0037312Y0011722D01*
X0037645Y0012120D02*
X0037589Y0012176D01*
X0037534Y0012203D01*
X0037423D01*
X0037367Y0012176D01*
X0037312Y0012120D01*
Y0012064D01*
X0037367Y0012009D01*
X0037423Y0011981D01*
X0037534D01*
X0037589Y0012009D01*
X0037645Y0012064D01*
Y0012120D01*
Y0012351D02*
Y0012462D01*
Y0012407D02*
X0037312D01*
X0037367Y0012462D01*
X0037589Y0012665D02*
X0037645Y0012693D01*
Y0012860D01*
X0037589Y0012888D01*
X0037367D01*
X0037312Y0012860D01*
Y0012693D01*
X0037367Y0012665D01*
X0032535Y0034795D02*
Y0035018D01*
X0032313Y0034795D01*
X0032257D01*
X0032202Y0034823D01*
Y0034990D01*
X0032257Y0035018D01*
X0032368Y0035360D02*
Y0035193D01*
X0032424Y0035165D01*
X0032479D01*
X0032535Y0035193D01*
Y0035360D01*
X0032479Y0035388D01*
X0032424D01*
X0032202Y0035277D01*
X0032479Y0035535D02*
X0032535Y0035563D01*
Y0035730D01*
X0032479Y0035758D01*
X0032257D01*
X0032202Y0035730D01*
Y0035563D01*
X0032257Y0035535D01*
X0039023Y0043102D02*
X0039190D01*
X0039218Y0043157D01*
Y0043213D01*
X0039190Y0043268D01*
X0039023D01*
X0038995Y0043213D01*
Y0043157D01*
X0039107Y0042935D01*
X0039532D02*
X0039365Y0043268D01*
X0039588D01*
X0039735Y0042991D02*
X0039763Y0042935D01*
X0039930D01*
X0039958Y0042991D01*
Y0043213D01*
X0039930Y0043268D01*
X0039763D01*
X0039735Y0043213D01*
X0035783Y0044752D02*
X0035755Y0044807D01*
Y0044863D01*
X0035783Y0044918D01*
X0035950D01*
X0035978Y0044863D01*
Y0044807D01*
X0035950Y0044752D01*
X0035783D01*
X0035755Y0044696D01*
Y0044641D01*
X0035783Y0044585D01*
X0035950D01*
X0035978Y0044641D01*
Y0044696D01*
X0035950Y0044752D01*
X0036320D02*
X0036153D01*
X0036125Y0044696D01*
Y0044641D01*
X0036153Y0044585D01*
X0036320D01*
X0036348Y0044641D01*
Y0044696D01*
X0036237Y0044918D01*
X0036495Y0044641D02*
X0036523Y0044585D01*
X0036690D01*
X0036718Y0044641D01*
Y0044863D01*
X0036690Y0044918D01*
X0036523D01*
X0036495Y0044863D01*
X0026362Y0030769D02*
X0026334Y0030825D01*
Y0030880D01*
X0026362Y0030936D01*
X0026529D01*
X0026557Y0030880D01*
Y0030825D01*
X0026529Y0030769D01*
X0026362D01*
X0026334Y0030714D01*
Y0030658D01*
X0026362Y0030603D01*
X0026529D01*
X0026557Y0030658D01*
Y0030714D01*
X0026529Y0030769D01*
X0026927Y0030658D02*
X0026899Y0030603D01*
X0026732D01*
X0026704Y0030658D01*
Y0030769D01*
X0026760Y0030825D01*
X0026927D01*
Y0030936D01*
X0026704D01*
X0027074Y0030658D02*
X0027102Y0030603D01*
X0027269D01*
X0027297Y0030658D01*
Y0030880D01*
X0027269Y0030936D01*
X0027102D01*
X0027074Y0030880D01*
X0033161Y0034115D02*
X0033272D01*
X0033217D02*
Y0034448D01*
X0033272Y0034393D01*
X0033670Y0034282D02*
X0033503D01*
X0033475Y0034226D01*
Y0034171D01*
X0033503Y0034115D01*
X0033670D01*
X0033698Y0034171D01*
Y0034226D01*
X0033587Y0034448D01*
X0033845Y0034171D02*
X0033873Y0034115D01*
X0034040D01*
X0034068Y0034171D01*
Y0034393D01*
X0034040Y0034448D01*
X0033873D01*
X0033845Y0034393D01*
X0042068Y0024050D02*
Y0023883D01*
X0042124Y0023855D01*
X0042179D01*
X0042235Y0023883D01*
Y0024050D01*
X0042179Y0024078D01*
X0042124D01*
X0041902Y0023967D01*
X0042235Y0024392D02*
X0041902Y0024225D01*
Y0024448D01*
X0042179Y0024595D02*
X0042235Y0024623D01*
Y0024790D01*
X0042179Y0024818D01*
X0041957D01*
X0041902Y0024790D01*
Y0024623D01*
X0041957Y0024595D01*
X0025312Y0036067D02*
X0025367Y0036039D01*
Y0035872D01*
X0025312Y0035844D01*
X0025201D01*
X0025145Y0035900D01*
Y0036067D01*
X0025034D01*
Y0035844D01*
X0025201Y0036409D02*
Y0036242D01*
X0025256Y0036214D01*
X0025312D01*
X0025367Y0036242D01*
Y0036409D01*
X0025312Y0036437D01*
X0025256D01*
X0025034Y0036326D01*
X0025312Y0036584D02*
X0025367Y0036612D01*
Y0036779D01*
X0025312Y0036807D01*
X0025089D01*
X0025034Y0036779D01*
Y0036612D01*
X0025089Y0036584D01*
X0042447Y0015374D02*
Y0015597D01*
X0042225Y0015374D01*
X0042169D01*
X0042114Y0015402D01*
Y0015569D01*
X0042169Y0015597D01*
X0042447Y0015911D02*
X0042114Y0015744D01*
Y0015967D01*
X0042392Y0016114D02*
X0042447Y0016142D01*
Y0016309D01*
X0042392Y0016337D01*
X0042169D01*
X0042114Y0016309D01*
Y0016142D01*
X0042169Y0016114D01*
X0033027Y0023690D02*
Y0023801D01*
Y0023746D02*
X0032694D01*
X0032749Y0023801D01*
X0032861Y0024032D02*
Y0024199D01*
X0032805Y0024227D01*
X0032749D01*
X0032694Y0024199D01*
Y0024032D01*
X0032749Y0024004D01*
X0032805D01*
X0033027Y0024116D01*
X0032972Y0024374D02*
X0033027Y0024402D01*
Y0024569D01*
X0032972Y0024597D01*
X0032749D01*
X0032694Y0024569D01*
Y0024402D01*
X0032749Y0024374D01*
X0036766Y0031990D02*
X0036710Y0031934D01*
X0036599D01*
X0036544Y0031990D01*
Y0032045D01*
X0036655Y0032157D01*
X0036544Y0032268D01*
X0036766D01*
X0036914Y0031990D02*
X0036942Y0031934D01*
X0037108D01*
X0037136Y0031990D01*
Y0032212D01*
X0037108Y0032268D01*
X0036942D01*
X0036914Y0032212D01*
X0033075Y0031256D02*
X0033298D01*
X0033187Y0031478D01*
X0033131D01*
Y0031145D01*
X0033445Y0031201D02*
X0033473Y0031145D01*
X0033640D01*
X0033668Y0031201D01*
Y0031423D01*
X0033640Y0031478D01*
X0033473D01*
X0033445Y0031423D01*
X0036116Y0036804D02*
Y0037027D01*
X0035894Y0036916D01*
Y0036860D01*
X0036227D01*
X0036061Y0037369D02*
Y0037202D01*
X0036116Y0037174D01*
X0036172D01*
X0036227Y0037202D01*
Y0037369D01*
X0036172Y0037397D01*
X0036116D01*
X0035894Y0037286D01*
X0036172Y0037544D02*
X0036227Y0037572D01*
Y0037739D01*
X0036172Y0037767D01*
X0035949D01*
X0035894Y0037739D01*
Y0037572D01*
X0035949Y0037544D01*
X0038785Y0016641D02*
X0038952D01*
X0038980Y0016696D01*
Y0016752D01*
X0038952Y0016807D01*
X0038785D01*
X0038758Y0016752D01*
Y0016696D01*
X0038869Y0016474D01*
X0038610Y0016807D02*
X0038499D01*
X0038554D02*
Y0016474D01*
X0038499Y0016529D01*
X0038212Y0016641D02*
X0038295Y0016807D01*
X0038073Y0016641D02*
X0038240D01*
X0038295Y0016585D01*
Y0016529D01*
X0038240Y0016474D01*
X0038073D01*
Y0016807D01*
X0035213Y0016652D02*
X0035241Y0016707D01*
X0035408D01*
X0035435Y0016652D01*
Y0016541D01*
X0035380Y0016485D01*
X0035213D01*
Y0016374D01*
X0035435D01*
X0034899Y0016707D02*
X0035065Y0016374D01*
X0034843D01*
X0034695Y0016652D02*
X0034668Y0016707D01*
X0034501D01*
X0034473Y0016652D01*
Y0016429D01*
X0034501Y0016374D01*
X0034668D01*
X0034695Y0016429D01*
X0037942Y0037933D02*
X0038053D01*
X0037997D02*
Y0038267D01*
X0038053Y0038211D01*
X0038256Y0037989D02*
X0038284Y0037933D01*
X0038451D01*
X0038478Y0037989D01*
Y0038211D01*
X0038451Y0038267D01*
X0038284D01*
X0038256Y0038211D01*
X0035482Y0039629D02*
X0035454Y0039685D01*
Y0039740D01*
X0035482Y0039796D01*
X0035649D01*
X0035677Y0039740D01*
Y0039685D01*
X0035649Y0039629D01*
X0035482D01*
X0035454Y0039574D01*
Y0039518D01*
X0035482Y0039463D01*
X0035649D01*
X0035677Y0039518D01*
Y0039574D01*
X0035649Y0039629D01*
X0035824Y0039518D02*
X0035852Y0039463D01*
X0036019D01*
X0036047Y0039518D01*
Y0039740D01*
X0036019Y0039796D01*
X0035852D01*
X0035824Y0039740D01*
X0039837Y0027843D02*
X0039782Y0027899D01*
X0039726Y0027927D01*
X0039615D01*
X0039559Y0027899D01*
X0039504Y0027843D01*
Y0027788D01*
X0039559Y0027732D01*
X0039615Y0027704D01*
X0039726D01*
X0039782Y0027732D01*
X0039837Y0027788D01*
Y0027843D01*
X0039671Y0028269D02*
Y0028102D01*
X0039726Y0028074D01*
X0039782D01*
X0039837Y0028102D01*
Y0028269D01*
X0039782Y0028297D01*
X0039726D01*
X0039504Y0028186D01*
X0039782Y0028444D02*
X0039837Y0028472D01*
Y0028639D01*
X0039782Y0028667D01*
X0039559D01*
X0039504Y0028639D01*
Y0028472D01*
X0039559Y0028444D01*
X0027816Y0027350D02*
X0027844Y0027294D01*
Y0027239D01*
X0027816Y0027183D01*
X0027649D01*
X0027622Y0027239D01*
Y0027294D01*
X0027649Y0027350D01*
X0027816D01*
X0027844Y0027405D01*
Y0027461D01*
X0027816Y0027517D01*
X0027649D01*
X0027622Y0027461D01*
Y0027405D01*
X0027649Y0027350D01*
X0027446D02*
X0027279D01*
X0027252Y0027294D01*
Y0027239D01*
X0027279Y0027183D01*
X0027446D01*
X0027474Y0027239D01*
Y0027294D01*
X0027363Y0027517D01*
X0027104Y0027461D02*
X0027076Y0027517D01*
X0026909D01*
X0026882Y0027461D01*
Y0027239D01*
X0026909Y0027183D01*
X0027076D01*
X0027104Y0027239D01*
X0026878Y0034779D02*
X0026823Y0034723D01*
X0026712D01*
X0026656Y0034779D01*
Y0034834D01*
X0026767Y0034946D01*
X0026656Y0035057D01*
X0026878D01*
X0027193Y0034723D02*
X0027026Y0035057D01*
X0027248D01*
X0027396Y0034779D02*
X0027424Y0034723D01*
X0027591D01*
X0027618Y0034779D01*
Y0035001D01*
X0027591Y0035057D01*
X0027424D01*
X0027396Y0035001D01*
X0043382Y0033350D02*
X0043116D01*
X0043249Y0033483D02*
Y0033217D01*
X0042778Y0036931D02*
X0042612D01*
X0042584Y0036875D01*
Y0036820D01*
X0042612Y0036764D01*
X0042778D01*
X0042806Y0036820D01*
Y0036875D01*
X0042695Y0037098D01*
X0043148Y0036931D02*
X0042982D01*
X0042954Y0036875D01*
Y0036820D01*
X0042982Y0036764D01*
X0043148D01*
X0043176Y0036820D01*
Y0036875D01*
X0043065Y0037098D01*
X0043324Y0036820D02*
X0043352Y0036764D01*
X0043518D01*
X0043546Y0036820D01*
Y0037042D01*
X0043518Y0037098D01*
X0043352D01*
X0043324Y0037042D01*
X0038072Y0021889D02*
X0038239D01*
X0038267Y0021945D01*
Y0022000D01*
X0038239Y0022056D01*
X0038072D01*
X0038044Y0022000D01*
Y0021945D01*
X0038156Y0021723D01*
X0038637Y0021778D02*
X0038609Y0021723D01*
X0038442D01*
X0038414Y0021778D01*
Y0021889D01*
X0038470Y0021945D01*
X0038637D01*
Y0022056D01*
X0038414D01*
X0038784Y0021778D02*
X0038812Y0021723D01*
X0038979D01*
X0039007Y0021778D01*
Y0022000D01*
X0038979Y0022056D01*
X0038812D01*
X0038784Y0022000D01*
X0017277Y0011847D02*
X0016944Y0011680D01*
Y0011902D01*
X0017277Y0012189D02*
X0017222Y0012245D01*
X0017166Y0012272D01*
X0017055D01*
X0016999Y0012245D01*
X0016944Y0012189D01*
Y0012133D01*
X0016999Y0012078D01*
X0017055Y0012050D01*
X0017166D01*
X0017222Y0012078D01*
X0017277Y0012133D01*
Y0012189D01*
Y0012420D02*
Y0012531D01*
Y0012476D02*
X0016944D01*
X0016999Y0012531D01*
X0017222Y0012734D02*
X0017277Y0012762D01*
Y0012929D01*
X0017222Y0012957D01*
X0016999D01*
X0016944Y0012929D01*
Y0012762D01*
X0016999Y0012734D01*
X0019585Y0039091D02*
Y0039202D01*
Y0039147D02*
X0019252D01*
X0019307Y0039202D01*
X0019585Y0039572D02*
X0019252Y0039405D01*
Y0039628D01*
X0019529Y0039775D02*
X0019585Y0039803D01*
Y0039970D01*
X0019529Y0039998D01*
X0019307D01*
X0019252Y0039970D01*
Y0039803D01*
X0019307Y0039775D01*
X0010767Y0014308D02*
X0010739Y0014253D01*
X0010572D01*
X0010544Y0014308D01*
Y0014419D01*
X0010600Y0014475D01*
X0010767D01*
Y0014586D01*
X0010544D01*
X0010942Y0014419D02*
X0010914Y0014475D01*
Y0014530D01*
X0010942Y0014586D01*
X0011109D01*
X0011137Y0014530D01*
Y0014475D01*
X0011109Y0014419D01*
X0010942D01*
X0010914Y0014364D01*
Y0014308D01*
X0010942Y0014253D01*
X0011109D01*
X0011137Y0014308D01*
Y0014364D01*
X0011109Y0014419D01*
X0011284Y0014308D02*
X0011312Y0014253D01*
X0011479D01*
X0011507Y0014308D01*
Y0014530D01*
X0011479Y0014586D01*
X0011312D01*
X0011284Y0014530D01*
X0041452Y0033451D02*
X0041424Y0033507D01*
Y0033562D01*
X0041452Y0033618D01*
X0041618D01*
X0041646Y0033562D01*
Y0033507D01*
X0041618Y0033451D01*
X0041452D01*
X0041424Y0033395D01*
Y0033340D01*
X0041452Y0033284D01*
X0041618D01*
X0041646Y0033340D01*
Y0033395D01*
X0041618Y0033451D01*
X0041960Y0033284D02*
X0041794Y0033618D01*
X0042016D01*
X0042164Y0033340D02*
X0042192Y0033284D01*
X0042358D01*
X0042386Y0033340D01*
Y0033562D01*
X0042358Y0033618D01*
X0042192D01*
X0042164Y0033562D01*
X0027118Y0037019D02*
X0027091Y0036963D01*
X0026924D01*
X0026896Y0037019D01*
Y0037130D01*
X0026952Y0037186D01*
X0027118D01*
Y0037297D01*
X0026896D01*
X0027488Y0037019D02*
X0027461Y0036963D01*
X0027294D01*
X0027266Y0037019D01*
Y0037130D01*
X0027322Y0037186D01*
X0027488D01*
Y0037297D01*
X0027266D01*
X0027636Y0037019D02*
X0027664Y0036963D01*
X0027831D01*
X0027858Y0037019D01*
Y0037241D01*
X0027831Y0037297D01*
X0027664D01*
X0027636Y0037241D01*
X0042915Y0038557D02*
X0042693D01*
X0042915Y0038335D01*
Y0038279D01*
X0042888Y0038224D01*
X0042721D01*
X0042693Y0038279D01*
X0042323Y0038502D02*
X0042351Y0038557D01*
X0042518D01*
X0042545Y0038502D01*
Y0038391D01*
X0042490Y0038335D01*
X0042323D01*
Y0038224D01*
X0042545D01*
X0042175Y0038502D02*
X0042148Y0038557D01*
X0041981D01*
X0041953Y0038502D01*
Y0038279D01*
X0041981Y0038224D01*
X0042148D01*
X0042175Y0038279D01*
X0043502Y0017497D02*
X0043557Y0017441D01*
Y0017330D01*
X0043502Y0017274D01*
X0043446D01*
X0043335Y0017386D01*
X0043224Y0017274D01*
Y0017497D01*
X0043502Y0017867D02*
X0043557Y0017839D01*
Y0017672D01*
X0043502Y0017644D01*
X0043391D01*
X0043335Y0017700D01*
Y0017867D01*
X0043224D01*
Y0017644D01*
X0043502Y0018014D02*
X0043557Y0018042D01*
Y0018209D01*
X0043502Y0018237D01*
X0043279D01*
X0043224Y0018209D01*
Y0018042D01*
X0043279Y0018014D01*
X0003039Y0030739D02*
X0002872D01*
X0002844Y0030684D01*
Y0030628D01*
X0002872Y0030573D01*
X0003039D01*
X0003067Y0030628D01*
Y0030684D01*
X0002956Y0030906D01*
X0003437Y0030628D02*
X0003409Y0030573D01*
X0003242D01*
X0003214Y0030628D01*
Y0030739D01*
X0003270Y0030795D01*
X0003437D01*
Y0030906D01*
X0003214D01*
X0003584Y0030628D02*
X0003612Y0030573D01*
X0003779D01*
X0003807Y0030628D01*
Y0030850D01*
X0003779Y0030906D01*
X0003612D01*
X0003584Y0030850D01*
X0029428Y0038220D02*
Y0038053D01*
X0029484Y0038025D01*
X0029539D01*
X0029595Y0038053D01*
Y0038220D01*
X0029539Y0038248D01*
X0029484D01*
X0029262Y0038137D01*
X0029539Y0038395D02*
X0029595Y0038423D01*
Y0038590D01*
X0029539Y0038618D01*
X0029317D01*
X0029262Y0038590D01*
Y0038423D01*
X0029317Y0038395D01*
X0038859Y0034478D02*
X0038915Y0034422D01*
Y0034311D01*
X0038859Y0034255D01*
X0038804D01*
X0038693Y0034367D01*
X0038582Y0034255D01*
Y0034478D01*
X0038915Y0034625D02*
Y0034848D01*
X0038693Y0034625D01*
X0038637D01*
X0038582Y0034653D01*
Y0034820D01*
X0038637Y0034848D01*
X0038859Y0034995D02*
X0038915Y0035023D01*
Y0035190D01*
X0038859Y0035218D01*
X0038637D01*
X0038582Y0035190D01*
Y0035023D01*
X0038637Y0034995D01*
X0039165Y0033334D02*
Y0033112D01*
X0039387Y0033334D01*
X0039443D01*
X0039498Y0033307D01*
Y0033140D01*
X0039443Y0033112D01*
X0039221Y0032964D02*
X0039165Y0032937D01*
Y0032770D01*
X0039221Y0032742D01*
X0039443D01*
X0039498Y0032770D01*
Y0032937D01*
X0039443Y0032964D01*
X0027708Y0022359D02*
X0027653Y0022331D01*
X0027597D01*
X0027542Y0022359D01*
Y0022526D01*
X0027597Y0022553D01*
X0027653D01*
X0027708Y0022526D01*
Y0022359D01*
X0027764Y0022331D01*
X0027819D01*
X0027875Y0022359D01*
Y0022526D01*
X0027819Y0022553D01*
X0027764D01*
X0027708Y0022526D01*
X0027875Y0022701D02*
Y0022812D01*
Y0022757D02*
X0027542D01*
X0027597Y0022812D01*
X0027708Y0023099D02*
X0027875Y0023015D01*
X0027708Y0023238D02*
Y0023071D01*
X0027653Y0023015D01*
X0027597D01*
X0027542Y0023071D01*
Y0023238D01*
X0027875D01*
X0037583Y0038822D02*
X0037555Y0038877D01*
Y0038933D01*
X0037583Y0038988D01*
X0037750D01*
X0037778Y0038933D01*
Y0038877D01*
X0037750Y0038822D01*
X0037583D01*
X0037555Y0038766D01*
Y0038711D01*
X0037583Y0038655D01*
X0037750D01*
X0037778Y0038711D01*
Y0038766D01*
X0037750Y0038822D01*
X0038009D02*
X0037925Y0038655D01*
X0038148Y0038822D02*
X0037981D01*
X0037925Y0038877D01*
Y0038933D01*
X0037981Y0038988D01*
X0038148D01*
Y0038655D01*
X0036905Y0027255D02*
Y0027478D01*
X0036683Y0027255D01*
X0036627D01*
X0036572Y0027283D01*
Y0027450D01*
X0036627Y0027478D01*
X0036738Y0027653D02*
Y0027820D01*
X0036683Y0027848D01*
X0036627D01*
X0036572Y0027820D01*
Y0027653D01*
X0036627Y0027625D01*
X0036683D01*
X0036905Y0027737D01*
X0036849Y0027995D02*
X0036905Y0028023D01*
Y0028190D01*
X0036849Y0028218D01*
X0036627D01*
X0036572Y0028190D01*
Y0028023D01*
X0036627Y0027995D01*
X0041753Y0032342D02*
X0041725Y0032397D01*
Y0032453D01*
X0041753Y0032508D01*
X0041920D01*
X0041948Y0032453D01*
Y0032397D01*
X0041920Y0032342D01*
X0041753D01*
X0041725Y0032286D01*
Y0032231D01*
X0041753Y0032175D01*
X0041920D01*
X0041948Y0032231D01*
Y0032286D01*
X0041920Y0032342D01*
X0042095Y0032286D02*
X0042318D01*
X0042207Y0032508D01*
X0042151D01*
Y0032175D01*
X0042465Y0032231D02*
X0042493Y0032175D01*
X0042660D01*
X0042688Y0032231D01*
Y0032453D01*
X0042660Y0032508D01*
X0042493D01*
X0042465Y0032453D01*
X0033138Y0037891D02*
X0033082Y0037835D01*
X0032971D01*
X0032915Y0037891D01*
Y0037946D01*
X0033027Y0038057D01*
X0032915Y0038168D01*
X0033138D01*
X0033480Y0038002D02*
X0033313D01*
X0033285Y0037946D01*
Y0037891D01*
X0033313Y0037835D01*
X0033480D01*
X0033508Y0037891D01*
Y0037946D01*
X0033397Y0038168D01*
X0033655Y0037891D02*
X0033683Y0037835D01*
X0033850D01*
X0033878Y0037891D01*
Y0038113D01*
X0033850Y0038168D01*
X0033683D01*
X0033655Y0038113D01*
X0038272Y0025330D02*
X0038006D01*
X0038139Y0025463D02*
Y0025197D01*
X0037700Y0028404D02*
X0037534Y0028738D01*
X0037756D01*
X0038098Y0028571D02*
X0037932D01*
X0037904Y0028515D01*
Y0028460D01*
X0037932Y0028404D01*
X0038098D01*
X0038126Y0028460D01*
Y0028515D01*
X0038015Y0028738D01*
X0038274Y0028460D02*
X0038302Y0028404D01*
X0038468D01*
X0038496Y0028460D01*
Y0028682D01*
X0038468Y0028738D01*
X0038302D01*
X0038274Y0028682D01*
X0029476Y0027694D02*
Y0027917D01*
X0029254Y0027806D01*
Y0027750D01*
X0029587D01*
Y0028231D02*
X0029254Y0028064D01*
Y0028287D01*
X0029532Y0028434D02*
X0029587Y0028462D01*
Y0028629D01*
X0029532Y0028657D01*
X0029309D01*
X0029254Y0028629D01*
Y0028462D01*
X0029309Y0028434D01*
X0031982Y0039815D02*
X0031815Y0040148D01*
X0032038D01*
X0032185Y0039871D02*
X0032213Y0039815D01*
X0032380D01*
X0032408Y0039871D01*
Y0040093D01*
X0032380Y0040148D01*
X0032213D01*
X0032185Y0040093D01*
X0030086Y0032420D02*
X0030058Y0032364D01*
X0029892D01*
X0029864Y0032420D01*
Y0032531D01*
X0029919Y0032587D01*
X0030086D01*
Y0032698D01*
X0029864D01*
X0030234Y0032420D02*
X0030262Y0032364D01*
X0030428D01*
X0030456Y0032420D01*
Y0032642D01*
X0030428Y0032698D01*
X0030262D01*
X0030234Y0032642D01*
X0037942Y0037933D02*
X0038053D01*
X0037997D02*
Y0038267D01*
X0038053Y0038211D01*
X0038256Y0037989D02*
X0038284Y0037933D01*
X0038451D01*
X0038478Y0037989D01*
Y0038211D01*
X0038451Y0038267D01*
X0038284D01*
X0038256Y0038211D01*
X0036591Y0016885D02*
X0036702D01*
X0036647D02*
Y0017218D01*
X0036702Y0017163D01*
X0036933Y0017052D02*
X0036905Y0017107D01*
Y0017163D01*
X0036933Y0017218D01*
X0037100D01*
X0037128Y0017163D01*
Y0017107D01*
X0037100Y0017052D01*
X0036933D01*
X0036905Y0016996D01*
Y0016941D01*
X0036933Y0016885D01*
X0037100D01*
X0037128Y0016941D01*
Y0016996D01*
X0037100Y0017052D01*
X0037275Y0016941D02*
X0037303Y0016885D01*
X0037470D01*
X0037498Y0016941D01*
Y0017163D01*
X0037470Y0017218D01*
X0037303D01*
X0037275Y0017163D01*
X0027261Y0021495D02*
X0027372D01*
X0027317D02*
Y0021828D01*
X0027372Y0021773D01*
X0027575Y0021495D02*
X0027798D01*
X0027575Y0021717D01*
Y0021773D01*
X0027603Y0021828D01*
X0027770D01*
X0027798Y0021773D01*
X0028029Y0021662D02*
X0027945Y0021495D01*
X0028168Y0021662D02*
X0028001D01*
X0027945Y0021717D01*
Y0021773D01*
X0028001Y0021828D01*
X0028168D01*
Y0021495D01*
X0041483Y0036803D02*
X0041316Y0037137D01*
X0041538D01*
X0041686Y0036914D02*
X0041908D01*
X0041797Y0037137D01*
X0041742D01*
Y0036803D01*
X0042056Y0036859D02*
X0042084Y0036803D01*
X0042251D01*
X0042278Y0036859D01*
Y0037081D01*
X0042251Y0037137D01*
X0042084D01*
X0042056Y0037081D01*
X0050772Y0036927D02*
X0050827Y0036871D01*
Y0036760D01*
X0050772Y0036704D01*
X0050716D01*
X0050605Y0036816D01*
X0050494Y0036704D01*
Y0036927D01*
X0050716Y0037074D02*
Y0037297D01*
X0050494Y0037186D01*
Y0037130D01*
X0050827D01*
X0050772Y0037444D02*
X0050827Y0037472D01*
Y0037639D01*
X0050772Y0037667D01*
X0050549D01*
X0050494Y0037639D01*
Y0037472D01*
X0050549Y0037444D01*
X0025364Y0039014D02*
X0025587D01*
X0025476Y0039236D01*
X0025420D01*
Y0038903D01*
X0025734Y0039014D02*
X0025957D01*
X0025846Y0039236D01*
X0025790D01*
Y0038903D01*
X0026104Y0038958D02*
X0026132Y0038903D01*
X0026299D01*
X0026327Y0038958D01*
Y0039180D01*
X0026299Y0039236D01*
X0026132D01*
X0026104Y0039180D01*
X0001154Y0022453D02*
X0001377D01*
X0001154Y0022675D01*
Y0022730D01*
X0001182Y0022786D01*
X0001349D01*
X0001377Y0022730D01*
X0001552Y0022619D02*
X0001524Y0022675D01*
Y0022730D01*
X0001552Y0022786D01*
X0001719D01*
X0001747Y0022730D01*
Y0022675D01*
X0001719Y0022619D01*
X0001552D01*
X0001524Y0022564D01*
Y0022508D01*
X0001552Y0022453D01*
X0001719D01*
X0001747Y0022508D01*
Y0022564D01*
X0001719Y0022619D01*
X0001894Y0022508D02*
X0001922Y0022453D01*
X0002089D01*
X0002117Y0022508D01*
Y0022730D01*
X0002089Y0022786D01*
X0001922D01*
X0001894Y0022730D01*
X0033005Y0042812D02*
X0032672Y0042645D01*
Y0042868D01*
X0032949Y0043238D02*
X0033005Y0043210D01*
Y0043043D01*
X0032949Y0043015D01*
X0032838D01*
X0032783Y0043071D01*
Y0043238D01*
X0032672D01*
Y0043015D01*
X0032949Y0043385D02*
X0033005Y0043413D01*
Y0043580D01*
X0032949Y0043608D01*
X0032727D01*
X0032672Y0043580D01*
Y0043413D01*
X0032727Y0043385D01*
X0018705Y0011514D02*
X0018649Y0011570D01*
X0018594Y0011598D01*
X0018483D01*
X0018427Y0011570D01*
X0018372Y0011514D01*
Y0011459D01*
X0018427Y0011403D01*
X0018483Y0011375D01*
X0018594D01*
X0018649Y0011403D01*
X0018705Y0011459D01*
Y0011514D01*
X0018594Y0011745D02*
Y0011968D01*
X0018372Y0011857D01*
Y0011801D01*
X0018705D01*
X0018649Y0012115D02*
X0018705Y0012143D01*
Y0012310D01*
X0018649Y0012338D01*
X0018427D01*
X0018372Y0012310D01*
Y0012143D01*
X0018427Y0012115D01*
X0039756Y0037174D02*
Y0036952D01*
X0039534Y0037063D01*
Y0037119D01*
X0039867D01*
Y0036804D02*
Y0036582D01*
X0039645Y0036804D01*
X0039589D01*
X0039534Y0036777D01*
Y0036610D01*
X0039589Y0036582D01*
X0039812Y0036434D02*
X0039867Y0036407D01*
Y0036240D01*
X0039812Y0036212D01*
X0039589D01*
X0039534Y0036240D01*
Y0036407D01*
X0039589Y0036434D01*
X0029531Y0035929D02*
Y0035762D01*
X0029586Y0035734D01*
X0029642D01*
X0029697Y0035762D01*
Y0035929D01*
X0029642Y0035957D01*
X0029586D01*
X0029364Y0035846D01*
X0029697Y0036104D02*
Y0036327D01*
X0029475Y0036104D01*
X0029419D01*
X0029364Y0036132D01*
Y0036299D01*
X0029419Y0036327D01*
X0029642Y0036474D02*
X0029697Y0036502D01*
Y0036669D01*
X0029642Y0036697D01*
X0029419D01*
X0029364Y0036669D01*
Y0036502D01*
X0029419Y0036474D01*
X0037311Y0018513D02*
X0037144Y0018846D01*
X0037367D01*
X0037542Y0018679D02*
X0037709D01*
X0037737Y0018735D01*
Y0018790D01*
X0037709Y0018846D01*
X0037542D01*
X0037514Y0018790D01*
Y0018735D01*
X0037626Y0018513D01*
X0037884Y0018568D02*
X0037912Y0018513D01*
X0038079D01*
X0038107Y0018568D01*
Y0018790D01*
X0038079Y0018846D01*
X0037912D01*
X0037884Y0018790D01*
X0029019Y0043009D02*
X0028852D01*
X0028824Y0042954D01*
Y0042898D01*
X0028852Y0042843D01*
X0029019D01*
X0029047Y0042898D01*
Y0042954D01*
X0028936Y0043176D01*
X0029194Y0042954D02*
X0029417D01*
X0029306Y0043176D01*
X0029250D01*
Y0042843D01*
X0029564Y0042898D02*
X0029592Y0042843D01*
X0029759D01*
X0029787Y0042898D01*
Y0043120D01*
X0029759Y0043176D01*
X0029592D01*
X0029564Y0043120D01*
X0037084Y0042115D02*
X0037140Y0042171D01*
X0037168Y0042226D01*
Y0042337D01*
X0037140Y0042393D01*
X0037084Y0042448D01*
X0037029D01*
X0036973Y0042393D01*
X0036945Y0042337D01*
Y0042226D01*
X0036973Y0042171D01*
X0037029Y0042115D01*
X0037084D01*
X0037538Y0042171D02*
X0037510Y0042115D01*
X0037343D01*
X0037315Y0042171D01*
Y0042282D01*
X0037371Y0042337D01*
X0037538D01*
Y0042448D01*
X0037315D01*
X0037685Y0042171D02*
X0037713Y0042115D01*
X0037880D01*
X0037908Y0042171D01*
Y0042393D01*
X0037880Y0042448D01*
X0037713D01*
X0037685Y0042393D01*
X0012698Y0022921D02*
X0012642Y0022865D01*
X0012531D01*
X0012475Y0022921D01*
Y0022976D01*
X0012587Y0023087D01*
X0012475Y0023198D01*
X0012698D01*
X0012873Y0023032D02*
X0012845Y0023087D01*
Y0023143D01*
X0012873Y0023198D01*
X0013040D01*
X0013068Y0023143D01*
Y0023087D01*
X0013040Y0023032D01*
X0012873D01*
X0012845Y0022976D01*
Y0022921D01*
X0012873Y0022865D01*
X0013040D01*
X0013068Y0022921D01*
Y0022976D01*
X0013040Y0023032D01*
X0013215Y0022921D02*
X0013243Y0022865D01*
X0013410D01*
X0013438Y0022921D01*
Y0023143D01*
X0013410Y0023198D01*
X0013243D01*
X0013215Y0023143D01*
X0034673Y0031459D02*
X0035006Y0031625D01*
Y0031403D01*
X0034673Y0031089D02*
X0035006Y0031255D01*
Y0031033D01*
X0034728Y0030885D02*
X0034673Y0030858D01*
Y0030691D01*
X0034728Y0030663D01*
X0034950D01*
X0035006Y0030691D01*
Y0030858D01*
X0034950Y0030885D01*
X0030395Y0016025D02*
Y0017175D01*
X0031040D01*
Y0016025D01*
X0030395D01*
X0022258Y0040477D02*
X0025289D01*
Y0037958D01*
X0022218D01*
Y0040477D01*
X0022258D01*
X0034255Y0028335D02*
Y0027185D01*
X0033610D01*
Y0028335D01*
X0034255D01*
X0028415Y0024335D02*
Y0025485D01*
X0029060D01*
Y0024335D01*
X0028415D01*
X0023565Y0018795D02*
Y0017645D01*
X0022920D01*
Y0018795D01*
X0023565D01*
X0034005Y0024705D02*
Y0023555D01*
X0033360D01*
Y0024705D01*
X0034005D01*
X0036695Y0025935D02*
Y0027085D01*
X0037340D01*
Y0025935D01*
X0036695D01*
X0043375Y0039895D02*
Y0041045D01*
X0044020D01*
Y0039895D01*
X0043375D01*
X0045070Y0025135D02*
Y0024385D01*
X0043470D01*
Y0025135D01*
X0045070D01*
X0061640Y0023715D02*
X0062790D01*
Y0023070D01*
X0061640D01*
Y0023715D01*
X0036535Y0016685D02*
X0037685D01*
Y0016040D01*
X0036535D01*
Y0016685D01*
X0041035Y0023745D02*
Y0024895D01*
X0041680D01*
Y0023745D01*
X0041035D01*
X0041725Y0033955D02*
Y0035105D01*
X0042370D01*
Y0033955D01*
X0041725D01*
X0035365Y0030475D02*
Y0031625D01*
X0036010D01*
Y0030475D01*
X0035365D01*
X0039035Y0042615D02*
X0040185D01*
Y0041970D01*
X0039035D01*
Y0042615D01*
X0043185Y0041035D02*
Y0039885D01*
X0042540D01*
Y0041035D01*
X0043185D01*
X0039175Y0034125D02*
Y0035275D01*
X0039820D01*
Y0034125D01*
X0039175D01*
X0039415Y0037215D02*
Y0036065D01*
X0038770D01*
Y0037215D01*
X0039415D01*
X0036195Y0039975D02*
X0035045D01*
Y0040620D01*
X0036195D01*
Y0039975D01*
X0025525Y0011165D02*
Y0012315D01*
X0026170D01*
Y0011165D01*
X0025525D01*
X0027655Y0038665D02*
X0026505D01*
Y0039310D01*
X0027655D01*
Y0038665D01*
X0037675Y0011055D02*
Y0012205D01*
X0038320D01*
Y0011055D01*
X0037675D01*
X0041905Y0039455D02*
X0043055D01*
Y0038810D01*
X0041905D01*
Y0039455D01*
X0024195Y0035595D02*
Y0036745D01*
X0024840D01*
Y0035595D01*
X0024195D01*
X0013005Y0024125D02*
X0014155D01*
Y0023480D01*
X0013005D01*
Y0024125D01*
X0026935Y0021205D02*
X0028085D01*
Y0020560D01*
X0026935D01*
Y0021205D01*
X0029695Y0037675D02*
Y0038825D01*
X0030340D01*
Y0037675D01*
X0029695D01*
X0017575Y0011205D02*
Y0012355D01*
X0018220D01*
Y0011205D01*
X0017575D01*
X0041935Y0016455D02*
Y0015305D01*
X0041290D01*
Y0016455D01*
X0041935D01*
X0032805Y0032315D02*
X0033955D01*
Y0031670D01*
X0032805D01*
Y0032315D01*
X0035545Y0042645D02*
X0036695D01*
Y0042000D01*
X0035545D01*
Y0042645D01*
X0016765Y0012215D02*
Y0011065D01*
X0016120D01*
Y0012215D01*
X0016765D01*
X0042315Y0036595D02*
Y0035445D01*
X0041670D01*
Y0036595D01*
X0042315D01*
X0059445Y0015725D02*
X0060595D01*
Y0015080D01*
X0059445D01*
Y0015725D01*
X0028165Y0022215D02*
Y0023365D01*
X0028810D01*
Y0022215D01*
X0028165D01*
X0037865Y0017655D02*
X0039015D01*
Y0017010D01*
X0037865D01*
Y0017655D01*
X0026965Y0037545D02*
X0025815D01*
Y0038190D01*
X0026965D01*
Y0037545D01*
X0029955Y0041875D02*
X0028805D01*
Y0042520D01*
X0029955D01*
Y0041875D01*
X0011005Y0032125D02*
X0012155D01*
Y0031480D01*
X0011005D01*
Y0032125D01*
X0003915Y0031235D02*
X0002765D01*
Y0031880D01*
X0003915D01*
Y0031235D01*
X0038325Y0039135D02*
X0039475D01*
Y0038490D01*
X0038325D01*
Y0039135D01*
X0038915Y0032220D02*
X0038165D01*
Y0033820D01*
X0038915D01*
Y0032220D01*
X0038325Y0039865D02*
X0039475D01*
Y0039220D01*
X0038325D01*
Y0039865D01*
X0033085Y0016845D02*
X0034235D01*
Y0016200D01*
X0033085D01*
Y0016845D01*
X0059250Y0031905D02*
X0060400D01*
Y0031260D01*
X0059250D01*
Y0031905D01*
X0030495Y0037065D02*
Y0035915D01*
X0029850D01*
Y0037065D01*
X0030495D01*
X0027645Y0036695D02*
Y0035545D01*
X0027000D01*
Y0036695D01*
X0027645D01*
X0041695Y0031955D02*
X0042845D01*
Y0031310D01*
X0041695D01*
Y0031955D01*
X0011495Y0015075D02*
X0010345D01*
Y0015720D01*
X0011495D01*
Y0015075D01*
X0030445Y0028775D02*
Y0027625D01*
X0029800D01*
Y0028775D01*
X0030445D01*
X0003395Y0016025D02*
X0004545D01*
Y0015380D01*
X0003395D01*
Y0016025D01*
X0032585Y0040285D02*
X0033735D01*
Y0039640D01*
X0032585D01*
Y0040285D01*
X0027535Y0034525D02*
Y0033375D01*
X0026890D01*
Y0034525D01*
X0027535D01*
X0021125Y0038135D02*
Y0039285D01*
X0021770D01*
Y0038135D01*
X0021125D01*
X0039385Y0028405D02*
Y0027255D01*
X0038740D01*
Y0028405D01*
X0039385D01*
X0038645Y0037685D02*
Y0036535D01*
X0038000D01*
Y0037685D01*
X0038645D01*
X0032625Y0020235D02*
X0031475D01*
Y0020880D01*
X0032625D01*
Y0020235D01*
X0039115Y0020755D02*
X0037965D01*
Y0021400D01*
X0039115D01*
Y0020755D01*
X0027365Y0031135D02*
X0026215D01*
Y0031780D01*
X0027365D01*
Y0031135D01*
X0029875Y0032945D02*
Y0034095D01*
X0030520D01*
Y0032945D01*
X0029875D01*
X0023355Y0035545D02*
Y0036695D01*
X0024000D01*
Y0035545D01*
X0023355D01*
X0032375Y0017155D02*
X0031225D01*
Y0017800D01*
X0032375D01*
Y0017155D01*
X0033325Y0042535D02*
Y0043685D01*
X0033970D01*
Y0042535D01*
X0033325D01*
X0036565Y0030545D02*
Y0031695D01*
X0037210D01*
Y0030545D01*
X0036565D01*
X0043045Y0018295D02*
Y0017145D01*
X0042400D01*
Y0018295D01*
X0043045D01*
X0002075Y0023255D02*
X0000925D01*
Y0023900D01*
X0002075D01*
Y0023255D01*
G54D78*
G01X0032710Y0017060D02*
Y0018260D01*
X0035370D01*
Y0017060D01*
X0032710D01*
X0039490Y0020370D02*
Y0019170D01*
X0036830D01*
Y0020370D01*
X0039490D01*
X0028140Y0024110D02*
X0026940D01*
Y0026770D01*
X0028140D01*
Y0024110D01*
X0034810Y0028370D02*
X0036010D01*
Y0025710D01*
X0034810D01*
Y0028370D01*
X0036780Y0035120D02*
X0037980D01*
Y0032460D01*
X0036780D01*
Y0035120D01*
X0035170Y0042910D02*
Y0044110D01*
X0037830D01*
Y0042910D01*
X0035170D01*
X0032430Y0032670D02*
Y0033870D01*
X0035090D01*
Y0032670D01*
X0032430D01*
X0036560Y0038140D02*
X0037760D01*
Y0035480D01*
X0036560D01*
Y0038140D01*
X0043760Y0033580D02*
X0042560D01*
Y0036240D01*
X0043760D01*
Y0033580D01*
X0020900Y0037760D02*
X0019700D01*
Y0040420D01*
X0020900D01*
Y0037760D01*
X0031810Y0036110D02*
X0030610D01*
Y0038770D01*
X0031810D01*
Y0036110D01*
X0025590Y0037070D02*
X0026790D01*
Y0034410D01*
X0025590D01*
Y0037070D01*
X0032210Y0038250D02*
Y0039450D01*
X0034870D01*
Y0038250D01*
X0032210D01*
X0038650Y0025560D02*
X0037450D01*
Y0028220D01*
X0038650D01*
Y0025560D01*
X0045200Y0038390D02*
X0046400D01*
Y0035730D01*
X0045200D01*
Y0038390D01*
X0049050Y0038370D02*
X0050250D01*
Y0035710D01*
X0049050D01*
Y0038370D01*
X0032080Y0032580D02*
X0030880D01*
Y0035240D01*
X0032080D01*
Y0032580D01*
G54D79*
G01X0051254Y0045332D02*
X0051565D01*
X0051410Y0045177D02*
Y0045488D01*
X0052454Y0045322D02*
X0052765D01*
X0052610Y0045167D02*
Y0045478D01*
X0047710Y0037830D02*
X0047220D01*
X0047210D02*
Y0036630D01*
X0047710D01*
Y0038030D01*
X0047210D01*
Y0037830D01*
G54D40*
X0029850Y0035390D03*
X0043800Y0042210D03*
X0052690Y0046270D03*
X0025470Y0032070D03*
X0023680Y0037060D03*
X0026520Y0039750D03*
X0032970Y0020560D03*
X0031070Y0019200D03*
X0032080Y0016990D03*
X0037600Y0017330D03*
X0026410Y0040510D03*
X0026380Y0041270D03*
X0024310Y0024340D03*
X0044060Y0032160D03*
X0025270Y0021420D03*
X0026670Y0020210D03*
X0030720Y0015850D03*
X0040760Y0024040D03*
X0027910Y0036400D03*
X0033650Y0042130D03*
X0035210Y0042320D03*
X0038750Y0042590D03*
X0041300Y0031510D03*
X0035710Y0030140D03*
X0030790Y0028580D03*
X0033937Y0028627D03*
X0029210Y0024630D03*
X0033675Y0024925D03*
X0042720Y0018630D03*
X0036830Y0015940D03*
X0033440Y0015920D03*
X0040880Y0015980D03*
X0023900Y0018500D03*
X0039400Y0021190D03*
X0043850Y0025490D03*
X0037270Y0024890D03*
X0035590Y0028650D03*
X0039230Y0028720D03*
X0027710Y0031400D03*
X0027780Y0034360D03*
X0041430Y0039060D03*
X0030290Y0042090D03*
X0027990Y0039190D03*
X0041380Y0036290D03*
X0041550Y0034370D03*
X0011860Y0031220D03*
X0036990Y0044660D03*
X0036380Y0019770D03*
X0040710Y0020420D03*
X0039510Y0018640D03*
X0039030Y0018100D03*
X0029470Y0038950D03*
X0038790Y0034980D03*
X0039180Y0032600D03*
X0040380Y0027550D03*
X0035540Y0017660D03*
X0036070Y0016290D03*
X0032220Y0026310D03*
X0032830Y0016300D03*
X0031410Y0016770D03*
X0026730Y0026100D03*
X0028810Y0025720D03*
X0033930Y0026940D03*
X0029580Y0032590D03*
X0029440Y0031290D03*
X0030120Y0027420D03*
X0029150Y0028910D03*
X0036440Y0033130D03*
X0031760Y0018840D03*
X0037800Y0016360D03*
X0039191Y0015891D03*
X0042080Y0017440D03*
X0041610Y0015110D03*
X0034330Y0026440D03*
X0062495Y0022795D03*
X0028490Y0021860D03*
X0030460Y0020840D03*
X0030450Y0022010D03*
X0040500Y0025530D03*
X0040120Y0025140D03*
X0040720Y0022800D03*
X0022280Y0017940D03*
X0033650Y0043920D03*
X0033937Y0040517D03*
X0034800Y0040520D03*
X0017090Y0011360D03*
X0019943Y0011406D03*
X0017900Y0012710D03*
X0034255Y0023850D03*
X0034463Y0024603D03*
X0020943Y0011616D03*
X0022280Y0011430D03*
X0024170Y0011160D03*
X0023800Y0011760D03*
X0024950Y0012670D03*
X0030588Y0040522D03*
X0035340Y0039460D03*
X0035180Y0038850D03*
X0037483Y0030263D03*
X0037490Y0030920D03*
X0036240Y0031740D03*
X0035180Y0031800D03*
X0001220Y0022980D03*
X0043340Y0039060D03*
X0042860Y0041300D03*
X0041920Y0048020D03*
X0038540Y0043580D03*
X0041920Y0046820D03*
X0041930Y0045610D03*
X0038170Y0030190D03*
X0039774Y0032854D03*
X0040560Y0042290D03*
X0060105Y0031055D03*
X0036060Y0024890D03*
X0045820Y0023260D03*
X0021450Y0040410D03*
X0016525Y0012620D03*
X0028616Y0017736D03*
X0026260Y0012620D03*
X0033300Y0034820D03*
X0039090Y0035870D03*
X0036980Y0042730D03*
X0032390Y0011370D03*
X0033410Y0011540D03*
X0039880Y0037870D03*
X0034760Y0011150D03*
X0038620Y0038340D03*
X0039844Y0036006D03*
X0041310Y0035020D03*
X0039760Y0035500D03*
X0040490Y0029950D03*
X0039740Y0032200D03*
X0013790Y0023250D03*
X0004250Y0015120D03*
X0002610Y0031560D03*
X0015650Y0012490D03*
X0010640Y0014770D03*
X0043960Y0031640D03*
X0044104Y0028164D03*
X0045330Y0024760D03*
X0060300Y0014740D03*
X0029440Y0034630D03*
X0030550Y0035500D03*
X0026210Y0033170D03*
X0026100Y0030900D03*
X0025200Y0035460D03*
X0025280Y0033210D03*
X0027450Y0017840D03*
X0024070Y0017800D03*
X0030330Y0011310D03*
X0030880Y0030310D03*
X0032210Y0028600D03*
X0045897Y0030520D03*
X0036390Y0011990D03*
X0045940Y0010780D03*
X0024777Y0040890D03*
X0036892Y0030212D03*
X0031210Y0038890D03*
X0029460Y0040470D03*
X0030020Y0039060D03*
X0029480Y0036120D03*
X0029431Y0037779D03*
X0031650Y0040430D03*
X0029100Y0041700D03*
X0025730Y0042130D03*
X0038800Y0011330D03*
X0037100Y0012250D03*
X0029612Y0033248D03*
X0032361Y0040569D03*
X0042340Y0011170D03*
X0039443Y0011496D03*
X0046900Y0012300D03*
X0044060Y0012520D03*
X0044960Y0012580D03*
X0031710Y0011110D03*
X0038770Y0040180D03*
X0027270Y0011340D03*
X0029390Y0011300D03*
X0035230Y0010740D03*
X0033250Y0010840D03*
X0033540Y0031360D03*
X0036500Y0040450D03*
X0030020Y0037320D03*
X0040310Y0011420D03*
X0043300Y0011340D03*
X0038450Y0018020D03*
X0029450Y0036880D03*
X0039800Y0039300D03*
X0040190Y0041850D03*
X0049600Y0047440D03*
X0029030Y0016020D03*
X0026360Y0015000D03*
X0046000Y0047440D03*
X0044820D03*
X0043600Y0047400D03*
X0046590Y0027160D03*
X0037240Y0011120D03*
X0035870Y0010710D03*
X0019443Y0011126D03*
X0024180Y0013340D03*
X0037480Y0028410D03*
X0042060Y0040040D03*
X0039375Y0033445D03*
X0039660Y0037470D03*
X0048400Y0047430D03*
X0047200D03*
X0044940Y0010820D03*
X0027800Y0034950D03*
X0030600Y0023390D03*
X0046150Y0027670D03*
X0032120Y0036780D03*
X0033000Y0019890D03*
X0046650Y0028370D03*
X0039560Y0031520D03*
X0025540Y0021930D03*
X0025530Y0022590D03*
X0025940Y0032660D03*
X0038820Y0018630D03*
X0032300Y0016100D03*
X0028030Y0011300D03*
X0026360Y0011290D03*
X0039500Y0033940D03*
X0042900Y0016200D03*
X0035420Y0016070D03*
X0024380Y0032930D03*
X0039110Y0031940D03*
X0027790Y0032040D03*
X0026590Y0025490D03*
X0026760Y0022780D03*
X0031500Y0045500D03*
X0033550Y0045310D03*
X0037120Y0040390D03*
X0037540Y0040190D03*
X0034370Y0045060D03*
X0030460Y0022710D03*
X0040840Y0020910D03*
X0043870Y0020860D03*
X0032740Y0045220D03*
X0032510Y0036120D03*
X0035430Y0036570D03*
G54D41*
X0047438Y0031520D03*
X0046680Y0036400D03*
X0050230Y0031440D03*
X0046010Y0034840D03*
X0044380Y0032810D03*
X0048220Y0036280D03*
X0049470Y0035050D03*
X0043160Y0036350D03*
X0048470Y0031300D03*
X0052550Y0012410D03*
X0047410Y0013090D03*
X0049062Y0017702D03*
X0049910Y0011350D03*
X0046890Y0011480D03*
X0052860Y0039710D03*
X0019070Y0037400D03*
X0044160Y0033670D03*
X0044030Y0034660D03*
X0049920Y0013580D03*
X0050420Y0035050D03*
X0050690Y0036380D03*
G54D50*
X0017910Y0011060D03*
X0030390Y0026050D03*
G54D56*
X0023970Y0033320D03*
X0030890Y0045420D03*
X0033350Y0044840D03*
X0031970Y0045050D03*
X0038080Y0040120D03*
X0037160Y0038790D03*
X0026280Y0016340D03*
X0031280Y0021460D03*
X0039940Y0013170D03*
X0039150Y0012480D03*
X0030260Y0045560D03*
X0023510Y0033700D03*
X0023080Y0035740D03*
X0031340Y0031230D03*
X0037290Y0023000D03*
X0034420Y0034210D03*
X0035920Y0036150D03*
X0032290Y0045590D03*
X0028940Y0021550D03*
X0027100Y0023370D03*
X0023390Y0017340D03*
X0033370Y0020980D03*
X0039500Y0026310D03*
X0039696Y0039946D03*
X0034790Y0016220D03*
X0035370Y0023650D03*
X0035000Y0031200D03*
X0027990Y0030320D03*
X0026090D03*
X0036350Y0011210D03*
X0034090Y0015940D03*
X0027950Y0012460D03*
X0031000Y0030830D03*
X0037650Y0022620D03*
X0034020Y0045660D03*
X0036660Y0014170D03*
X0033060Y0013130D03*
X0039810Y0036920D03*
X0022950Y0012630D03*
X0033470Y0026320D03*
X0039180Y0024510D03*
X0023580Y0035360D03*
X0033810Y0011120D03*
X0032970Y0031340D03*
X0035760Y0024000D03*
X0038800Y0016270D03*
X0044443Y0017140D03*
X0031030Y0012120D03*
X0031070Y0011280D03*
X0028740Y0011040D03*
X0037310Y0022230D03*
X0030340Y0030180D03*
X0037130Y0021660D03*
X0030800Y0028010D03*
X0031860Y0031610D03*
X0037780Y0023320D03*
X0039272Y0017342D03*
X0032310Y0030990D03*
X0036140Y0023630D03*
X0026360Y0019620D03*
X0030600Y0019570D03*
X0034950Y0023990D03*
X0034670Y0030650D03*
X0040733Y0022267D03*
X0038550Y0012170D03*
X0026580Y0013280D03*
X0026360Y0021940D03*
X0025950Y0023130D03*
X0031500Y0016100D03*
X0037180Y0023620D03*
X0032460Y0031800D03*
X0034020Y0030330D03*
X0038930Y0024930D03*
X0025070Y0024820D03*
X0029160Y0024100D03*
X0038540Y0031780D03*
X0030670Y0017480D03*
X0028870Y0020900D03*
X0027040Y0021710D03*
X0026300Y0023600D03*
X0029400Y0011950D03*
X0029820Y0031890D03*
X0030530Y0023970D03*
X0043900Y0018130D03*
X0049390Y0025860D03*
X0043920Y0016530D03*
X0041430Y0013670D03*
X0024320Y0035290D03*
X0053390Y0038900D03*
X0048500Y0028790D03*
G54D58*
X0044390Y0036370D03*
X0045890Y0015790D03*
X0047420Y0017270D03*
M02*
