%
T1C0.0160F200S100
X001220Y022980
X002610Y031560
X004250Y015120
X010640Y014770
X011860Y031220
X013790Y023250
X015650Y012490
X016525Y012620
X017090Y011360
X017900Y012710
X017910Y011060
X019443Y011126
X019943Y011406
X020943Y011616
X021450Y040410
X022280Y011430
X022280Y017940
X022950Y012630
X023080Y035740
X023390Y017340
X023510Y033700
X023580Y035360
X023680Y037060
X023800Y011760
X023900Y018500
X023970Y033320
X024070Y017800
X024170Y011160
X024180Y013340
X024310Y024340
X024320Y035290
X024380Y032930
X024777Y040890
X024950Y012670
X025070Y024820
X025200Y035460
X025270Y021420
X025280Y033210
X025470Y032070
X025530Y022590
X025540Y021930
X025730Y042130
X025940Y032660
X025950Y023130
X026090Y030320
X026100Y030900
X026210Y033170
X026260Y012620
X026280Y016340
X026300Y023600
X026360Y011290
X026360Y015000
X026360Y019620
X026360Y021940
X026380Y041270
X026410Y040510
X026520Y039750
X026580Y013280
X026590Y025490
X026670Y020210
X026730Y026100
X026760Y022780
X027040Y021710
X027100Y023370
X027270Y011340
X027450Y017840
X027710Y031400
X027780Y034360
X027790Y032040
X027800Y034950
X027910Y036400
X027950Y012460
X027990Y030320
X027990Y039190
X028030Y011300
X028490Y021860
X028616Y017736
X028740Y011040
X028810Y025720
X028870Y020900
X028940Y021550
X029030Y016020
X029100Y041700
X029150Y028910
X029160Y024100
X029210Y024630
X029390Y011300
X029400Y011950
X029431Y037779
X029440Y031290
X029440Y034630
X029450Y036880
X029460Y040470
X029470Y038950
X029480Y036120
X029580Y032590
X029612Y033248
X029820Y031890
X029850Y035390
X030020Y037320
X030020Y039060
X030120Y027420
X030260Y045560
X030290Y042090
X030330Y011310
X030340Y030180
X030390Y026050
X030450Y022010
X030460Y020840
X030460Y022710
X030530Y023970
X030550Y035500
X030588Y040522
X030600Y019570
X030600Y023390
X030670Y017480
X030720Y015850
X030790Y028580
X030800Y028010
X030880Y030310
X030890Y045420
X031000Y030830
X031030Y012120
X031070Y011280
X031070Y019200
X031210Y038890
X031280Y021460
X031340Y031230
X031410Y016770
X031500Y016100
X031500Y045500
X031650Y040430
X031710Y011110
X031760Y018840
X031860Y031610
X031970Y045050
X032080Y016990
X032120Y036780
X032210Y028600
X032220Y026310
X032290Y045590
X032300Y016100
X032310Y030990
X032361Y040569
X032390Y011370
X032460Y031800
X032510Y036120
X032740Y045220
X032830Y016300
X032970Y020560
X033000Y019890
X032970Y031340
X033060Y013130
X033250Y010840
X033300Y034820
X033350Y044840
X033370Y020980
X033410Y011540
X033440Y015920
X033470Y026320
X033540Y031360
X033550Y045310
X033650Y042130
X033650Y043920
X033675Y024925
X033810Y011120
X033930Y026940
X033937Y028627
X034020Y030330
X033937Y040517
X034020Y045660
X034090Y015940
X034255Y023850
X034330Y026440
X034370Y045060
X034420Y034210
X034463Y024603
X034670Y030650
X034760Y011150
X034790Y016220
X034800Y040520
X034950Y023990
X035000Y031200
X035180Y031800
X035180Y038850
X035210Y042320
X035230Y010740
X035340Y039460
X035370Y023650
X035420Y016070
X035430Y036570
X035540Y017660
X035590Y028650
X035710Y030140
X035760Y024000
X035870Y010710
X035920Y036150
X036060Y024890
X036070Y016290
X036140Y023630
X036240Y031740
X036350Y011210
X036380Y019770
X036390Y011990
X036440Y033130
X036500Y040450
X036660Y014170
X036830Y015940
X036892Y030212
X036980Y042730
X036990Y044660
X037100Y012250
X037120Y040390
X037130Y021660
X037160Y038790
X037180Y023620
X037240Y011120
X037270Y024890
X037290Y023000
X037310Y022230
X037480Y028410
X037483Y030263
X037490Y030920
X037540Y040190
X037600Y017330
X037650Y022620
X037780Y023320
X037800Y016360
X038080Y040120
X038170Y030190
X038450Y018020
X038540Y031780
X038540Y043580
X038550Y012170
X038620Y038340
X038750Y042590
X038770Y040180
X038790Y034980
X038800Y011330
X038800Y016270
X038820Y018630
X038930Y024930
X039030Y018100
X039090Y035870
X039110Y031940
X039150Y012480
X039180Y024510
X039180Y032600
X039191Y015891
X039230Y028720
X039272Y017342
X039375Y033445
X039400Y021190
X039443Y011496
X039500Y026310
X039500Y033940
X039510Y018640
X039560Y031520
X039660Y037470
X039696Y039946
X039740Y032200
X039760Y035500
X039774Y032854
X039800Y039300
X039810Y036920
X039844Y036006
X039880Y037870
X039940Y013170
X040120Y025140
X040190Y041850
X040310Y011420
X040380Y027550
X040490Y029950
X040500Y025530
X040560Y042290
X040710Y020420
X040720Y022800
X040733Y022267
X040760Y024040
X040840Y020910
X040880Y015980
X041300Y031510
X041310Y035020
X041380Y036290
X041430Y013670
X041550Y034370
X041430Y039060
X041610Y015110
X041920Y046820
X041920Y048020
X041930Y045610
X042060Y040040
X042080Y017440
X042340Y011170
X042720Y018630
X042860Y041300
X042900Y016200
X043300Y011340
X043340Y039060
X043600Y047400
X043800Y042210
X043850Y025490
X043870Y020860
X043900Y018130
X043920Y016530
X043960Y031640
X044060Y012520
X044104Y028164
X044060Y032160
X044443Y017140
X044820Y047440
X044940Y010820
X044960Y012580
X045330Y024760
X045820Y023260
X045897Y030520
X045940Y010780
X046000Y047440
X046150Y027670
X046590Y027160
X046650Y028370
X046900Y012300
X047200Y047430
X048400Y047430
X048500Y028790
X049390Y025860
X049600Y047440
X052690Y046270
X053390Y038900
X060105Y031055
X060300Y014740
X062495Y022795
T5C0.0350F200S100
X019070Y037400
X043160Y036350
X044030Y034660
X044160Y033670
X044380Y032810
X044390Y036370
X045890Y015790
X046010Y034840
X046680Y036400
X046890Y011480
X047410Y013090
X047420Y017270
X047438Y031520
X048220Y036280
X048470Y031300
X049062Y017702
X049470Y035050
X049910Y011350
X049920Y013580
X050230Y031440
X050420Y035050
X050690Y036380
X052550Y012410
X052860Y039710
T4C0.0340F200S100
X001780Y024930
X001780Y025930
X001780Y026930
X001780Y027930
X001780Y028930
X001780Y029930
X001780Y030930
X001780Y031930
X001780Y032930
X003600Y032930
X003600Y033930
X003600Y034930
X003600Y035930
X003600Y036930
X003600Y037930
X003600Y038930
X003600Y039930
X003600Y040930
X003690Y016930
X003690Y017930
X003690Y018930
X003690Y019930
X003690Y020930
X003690Y021930
X003690Y022930
X003690Y023930
X003690Y024930
X011200Y016900
X011200Y017900
X011200Y018900
X011200Y019900
X011200Y020900
X011200Y021900
X011200Y022900
X011200Y023900
X011200Y024900
X011310Y032900
X011310Y033900
X011310Y034900
X011310Y035900
X011310Y036900
X011310Y037900
X011310Y038900
X011310Y039900
X011310Y040900
X013300Y024900
X013300Y025900
X013300Y026900
X013300Y027900
X013300Y028900
X013300Y029900
X013300Y030900
X013300Y031900
X013300Y032900
X059740Y016750
X059740Y017750
X059740Y018750
X059740Y019750
X059740Y020750
X059740Y021750
X059740Y022750
X059740Y023750
X059740Y024750
X061940Y024750
X061940Y025750
X061940Y026750
X061940Y027750
X061940Y028750
X061940Y029750
X061940Y030750
X061940Y031750
X061940Y032750
X059740Y032750
X059740Y033750
X059740Y034750
X059740Y035750
X059740Y036750
X059740Y037750
X059740Y038750
X059740Y039750
X059740Y040750
T6C0.0360F200S100
X005100Y044800
X006100Y044800
X007100Y044800
X015900Y044600
X016900Y044600
X017900Y044600
X021740Y014500
X021740Y015500
X021740Y016500
X044770Y021200
X044770Y022200
X044770Y023200
X056570Y045140
X057570Y045140
X058570Y045140
T7C0.0370F200S100
X006340Y017930
X006340Y018930
X006340Y019930
X006340Y020930
X006340Y021930
X006340Y022930
X006340Y023930
X006340Y024930
X006340Y025930
X006340Y026930
X006340Y027930
X006340Y028930
X006340Y029930
X006340Y030930
X006340Y031930
X006340Y032930
X006340Y033930
X006340Y034930
X006340Y035930
X006340Y036930
X006340Y037930
X006340Y038930
X006340Y039930
X006340Y040930
X006340Y041930
X007340Y017930
X007340Y018930
X007340Y019930
X007340Y020930
X007340Y021930
X007340Y022930
X007340Y023930
X007340Y024930
X007340Y025930
X007340Y026930
X007340Y027930
X007340Y028930
X007340Y029930
X007340Y030930
X007340Y031930
X007340Y032930
X007340Y033930
X007340Y034930
X007340Y035930
X007340Y036930
X007340Y037930
X007340Y038930
X007340Y039930
X007340Y040930
X007340Y041930
X015920Y017900
X015920Y018900
X015920Y019900
X015920Y020900
X015920Y021900
X015920Y022900
X015920Y023900
X015920Y024900
X015920Y025900
X015920Y026900
X015920Y027900
X015920Y028900
X015920Y029900
X015920Y030900
X015920Y031900
X015920Y032900
X015920Y033900
X015920Y034900
X015920Y035900
X015920Y036900
X015920Y037900
X015920Y038900
X015920Y039900
X015920Y040900
X015920Y041900
X016920Y017900
X016920Y018900
X016920Y019900
X016920Y020900
X016920Y021900
X016920Y022900
X016920Y023900
X016920Y024900
X016920Y025900
X016920Y026900
X016920Y027900
X016920Y028900
X016920Y029900
X016920Y030900
X016920Y031900
X016920Y032900
X016920Y033900
X016920Y034900
X016920Y035900
X016920Y036900
X016920Y037900
X016920Y038900
X016920Y039900
X016920Y040900
X016920Y041900
X055340Y017750
X055340Y018750
X055340Y019750
X055340Y020750
X055340Y021750
X055340Y022750
X055340Y023750
X055340Y024750
X055340Y025750
X055340Y026750
X055340Y027750
X055340Y028750
X055340Y029750
X055340Y030750
X055340Y031750
X055340Y032750
X055340Y033750
X055340Y034750
X055340Y035750
X055340Y036750
X055340Y037750
X055340Y038750
X055340Y039750
X055340Y040750
X055340Y041750
X056340Y017750
X056340Y018750
X056340Y019750
X056340Y020750
X056340Y021750
X056340Y022750
X056340Y023750
X056340Y024750
X056340Y025750
X056340Y026750
X056340Y027750
X056340Y028750
X056340Y029750
X056340Y030750
X056340Y031750
X056340Y032750
X056340Y033750
X056340Y034750
X056340Y035750
X056340Y036750
X056340Y037750
X056340Y038750
X056340Y039750
X056340Y040750
X056340Y041750
T3C0.0310F200S100
X040030Y045610
X041030Y045610
X041030Y046820
X040030Y046820
X040030Y048020
X041030Y048020
T2C0.0280F200S100
X046847Y030300
X047438Y030300
X048028Y030300
X048619Y030300
X049209Y030300
X049800Y030300
M30
