*
G04 Mass Parameters ***
*
G04 Image ***
*
%INE:\MUSHTAQ PCB\SAJJAD HUSSAIN\PROGRAMMABLE GPIO72 CARD\PROGRAMMABLE_GPIO72_CARD_REV2 11-09-2012\PROGRAMMABLE_GPIO72_CARD-9.TOP*%
%ICAS*%
%MOIN*%
%IPPOS*%
%ASAXBY*%
G74*%FSLAN2X34Y34*%
*
G04 Aperture Definitions ***
*
%ADD10R,0.0800X0.0800*%
%ADD11R,0.0320X0.0380*%
%ADD12R,0.0380X0.0320*%
%ADD13R,0.0500X0.0500*%
%ADD14C,0.0580*%
%ADD15R,0.0580X0.0580*%
%ADD16C,0.0600*%
%ADD17R,0.0600X0.0600*%
%ADD18C,0.0300*%
%ADD19R,0.0300X0.0300*%
%ADD20R,0.0590X0.0161*%
%ADD21O,0.0900X0.0160*%
%ADD22R,0.0900X0.0160*%
%ADD23R,0.1968X0.4724*%
%ADD24R,0.0880X0.0480*%
%ADD25O,0.0700X0.0110*%
%ADD26R,0.0700X0.0110*%
%ADD27O,0.0110X0.0700*%
%ADD28R,0.0110X0.0700*%
%ADD29O,0.0315X0.2559*%
%ADD30O,0.0250X0.0860*%
%ADD31R,0.0250X0.0860*%
%ADD32C,0.0080*%
%ADD33C,0.0100*%
%ADD34C,0.0300*%
%ADD35C,0.0160*%
%ADD36C,0.0450*%
%ADD37C,0.0250*%
%ADD38C,0.0200*%
%ADD39C,0.0120*%
%ADD40C,0.0300*%
%ADD41C,0.0450*%
*
G04 Plot Data ***
*
G54D32*
G01X0047386Y0034903D02*
X0047290D01*
Y0033624D01*
X0048250D01*
Y0034903D01*
X0047386D01*
G54D33*
G01X0028703Y0035612D02*
X0029628D01*
X0029850Y0035390D01*
X0025650Y0018260D02*
Y0018810D01*
X0025600Y0018860D01*
X0025150D01*
Y0018260D01*
X0040550Y0038961D02*
X0041259D01*
X0041258Y0038960D01*
X0041330D01*
X0041430Y0039060D01*
X0026150Y0018260D02*
Y0018690D01*
X0025970Y0018870D01*
X0025590D01*
X0025650Y0018810D01*
Y0018260D01*
Y0018850D01*
X0025640Y0018860D01*
X0025600D01*
X0025650Y0018810D01*
Y0018260D01*
X0033675Y0024925D02*
Y0025531D01*
X0052690Y0046270D02*
X0053200D01*
X0052690D02*
X0053200D01*
X0040760Y0024040D02*
X0040091D01*
X0039059Y0029393D02*
Y0028891D01*
X0039230Y0028720D01*
X0041300Y0031510D02*
X0041138Y0031672D01*
X0040550D01*
X0047438Y0030300D02*
Y0031520D01*
X0026390Y0041280D02*
X0027040D01*
X0025480Y0031550D02*
Y0032080D01*
X0025470Y0032070D01*
X0027080Y0040520D02*
X0026420D01*
X0026520Y0039750D02*
X0027150D01*
X0026520D01*
X0029820Y0018918D02*
X0030788D01*
X0031070Y0019200D01*
X0027040Y0041280D02*
X0026390D01*
X0029820Y0018918D02*
X0030788D01*
X0031070Y0019200D01*
X0030720Y0015260D02*
Y0015850D01*
X0040880Y0015980D02*
Y0016040D01*
X0040760Y0016160D01*
X0040091D01*
X0030290Y0042090D02*
X0030194Y0041994D01*
Y0041240D01*
X0027080Y0040520D02*
X0026420D01*
X0026390Y0041280D02*
X0027040D01*
X0024310Y0023760D02*
Y0024340D01*
Y0023760D01*
X0040091Y0024040D02*
X0040760D01*
X0035710Y0029393D02*
Y0028770D01*
X0035590Y0028650D01*
X0041300Y0031510D02*
X0041138Y0031672D01*
X0040550D01*
X0039059Y0029393D02*
Y0028891D01*
X0039230Y0028720D01*
X0040760Y0024040D02*
X0040091D01*
X0035710Y0029393D02*
Y0028770D01*
X0035590Y0028650D01*
X0033937Y0028627D02*
Y0029393D01*
Y0028627D01*
X0030790Y0028580D02*
X0030588Y0028782D01*
Y0029393D01*
X0026670Y0020210D02*
Y0019940D01*
X0026900Y0019710D01*
X0027110D01*
X0040091Y0016160D02*
X0040760D01*
X0040880Y0016040D01*
Y0015980D01*
X0027110Y0019710D02*
X0026900D01*
X0026670Y0019940D01*
Y0020210D01*
X0025640Y0018860D02*
X0025650Y0018850D01*
Y0018260D01*
X0040550Y0034233D02*
X0041273D01*
X0041410Y0034370D01*
X0041550D01*
X0030720Y0015260D02*
Y0015850D01*
X0040091Y0024040D02*
X0040760D01*
X0044830Y0025860D02*
X0044080D01*
Y0026116D01*
X0044830D01*
X0027910Y0036400D02*
X0028703D01*
X0033543Y0041240D02*
Y0042023D01*
X0033650Y0042130D01*
X0035316Y0041240D02*
Y0042214D01*
X0035210Y0042320D01*
X0038750Y0042590D02*
X0038665Y0042505D01*
Y0041240D01*
X0040550Y0031672D02*
X0041138D01*
X0041300Y0031510D01*
X0035710Y0030140D02*
Y0029393D01*
X0030588D02*
Y0028782D01*
X0030790Y0028580D01*
X0033937Y0029393D02*
Y0028627D01*
X0044830Y0026116D02*
X0044080D01*
Y0026300D01*
X0044152Y0026372D01*
X0044830D01*
X0029210Y0024630D02*
X0029819D01*
X0029820Y0024631D01*
X0033675Y0025531D02*
Y0024925D01*
X0028040Y0018700D02*
X0028570D01*
X0028790Y0018920D01*
X0029818D01*
X0029820Y0018918D01*
X0042720Y0018630D02*
X0042417Y0018327D01*
X0040091D01*
X0025650Y0018260D02*
Y0018810D01*
X0025600Y0018860D01*
X0025160D01*
Y0018270D01*
X0025150Y0018260D01*
X0036827Y0015260D02*
X0036830Y0015263D01*
Y0015940D01*
X0033440Y0015920D02*
X0033281Y0015761D01*
Y0015260D01*
X0040091Y0016160D02*
X0040760D01*
X0040880Y0016040D01*
Y0015980D01*
X0026150Y0018260D02*
Y0018690D01*
X0025970Y0018870D01*
X0025150D01*
Y0018260D01*
X0023900Y0018500D02*
Y0018670D01*
X0024090Y0018860D01*
X0025150D01*
Y0018260D01*
X0039400Y0021190D02*
X0039450D01*
X0039555Y0021085D01*
X0040091D01*
X0044830Y0025860D02*
X0043930D01*
X0043850Y0025780D01*
Y0025490D01*
X0037024Y0025531D02*
Y0025046D01*
X0037180Y0024890D01*
X0037270D01*
X0035710Y0029393D02*
Y0028770D01*
X0035590Y0028650D01*
X0039059Y0029393D02*
Y0028891D01*
X0039230Y0028720D01*
X0027710Y0031400D02*
Y0031440D01*
X0027745Y0031475D01*
X0028703D01*
X0027780Y0034360D02*
X0028000D01*
X0028127Y0034233D01*
X0028703D01*
X0040550Y0038961D02*
X0040551Y0038960D01*
X0039692D01*
X0039290Y0038560D01*
Y0036750D01*
X0039640Y0036400D01*
X0040550D01*
Y0038961D02*
X0040551Y0038960D01*
X0041330D01*
X0041430Y0039060D01*
X0030290Y0042090D02*
X0030194Y0041994D01*
Y0041240D01*
X0027990Y0039190D02*
Y0039170D01*
X0028199Y0038961D01*
X0028703D01*
X0041380Y0036290D02*
X0041370Y0036300D01*
X0041280D01*
X0041180Y0036400D01*
X0040550D01*
X0041550Y0034370D02*
X0041410D01*
X0041273Y0034233D01*
X0040550D01*
Y0034627D02*
X0040003D01*
X0039760Y0034870D01*
Y0035500D01*
X0038540Y0043580D02*
X0038271Y0043311D01*
Y0041240D01*
X0040091Y0024631D02*
X0039799D01*
X0039660Y0024770D01*
Y0024990D01*
X0039810Y0025140D01*
X0040120D01*
X0040720Y0022800D02*
X0040581Y0022661D01*
X0040091D01*
Y0018524D02*
X0039626D01*
X0039510Y0018640D01*
X0040710Y0020420D02*
X0040587Y0020297D01*
X0040091D01*
Y0017933D02*
X0039197D01*
X0039030Y0018100D01*
X0039510Y0018640D02*
X0039626Y0018524D01*
X0040091D01*
X0030982Y0029393D02*
Y0030208D01*
X0030880Y0030310D01*
X0029150Y0028910D02*
Y0028920D01*
X0029160Y0028910D01*
X0029470D01*
X0029603Y0029043D01*
Y0029393D01*
X0037089Y0041240D02*
Y0042221D01*
X0036980Y0042330D01*
Y0042750D01*
X0038540Y0043580D02*
X0038271Y0043311D01*
Y0041240D01*
X0040091Y0017933D02*
X0039197D01*
X0039030Y0018100D01*
X0032830Y0016300D02*
X0033084Y0016046D01*
Y0015260D01*
X0028703Y0039158D02*
X0029262D01*
X0029470Y0038950D01*
X0030588Y0041240D02*
Y0040522D01*
X0029460Y0040470D02*
X0029330Y0040340D01*
X0028703D01*
X0029480Y0036120D02*
X0029240D01*
X0029126Y0036006D01*
X0028703D01*
Y0039158D02*
X0029262D01*
X0029470Y0038950D01*
X0029431Y0037779D02*
X0028703D01*
X0032690Y0025531D02*
Y0026020D01*
X0032400Y0026310D01*
X0032220D01*
X0039774Y0032854D02*
X0040550D01*
X0039774D02*
X0040550D01*
X0036630Y0015260D02*
Y0015740D01*
X0036080Y0016290D01*
X0036070D01*
X0036080D01*
X0036630Y0015740D01*
Y0015260D01*
X0032690Y0025531D02*
Y0026020D01*
X0032400Y0026310D01*
X0032220D01*
X0033084Y0015260D02*
Y0016046D01*
X0032830Y0016300D01*
X0029580Y0032658D02*
X0029384Y0032854D01*
X0028703D01*
Y0031278D02*
X0029372D01*
X0029384Y0031290D01*
X0029580Y0032658D02*
X0029384Y0032854D01*
X0028703D01*
Y0031278D02*
X0029372D01*
X0029384Y0031290D01*
X0030880Y0030310D02*
X0030982Y0030208D01*
Y0029393D01*
X0029150Y0028910D02*
Y0028920D01*
X0029160Y0028910D01*
X0029470D01*
X0029603Y0029043D01*
Y0029393D01*
X0035212Y0031800D02*
X0035316Y0031696D01*
Y0029393D01*
X0039191Y0015260D02*
Y0015891D01*
X0029820Y0017736D02*
X0028616D01*
X0029820Y0018721D02*
X0031641D01*
X0031760Y0018840D01*
X0030460Y0020840D02*
Y0020990D01*
X0030365Y0021085D01*
X0029820D01*
X0039191Y0015891D02*
Y0015260D01*
X0029820Y0022070D02*
X0030400D01*
X0030450Y0022020D01*
Y0022010D01*
X0029820Y0021085D02*
X0030365D01*
X0030460Y0020990D01*
Y0020840D01*
X0030450Y0022010D02*
Y0022020D01*
X0030400Y0022070D01*
X0029820D01*
X0040120Y0025140D02*
X0039810D01*
X0039660Y0024990D01*
Y0024770D01*
X0039799Y0024631D01*
X0040091D01*
Y0020297D02*
X0040587D01*
X0040740Y0020450D01*
X0040720Y0022800D02*
X0040581Y0022661D01*
X0040091D01*
X0029820Y0017736D02*
X0028616D01*
X0027450Y0017840D02*
Y0018040D01*
X0027550Y0018140D01*
X0028040D01*
X0024070Y0017800D02*
X0024240Y0017630D01*
X0024530D01*
X0024650Y0017750D01*
Y0018260D01*
X0033937Y0041240D02*
Y0040517D01*
Y0041240D01*
Y0040517D01*
X0034800Y0040520D02*
X0034922Y0040642D01*
Y0041240D01*
X0019943Y0009054D02*
Y0011406D01*
X0016943Y0009054D02*
Y0011213D01*
X0017090Y0011360D01*
X0020943Y0009054D02*
Y0011616D01*
X0019943Y0011406D02*
Y0009054D01*
X0034463Y0024603D02*
Y0025531D01*
X0020943Y0009054D02*
Y0011616D01*
X0022280Y0011430D02*
X0022550D01*
X0022943Y0011036D01*
Y0009054D01*
Y0011036D01*
X0022550Y0011430D01*
X0022280D01*
X0023800Y0011760D02*
Y0010790D01*
X0023943Y0010646D01*
Y0009054D01*
X0023800Y0011760D02*
Y0010790D01*
X0023943Y0010646D01*
Y0009054D01*
Y0010646D01*
X0023800Y0010790D01*
Y0011760D01*
X0024950Y0012670D02*
Y0012010D01*
Y0012670D01*
X0026260Y0012620D02*
X0026270D01*
X0026640Y0012250D01*
Y0010710D01*
X0026443Y0010513D01*
Y0009054D01*
X0029390Y0011299D02*
X0029443Y0011248D01*
Y0009054D01*
X0026443D02*
Y0010513D01*
X0026640Y0010710D01*
Y0012250D01*
X0026270Y0012620D01*
X0026260D01*
X0030588Y0041240D02*
Y0040522D01*
X0031650Y0040430D02*
X0031770Y0040550D01*
Y0041240D01*
X0038665Y0029393D02*
Y0029935D01*
X0038410Y0030190D01*
X0038170D01*
X0037483Y0030263D02*
Y0029393D01*
Y0030263D01*
X0028703Y0034627D02*
X0029437D01*
X0029440Y0034630D01*
X0035212Y0031800D02*
X0035316Y0031696D01*
Y0029393D01*
X0041930Y0045610D02*
X0041030D01*
Y0048020D02*
X0041920D01*
Y0046820D02*
X0041030D01*
X0038271Y0041240D02*
Y0043311D01*
X0038540Y0043580D01*
X0040190Y0041850D02*
X0039880D01*
X0039650Y0041620D01*
Y0041240D01*
X0041030Y0046820D02*
X0041920D01*
X0041930Y0045610D02*
X0041030D01*
X0038665Y0029393D02*
Y0029935D01*
X0038410Y0030190D01*
X0038170D01*
X0040490Y0029950D02*
X0040170D01*
X0040090Y0030030D01*
Y0030250D01*
X0040133Y0030293D01*
X0040550D01*
Y0032854D02*
X0039774D01*
X0039740Y0032200D02*
Y0031880D01*
X0040145Y0031475D01*
X0040550D01*
Y0037779D02*
X0039971D01*
X0039880Y0037870D01*
X0039800Y0039300D02*
X0039942Y0039158D01*
X0040550D01*
X0040190Y0041850D02*
X0039880D01*
X0039650Y0041620D01*
Y0041240D01*
X0036060Y0024890D02*
X0036350D01*
X0036433Y0024973D01*
Y0025531D01*
X0044104Y0028164D02*
X0044830D01*
X0044770Y0023200D02*
X0044830Y0023260D01*
X0045820D01*
X0015650Y0012490D02*
Y0011920D01*
X0029820Y0017736D02*
X0028616D01*
X0029030Y0016020D02*
X0029170Y0016160D01*
X0029820D01*
X0026443Y0009054D02*
Y0010513D01*
X0026640Y0010710D01*
Y0012250D01*
X0026270Y0012620D01*
X0026260D01*
X0029820Y0018130D02*
X0030320D01*
Y0018327D01*
X0029820D01*
X0030320D01*
Y0018524D01*
X0029820D01*
X0030320D01*
Y0018721D01*
X0029820D01*
X0034331Y0029393D02*
Y0030001D01*
X0034500Y0030170D01*
X0035316D01*
Y0029393D01*
X0030720Y0025531D02*
Y0025980D01*
X0030600Y0026100D01*
X0030440D01*
X0030390Y0026050D01*
X0036827Y0025531D02*
Y0025127D01*
X0036760Y0025060D01*
X0036463D01*
X0036433Y0025030D01*
Y0025531D01*
X0034660D02*
Y0025090D01*
X0034620Y0025050D01*
X0034503D01*
X0034463Y0025090D01*
Y0025531D01*
X0037089Y0041240D02*
Y0042221D01*
X0036980Y0042330D01*
Y0042730D01*
X0032443Y0009054D02*
Y0011280D01*
X0032360Y0011363D01*
Y0011370D01*
X0040550Y0037779D02*
X0039971D01*
X0039880Y0037870D01*
X0034760Y0011150D02*
Y0011140D01*
X0034443Y0010823D01*
Y0009054D01*
X0034760Y0011150D02*
Y0011140D01*
X0034443Y0010823D01*
Y0009054D01*
X0040550Y0036006D02*
X0039844D01*
X0039760Y0035500D02*
Y0034870D01*
X0040003Y0034627D01*
X0040550D01*
X0039760Y0035500D02*
Y0034870D01*
X0040003Y0034627D01*
X0040550D01*
Y0030293D02*
X0040133D01*
X0040090Y0030250D01*
Y0030030D01*
X0040170Y0029950D01*
X0040490D01*
X0039740Y0032200D02*
Y0031880D01*
X0040145Y0031475D01*
X0040550D01*
X0015650Y0011920D02*
Y0012490D01*
X0044400Y0032810D02*
X0044410Y0032820D01*
X0044400Y0032810D02*
X0044410Y0032820D01*
X0044830Y0028164D02*
X0044104D01*
X0028703Y0034627D02*
X0029437D01*
X0029440Y0034630D01*
X0027180Y0033170D02*
X0026210D01*
X0028703Y0036006D02*
X0029126D01*
X0029240Y0036120D01*
X0029480D01*
X0027180Y0033170D02*
X0026210D01*
X0028040Y0018140D02*
X0027550D01*
X0027450Y0018040D01*
Y0017840D01*
X0024070Y0017800D02*
X0024240Y0017630D01*
X0024530D01*
X0024650Y0017750D01*
Y0018260D01*
X0032443Y0009054D02*
Y0011280D01*
X0032360Y0011363D01*
Y0011370D01*
X0030982Y0029393D02*
Y0030208D01*
X0030880Y0030310D01*
X0032249Y0028561D02*
X0032250Y0028562D01*
Y0028570D01*
X0032164Y0028656D01*
Y0029393D01*
X0038800Y0011330D02*
X0038790Y0011340D01*
X0038560D01*
X0038443Y0011223D01*
Y0009054D01*
X0045943D02*
X0045930Y0009068D01*
Y0010770D02*
X0045940Y0010780D01*
X0028703Y0040340D02*
X0029330D01*
X0029460Y0040470D01*
X0036498Y0041240D02*
Y0040452D01*
X0036500Y0040450D01*
X0033540Y0031360D02*
X0032755Y0030575D01*
Y0029393D01*
X0036892Y0030212D02*
Y0029393D01*
X0028703Y0040340D02*
X0029330D01*
X0029460Y0040470D01*
X0028703Y0036006D02*
X0029126D01*
X0029240Y0036120D01*
X0029480D01*
X0029431Y0037779D02*
X0028703D01*
X0031770Y0041240D02*
Y0040550D01*
X0031650Y0040430D01*
X0038443Y0009054D02*
Y0011223D01*
X0038560Y0011340D01*
X0038790D01*
X0038800Y0011330D01*
X0047420Y0013070D02*
X0047430Y0013060D01*
Y0013000D01*
X0047400D01*
X0047390Y0013010D01*
Y0013070D01*
X0047410Y0013090D01*
X0029612Y0033248D02*
X0028703D01*
X0039375Y0033445D02*
X0040550D01*
X0030020Y0037320D02*
X0029420D01*
X0029288Y0037188D01*
X0028703D01*
X0045950Y0011960D02*
X0046560D01*
X0046900Y0012300D01*
X0047410Y0013090D02*
X0047390Y0013070D01*
Y0013010D01*
X0047400Y0013000D01*
X0047430D01*
Y0013060D01*
X0047420Y0013070D01*
X0047430Y0013060D01*
Y0013000D01*
X0047400D01*
X0047390Y0013010D01*
Y0013070D01*
X0047410Y0013090D01*
X0042443Y0009054D02*
Y0010666D01*
X0042320Y0010790D01*
Y0011190D01*
X0042330Y0011200D01*
Y0011160D01*
X0036943Y0009054D02*
Y0010913D01*
X0037150Y0011120D01*
X0037240D01*
X0045943Y0009054D02*
Y0010613D01*
X0045950Y0010620D01*
X0039660Y0037470D02*
X0039745Y0037385D01*
X0040550D01*
X0032361Y0041240D02*
Y0040569D01*
X0043943Y0009054D02*
Y0012146D01*
X0044070Y0012273D01*
Y0012490D01*
X0044060Y0012500D01*
Y0012520D01*
X0017940Y0009058D02*
X0017943Y0009054D01*
X0040310Y0011420D02*
X0040150D01*
X0039943Y0011213D01*
Y0009054D01*
X0044960Y0011970D02*
Y0012580D01*
X0046900Y0012300D02*
X0046560Y0011960D01*
X0045950D01*
X0043943Y0009054D02*
Y0012146D01*
X0044070Y0012273D01*
Y0012490D01*
X0044060Y0012500D01*
Y0012520D01*
X0044960Y0012580D02*
Y0011970D01*
X0027943Y0009054D02*
Y0011203D01*
X0028040Y0011300D01*
X0031080Y0011250D02*
Y0010930D01*
X0030943Y0010793D01*
Y0009054D01*
X0046890Y0011470D02*
Y0011480D01*
Y0011470D01*
X0040550Y0033445D02*
X0039375D01*
X0033250Y0010840D02*
Y0010650D01*
X0033443Y0010456D01*
Y0009054D01*
X0036498Y0041240D02*
Y0040452D01*
X0036500Y0040450D01*
X0035943Y0009054D02*
Y0010656D01*
X0035890Y0010710D01*
X0035870D01*
X0029390Y0011299D02*
X0029443Y0011248D01*
Y0009054D01*
X0033250Y0010840D02*
Y0010650D01*
X0033443Y0010456D01*
Y0009054D01*
X0033540Y0031360D02*
X0032755Y0030575D01*
Y0029393D01*
X0036500Y0040450D02*
X0036498Y0040452D01*
Y0041240D01*
X0044820Y0046790D02*
Y0047440D01*
X0046000D02*
Y0046790D01*
X0039943Y0009054D02*
Y0011213D01*
X0040150Y0011420D01*
X0040310D01*
X0038450Y0018020D02*
X0038730Y0017740D01*
X0040087D01*
X0040091Y0017736D01*
X0040550Y0039158D02*
X0039942D01*
X0039800Y0039300D01*
X0040190Y0041850D02*
X0039880D01*
X0039650Y0041620D01*
Y0041240D01*
X0049600Y0046800D02*
Y0047440D01*
X0048400Y0047430D02*
Y0046790D01*
X0029820Y0016160D02*
X0029170D01*
X0029030Y0016020D01*
X0048400Y0046790D02*
Y0047430D01*
X0046000Y0047440D02*
Y0046790D01*
X0044820D02*
Y0047440D01*
X0043600Y0047400D02*
Y0046780D01*
X0029820Y0023252D02*
X0028388D01*
X0028100Y0023540D01*
Y0029020D01*
X0031610Y0032530D01*
X0037010D01*
X0039453Y0030087D01*
Y0029393D01*
X0046590Y0027160D02*
Y0027290D01*
X0046696Y0027396D01*
X0047530D01*
X0027740Y0033170D02*
X0028040D01*
X0028310Y0033440D01*
X0028698D01*
X0036943Y0009054D02*
Y0010913D01*
X0037150Y0011120D01*
X0037240D01*
X0035870Y0010710D02*
X0035890D01*
X0035943Y0010656D01*
Y0009054D01*
X0024950Y0011450D02*
X0024550D01*
X0024390Y0011610D01*
Y0013130D01*
X0024180Y0013340D01*
X0037480Y0028410D02*
Y0028240D01*
X0038206Y0027514D01*
Y0025531D01*
X0040550Y0040143D02*
X0041957D01*
X0042060Y0040040D01*
X0040550Y0033445D02*
X0039375D01*
X0039810Y0036920D02*
X0040078Y0037188D01*
X0040550D01*
X0048400Y0046790D02*
Y0047430D01*
X0047200D02*
Y0046790D01*
X0049600Y0044360D02*
X0049000D01*
Y0043560D01*
X0048410Y0042970D01*
X0040720D01*
X0039453Y0041703D01*
Y0041240D01*
X0059740Y0036750D02*
X0056340D01*
X0049600Y0046800D02*
Y0047450D01*
X0050800D01*
Y0046810D01*
X0044960Y0011410D02*
Y0010820D01*
X0044940D01*
X0036827Y0025531D02*
Y0025117D01*
X0036770Y0025060D01*
X0036760D01*
X0036827Y0025127D01*
Y0025531D01*
X0056340Y0031750D02*
X0056330D01*
X0055830Y0032250D01*
X0055050D01*
X0053140Y0034160D01*
Y0037130D01*
X0051703Y0038567D01*
X0040550D01*
X0028703Y0034430D02*
X0028320D01*
X0027800Y0034950D01*
X0030600Y0023390D02*
Y0023490D01*
X0030247Y0023843D01*
X0029820D01*
X0030247D01*
X0030600Y0023490D01*
Y0023390D01*
X0046150Y0027670D02*
X0046168Y0027652D01*
X0047530D01*
X0032510Y0036120D02*
Y0036090D01*
X0032500Y0036080D01*
Y0035200D01*
X0031880Y0034580D01*
X0030360D01*
X0029225Y0033445D01*
X0028703D01*
Y0037976D02*
X0027536D01*
X0027530Y0037970D01*
X0027270D01*
X0026990Y0038250D01*
X0021990D01*
X0021500Y0037760D01*
Y0030450D01*
X0017900Y0026850D01*
X0016970D01*
X0016920Y0026900D01*
X0029820Y0019903D02*
X0031327D01*
X0031340Y0019890D01*
X0033000D01*
X0046650Y0028370D02*
X0046800D01*
X0047010Y0028164D01*
X0047530D01*
X0007340Y0039930D02*
X0007800D01*
X0008100Y0040230D01*
Y0045350D01*
X0011150Y0048400D01*
X0035450D01*
X0037877Y0045973D01*
Y0041240D01*
X0048400Y0044360D02*
X0047800D01*
Y0047650D01*
X0048150Y0048000D01*
X0053250D01*
X0054000Y0047250D01*
Y0039160D01*
X0054870Y0038290D01*
X0055800D01*
X0056340Y0037750D01*
X0028703Y0036597D02*
X0028203D01*
X0027900Y0036900D01*
X0026810D01*
X0026330Y0037380D01*
X0022840D01*
X0022320Y0036860D01*
Y0027420D01*
X0017800Y0022900D01*
X0016920D01*
X0044820Y0044360D02*
X0044170D01*
Y0044180D01*
X0043930Y0043940D01*
X0039660D01*
X0038468Y0042748D01*
Y0041240D01*
X0040550Y0030884D02*
X0039996D01*
X0039560Y0031320D01*
Y0031520D01*
X0046000Y0044360D02*
X0045400D01*
Y0048130D01*
X0045750Y0048480D01*
X0053370D01*
X0054400Y0047450D01*
Y0040900D01*
X0055040Y0040260D01*
X0055820D01*
X0056330Y0039750D01*
X0056340D01*
X0016920Y0030900D02*
X0017900D01*
X0020630Y0033630D01*
Y0038800D01*
X0021250Y0039420D01*
X0027240D01*
X0027880Y0038780D01*
X0028683D01*
X0028703Y0038764D01*
X0007340Y0038930D02*
X0007350Y0038940D01*
X0007920D01*
X0008300Y0039320D01*
Y0045250D01*
X0011250Y0048200D01*
X0035350D01*
X0037680Y0045870D01*
Y0041240D01*
X0029820Y0019903D02*
X0031327D01*
X0031330Y0019900D01*
X0028040D01*
X0026330Y0021610D01*
X0025860D01*
X0025540Y0021930D01*
X0025530Y0022590D02*
X0025540Y0022600D01*
Y0026840D01*
X0026020Y0027320D01*
Y0029190D01*
X0025480D01*
Y0029180D01*
X0044943Y0009054D02*
Y0010816D01*
X0044940Y0010820D02*
X0044960D01*
Y0011410D01*
X0040091Y0016554D02*
X0043296D01*
X0043630Y0016220D01*
Y0011210D01*
X0043443Y0011023D01*
Y0009054D01*
X0048400Y0044360D02*
X0047800D01*
Y0043640D01*
X0047410Y0043250D01*
X0040620D01*
X0039256Y0041886D01*
Y0041240D01*
X0028703Y0032657D02*
X0028323D01*
X0028220Y0032760D01*
X0026060D01*
X0025960Y0032660D01*
X0025950D01*
X0025940Y0032650D01*
Y0032660D01*
X0038820Y0018630D02*
X0038960D01*
X0039460Y0018130D01*
X0040091D01*
X0016920Y0033900D02*
X0017850D01*
X0019990Y0036040D01*
Y0042540D01*
X0021850Y0044400D01*
X0028430D01*
X0029997Y0042833D01*
Y0041240D01*
X0007340Y0040930D02*
X0007700D01*
X0007900Y0041130D01*
Y0045450D01*
X0011090Y0048640D01*
X0035510D01*
X0038070Y0046080D01*
Y0041244D01*
X0038074Y0041240D01*
X0032300Y0016100D02*
X0032190D01*
X0032100Y0016010D01*
Y0015261D01*
X0032099Y0015260D01*
X0027943Y0009054D02*
Y0011203D01*
X0028040Y0011300D01*
X0016920Y0032900D02*
X0017750D01*
X0020210Y0035360D01*
Y0042460D01*
X0021950Y0044200D01*
X0028300D01*
X0029800Y0042700D01*
Y0041240D01*
X0046000Y0044360D02*
X0045400D01*
Y0043880D01*
X0045220Y0043700D01*
X0040510D01*
X0038862Y0042052D01*
Y0041240D01*
X0047200Y0044360D02*
X0046590D01*
Y0047890D01*
X0046930Y0048230D01*
X0053320D01*
X0054210Y0047340D01*
Y0039970D01*
X0054890Y0039290D01*
X0055800D01*
X0056340Y0038750D01*
X0016920Y0039900D02*
X0018110D01*
X0018670Y0040460D01*
Y0043120D01*
X0021150Y0045600D01*
X0029220D01*
X0031573Y0043247D01*
Y0041240D01*
X0040550Y0033248D02*
X0042372D01*
X0042910Y0032710D01*
Y0019820D01*
X0043730Y0019000D01*
X0052470D01*
X0053220Y0018250D01*
X0055830D01*
X0056330Y0017750D01*
X0056340D01*
X0038206Y0015260D02*
Y0014034D01*
X0038670Y0013570D01*
X0040900D01*
X0041443Y0013026D01*
Y0009054D01*
X0040091Y0016357D02*
X0042743D01*
X0042900Y0016200D01*
X0031902Y0015260D02*
Y0013932D01*
X0031620Y0013650D01*
X0028850D01*
X0028443Y0013243D01*
Y0009054D01*
X0030391Y0041240D02*
Y0041751D01*
X0030590Y0041950D01*
Y0042580D01*
X0028570Y0044600D01*
X0021700D01*
X0019760Y0042660D01*
Y0036560D01*
X0018090Y0034890D01*
X0016930D01*
X0016920Y0034900D01*
X0040091Y0021282D02*
X0040982D01*
X0041100Y0021400D01*
Y0028720D01*
X0037080Y0032740D01*
X0031530D01*
X0029083Y0030293D01*
X0028703D01*
X0016920Y0031900D02*
X0017900D01*
X0020430Y0034430D01*
Y0042380D01*
X0022050Y0044000D01*
X0028210D01*
X0029603Y0042607D01*
Y0041240D01*
X0016920Y0029900D02*
X0017800D01*
X0020850Y0032950D01*
Y0038270D01*
X0021440Y0038860D01*
X0027420D01*
X0027713Y0038567D01*
X0028703D01*
X0035054Y0015260D02*
Y0011896D01*
X0034260Y0011100D01*
Y0010810D01*
X0033943Y0010493D01*
Y0009054D01*
X0049600Y0044360D02*
X0049000D01*
Y0047500D01*
X0049300Y0047800D01*
X0053150D01*
X0053800Y0047150D01*
Y0038500D01*
X0055060Y0037240D01*
X0055850D01*
X0056340Y0036750D01*
X0052000Y0044360D02*
X0051990Y0044350D01*
Y0041760D01*
X0050800Y0040570D01*
X0037850D01*
X0037680Y0040740D01*
Y0041240D01*
X0035251Y0015260D02*
Y0015899D01*
X0035420Y0016068D01*
Y0016070D01*
X0028703Y0033642D02*
X0025102D01*
X0024390Y0032930D01*
X0024380D01*
X0016920Y0036900D02*
X0016930Y0036890D01*
X0017680D01*
X0019270Y0038480D01*
Y0042770D01*
X0021500Y0045000D01*
X0028830D01*
X0030982Y0042848D01*
Y0041240D01*
X0016920Y0035900D02*
X0018400D01*
X0019520Y0037020D01*
Y0042720D01*
X0021600Y0044800D01*
X0028710D01*
X0030785Y0042725D01*
Y0041240D01*
X0007340Y0039930D02*
X0007330D01*
X0006830Y0040430D01*
X0005880D01*
X0005380Y0039930D01*
X0003600D01*
X0007340Y0037930D02*
X0008000D01*
X0008500Y0038430D01*
Y0045150D01*
X0011350Y0048000D01*
X0035250D01*
X0037483Y0045767D01*
Y0041240D01*
X0056340Y0023750D02*
X0055830Y0024260D01*
X0054990D01*
X0051500Y0027750D01*
Y0035620D01*
X0051210Y0035910D01*
X0041260D01*
X0040967Y0036203D01*
X0040550D01*
X0032887Y0015260D02*
Y0013213D01*
X0032970Y0013130D01*
X0033060D01*
X0040091Y0017736D02*
X0044944D01*
X0045430Y0017250D01*
Y0011640D01*
X0045200Y0011410D01*
X0044960D01*
X0016920Y0037900D02*
X0017870D01*
X0019050Y0039080D01*
Y0042850D01*
X0021400Y0045200D01*
X0029000D01*
X0031180Y0043020D01*
Y0041241D01*
X0031179Y0041240D01*
X0039110Y0031940D02*
X0039120Y0031930D01*
Y0031390D01*
X0039823Y0030687D01*
X0040550D01*
X0036236Y0015260D02*
Y0012624D01*
X0037650Y0011210D01*
Y0010650D01*
X0037443Y0010443D01*
Y0009054D01*
X0052000Y0046820D02*
Y0047450D01*
X0052970D01*
X0053200Y0047220D01*
Y0046830D01*
X0007340Y0029930D02*
X0009470D01*
X0010100Y0030560D01*
Y0044350D01*
X0012150Y0046400D01*
X0034400D01*
X0035513Y0045287D01*
Y0041240D01*
X0028703Y0032066D02*
X0027820D01*
X0027794Y0032040D01*
X0027790D01*
X0026590Y0025490D02*
X0026780Y0025300D01*
Y0022800D01*
X0026760Y0022780D01*
X0038994Y0015260D02*
Y0014706D01*
X0039160Y0014540D01*
X0042330D01*
X0042943Y0013930D01*
Y0009054D01*
X0016920Y0038900D02*
X0018120D01*
X0018850Y0039630D01*
Y0043000D01*
X0021250Y0045400D01*
X0029150D01*
X0031376Y0043174D01*
Y0041240D01*
X0031500Y0045500D02*
Y0044920D01*
X0032755Y0043665D01*
Y0041240D01*
X0033550Y0045310D02*
Y0045130D01*
X0034134Y0044546D01*
Y0041240D01*
X0047200Y0044360D02*
X0046590D01*
Y0043840D01*
X0046250Y0043500D01*
X0040610D01*
X0039059Y0041949D01*
Y0041240D01*
X0040550Y0039552D02*
X0051928D01*
X0053850Y0037630D01*
Y0036300D01*
X0054900Y0035250D01*
X0055840D01*
X0056340Y0034750D01*
X0044820Y0044360D02*
X0044170D01*
Y0048330D01*
X0044550Y0048710D01*
X0053440D01*
X0054600Y0047550D01*
Y0041600D01*
X0054960Y0041240D01*
X0055830D01*
X0056320Y0040750D01*
X0056340D01*
X0040550Y0038764D02*
X0051826D01*
X0053380Y0037210D01*
Y0034870D01*
X0055000Y0033250D01*
X0055840D01*
X0056340Y0032750D01*
X0028703Y0040143D02*
X0036873D01*
X0037120Y0040390D01*
X0040550Y0033839D02*
X0042651D01*
X0043100Y0033390D01*
Y0020120D01*
X0043960Y0019260D01*
X0055830D01*
X0056340Y0018750D01*
X0028703Y0039946D02*
X0028719Y0039960D01*
X0037300D01*
X0037530Y0040190D01*
X0037540D01*
X0036892Y0041240D02*
Y0041888D01*
X0036700Y0042080D01*
Y0045900D01*
X0035000Y0047600D01*
X0011550D01*
X0008900Y0044950D01*
Y0036680D01*
X0008150Y0035930D01*
X0007340D01*
X0050800Y0046250D02*
Y0045200D01*
X0034528Y0041240D02*
Y0044900D01*
X0034370Y0045058D01*
Y0045060D01*
X0030460Y0022710D02*
X0030440Y0022690D01*
X0030390D01*
X0030361Y0022661D01*
X0029820D01*
X0016920Y0040900D02*
X0018030D01*
X0018490Y0041360D01*
Y0043240D01*
X0021050Y0045800D01*
X0029410D01*
X0031967Y0043243D01*
Y0041240D01*
X0040091Y0021282D02*
X0041000D01*
Y0021070D01*
X0040840Y0020910D01*
X0043870Y0020860D02*
X0043840D01*
X0043830Y0020870D01*
Y0024030D01*
X0044230Y0024430D01*
X0044240D01*
X0045770Y0025960D01*
X0045780D01*
X0046192Y0026372D01*
X0047530D01*
X0032740Y0045220D02*
Y0044946D01*
X0033346Y0044340D01*
Y0041240D01*
X0038600Y0015260D02*
Y0014450D01*
X0039010Y0014040D01*
X0041730D01*
X0041943Y0013826D01*
Y0009054D01*
X0007340Y0033930D02*
X0008550D01*
X0009300Y0034680D01*
Y0044750D01*
X0011750Y0047200D01*
X0034800D01*
X0036300Y0045700D01*
Y0041241D01*
X0036301Y0041240D01*
X0028943Y0009054D02*
Y0010513D01*
X0029070Y0010640D01*
Y0013140D01*
X0029330Y0013400D01*
X0031920D01*
X0032296Y0013776D01*
Y0015260D01*
X0007340Y0027930D02*
X0009750D01*
X0010500Y0028680D01*
Y0044150D01*
X0012350Y0046000D01*
X0034220D01*
X0034725Y0045495D01*
Y0041240D01*
X0028703Y0033445D02*
X0029225D01*
X0030360Y0034580D01*
X0031880D01*
X0032500Y0035200D01*
Y0036080D01*
X0032510Y0036090D01*
Y0036120D01*
X0007340Y0036930D02*
X0008120D01*
X0008700Y0037510D01*
Y0045050D01*
X0011450Y0047800D01*
X0035100D01*
X0037286Y0045614D01*
Y0041240D01*
X0025480Y0030020D02*
X0024650D01*
X0056340Y0019750D02*
X0055850Y0020240D01*
X0053880D01*
X0053450Y0019810D01*
X0043850D01*
X0043320Y0020340D01*
Y0033510D01*
X0042794Y0034036D01*
X0040550D01*
X0056340Y0024750D02*
X0055850Y0025240D01*
X0054960D01*
X0051700Y0028500D01*
Y0036120D01*
X0051010Y0036810D01*
X0041460D01*
X0041247Y0036597D01*
X0040550D01*
X0056340Y0025750D02*
X0055830Y0026260D01*
X0054790D01*
X0051900Y0029150D01*
Y0036310D01*
X0051170Y0037040D01*
X0041370D01*
X0041124Y0036794D01*
X0040550D01*
X0023970Y0033320D02*
X0024489Y0033839D01*
X0028703D01*
X0030890Y0045420D02*
Y0045190D01*
X0032558Y0043522D01*
Y0041240D01*
X0033740D02*
Y0041680D01*
X0033930Y0041870D01*
Y0044280D01*
X0033350Y0044860D01*
Y0044840D01*
X0032952Y0041240D02*
Y0043848D01*
X0031970Y0044830D01*
Y0045050D01*
X0029820Y0019312D02*
X0025918D01*
X0025670Y0019560D01*
Y0020360D01*
X0025650Y0020380D01*
X0024520Y0034650D02*
Y0034640D01*
X0027550D01*
X0027830Y0034920D01*
X0028320Y0034430D01*
X0028703D01*
X0038080Y0040120D02*
X0037709Y0039749D01*
X0028703D01*
X0025160Y0023200D02*
X0024310D01*
X0029820Y0016554D02*
X0026494D01*
X0026280Y0016340D01*
X0031280Y0021460D02*
Y0022040D01*
X0030950Y0022370D01*
X0030280D01*
X0030186Y0022464D01*
X0029820D01*
X0007340Y0030930D02*
X0009290D01*
X0009900Y0031540D01*
Y0044450D01*
X0012050Y0046600D01*
X0034500D01*
X0035710Y0045390D01*
Y0041240D01*
X0039940Y0013170D02*
X0039840Y0013270D01*
X0038570D01*
X0038009Y0013831D01*
Y0015260D01*
X0037615D02*
Y0013407D01*
X0038278Y0012740D01*
X0039070D01*
X0039150Y0012660D01*
Y0012480D01*
X0021740Y0015500D02*
X0020920D01*
X0020500Y0015920D01*
Y0019410D01*
X0022120Y0021030D01*
X0026590D01*
X0027670Y0019950D01*
Y0019710D01*
X0030260Y0045560D02*
Y0045360D01*
X0032164Y0043456D01*
Y0041240D01*
X0007340Y0023930D02*
X0006840Y0024430D01*
X0005660D01*
X0005190Y0023960D01*
X0003720D01*
X0003690Y0023930D01*
X0031943Y0009054D02*
X0031940Y0009058D01*
Y0010690D01*
X0032040Y0010793D01*
Y0011813D01*
X0032300Y0012070D01*
X0033910D01*
X0034266Y0012426D01*
Y0015260D01*
X0023510Y0033700D02*
Y0033710D01*
X0023836Y0034036D01*
X0028703D01*
X0036695Y0041240D02*
Y0041795D01*
X0036510Y0041980D01*
Y0045790D01*
X0034900Y0047400D01*
X0011650D01*
X0009090Y0044840D01*
Y0035620D01*
X0008400Y0034930D01*
X0007340D01*
X0040550Y0034430D02*
X0040990D01*
X0041280Y0034720D01*
X0043130D01*
X0043520Y0034330D01*
Y0020750D01*
X0044020Y0020250D01*
X0052620D01*
X0053640Y0021270D01*
X0055820D01*
X0056340Y0020750D01*
X0003600Y0040930D02*
X0005150D01*
X0005650Y0041430D01*
X0006840D01*
X0007340Y0040930D01*
Y0032930D02*
X0008760D01*
X0009490Y0033660D01*
Y0044640D01*
X0011850Y0047000D01*
X0034700D01*
X0036104Y0045596D01*
Y0041240D01*
X0023080Y0035740D02*
Y0035770D01*
X0023410Y0036100D01*
X0026130D01*
X0026990Y0035240D01*
X0027990D01*
X0028165Y0035415D01*
X0028703D01*
X0035119Y0041240D02*
Y0041641D01*
X0034920Y0041840D01*
Y0045580D01*
X0034300Y0046200D01*
X0012250D01*
X0010300Y0044250D01*
Y0029600D01*
X0009630Y0028930D01*
X0007340D01*
X0040550Y0035218D02*
X0040558Y0035210D01*
X0040940D01*
X0041229Y0035500D01*
X0050899D01*
X0051090Y0035310D01*
Y0025960D01*
X0054790Y0022260D01*
X0055830D01*
X0056340Y0021750D01*
X0007340Y0031930D02*
X0009090D01*
X0009700Y0032540D01*
Y0044550D01*
X0011950Y0046800D01*
X0034600D01*
X0035907Y0045493D01*
Y0041240D01*
X0031573Y0029393D02*
Y0030697D01*
X0031340Y0030930D01*
Y0031230D01*
X0037290Y0023000D02*
X0037920D01*
X0038456Y0022464D01*
X0040091D01*
X0056340Y0026750D02*
X0055850Y0027240D01*
X0054810D01*
X0052100Y0029950D01*
Y0036510D01*
X0051360Y0037250D01*
X0041240D01*
X0040981Y0036991D01*
X0040550D01*
X0032290Y0045590D02*
Y0044960D01*
X0033149Y0044101D01*
Y0041240D01*
X0033872Y0015260D02*
Y0012622D01*
X0033550Y0012300D01*
X0031650D01*
X0031400Y0012050D01*
Y0010750D01*
X0031440Y0010710D01*
Y0010530D01*
X0031443Y0010526D01*
Y0009054D01*
X0056340Y0022750D02*
X0055850Y0023240D01*
X0054860D01*
X0051300Y0026800D01*
X0051299Y0035419D01*
X0051019Y0035700D01*
X0041129D01*
X0041023Y0035809D01*
X0040550D01*
X0029820Y0021873D02*
X0029817Y0021870D01*
X0029270D01*
X0028960Y0021560D01*
X0028950D01*
X0028940Y0021550D01*
X0027100Y0023370D02*
Y0026610D01*
X0027000Y0026710D01*
Y0031460D01*
X0027270Y0031730D01*
X0028180D01*
X0028240Y0031670D01*
X0028701D01*
X0028703Y0031672D01*
X0029820Y0017342D02*
X0029818Y0017340D01*
X0028630D01*
Y0017342D01*
X0023392D01*
X0023390Y0017340D01*
X0027710Y0039750D02*
X0027690D01*
X0027680Y0039760D01*
X0028100D01*
X0028109Y0039749D01*
X0028703D01*
X0034943Y0009054D02*
Y0010923D01*
X0035448Y0011428D01*
Y0015260D01*
X0029820Y0023055D02*
X0030725D01*
X0032800Y0020980D01*
X0033370D01*
X0039500Y0026310D02*
X0039650Y0026460D01*
Y0029393D01*
X0061940Y0032750D02*
X0061020D01*
X0060510Y0033260D01*
X0057640D01*
X0057130Y0032750D01*
X0056340D01*
X0034660Y0015260D02*
Y0012328D01*
X0034179Y0011850D01*
X0033138D01*
X0032943Y0011652D01*
Y0009054D01*
X0040550Y0038370D02*
X0051560D01*
X0052900Y0037030D01*
Y0033400D01*
X0055050Y0031250D01*
X0055840D01*
X0056340Y0030750D01*
X0007340Y0027930D02*
X0006840Y0028430D01*
X0005290D01*
X0004820Y0027960D01*
X0001810D01*
X0001780Y0027930D01*
X0056340Y0035750D02*
Y0035760D01*
X0055840Y0036260D01*
X0054600D01*
X0054100Y0036760D01*
Y0037740D01*
X0052091Y0039749D01*
X0040550D01*
Y0039946D02*
X0039696D01*
X0007340Y0029930D02*
X0006840Y0030430D01*
X0004950D01*
X0004480Y0029960D01*
X0001810D01*
X0001780Y0029930D01*
X0059740Y0035750D02*
X0056340D01*
X0034790Y0016220D02*
Y0016210D01*
X0034463Y0015883D01*
Y0015260D01*
X0040091Y0023646D02*
X0039254D01*
X0038510Y0024390D01*
X0035550D01*
X0035370Y0024210D01*
Y0023650D01*
X0035000Y0031200D02*
X0034850Y0031050D01*
X0033640D01*
X0032952Y0030362D01*
Y0029393D01*
X0040550Y0038173D02*
X0051480D01*
X0052700Y0036950D01*
Y0032500D01*
X0054950Y0030250D01*
X0055840D01*
X0056340Y0029750D01*
X0028703Y0036203D02*
X0028303D01*
X0028100Y0036000D01*
X0027350D01*
X0026650Y0036700D01*
X0022870D01*
X0022520Y0036350D01*
Y0026570D01*
X0017850Y0021900D01*
X0016920D01*
X0028703Y0030490D02*
X0028130D01*
X0027990Y0030350D01*
Y0030320D01*
X0026090D02*
Y0030310D01*
X0026020Y0030240D01*
Y0029190D01*
X0025480D01*
Y0029180D01*
X0037418Y0015260D02*
Y0013172D01*
X0038080Y0012510D01*
X0038670D01*
X0038690Y0012490D01*
X0039095Y0012080D01*
X0039130Y0012040D01*
Y0011120D01*
X0038943Y0010933D01*
Y0009054D01*
X0036350Y0011210D02*
Y0011170D01*
X0036039Y0011480D01*
Y0015260D01*
X0050800Y0046810D02*
Y0047450D01*
X0052000D01*
Y0046820D01*
X0034090Y0015940D02*
X0034070Y0015920D01*
Y0015261D01*
X0034069Y0015260D01*
X0027950Y0012460D02*
X0027900Y0012510D01*
Y0013420D01*
X0028370Y0013890D01*
X0031420D01*
X0031705Y0014175D01*
Y0015260D01*
X0028703Y0037582D02*
X0028701Y0037580D01*
X0028320D01*
X0028120Y0037780D01*
X0027158D01*
X0026890Y0038050D01*
X0022200D01*
X0021710Y0037560D01*
Y0029560D01*
X0018050Y0025900D01*
X0016920D01*
X0059740Y0018750D02*
X0056340D01*
X0027443Y0009054D02*
Y0010713D01*
X0027600Y0010870D01*
Y0013840D01*
X0027860Y0014100D01*
X0031320D01*
X0031508Y0014288D01*
Y0015260D01*
X0056340Y0027750D02*
X0055840Y0028250D01*
X0054900D01*
X0052280Y0030870D01*
Y0036650D01*
X0051360Y0037570D01*
X0041300D01*
X0041292Y0037582D01*
X0040550D01*
X0001780Y0026930D02*
X0004430D01*
X0004930Y0027430D01*
X0006840D01*
X0007340Y0026930D01*
X0001780Y0028930D02*
X0004610D01*
X0005100Y0029420D01*
X0006850D01*
X0007340Y0028930D01*
X0003600Y0038930D02*
X0005130D01*
X0005630Y0039430D01*
X0006840D01*
X0007340Y0038930D01*
X0048400Y0046230D02*
Y0045200D01*
X0031179Y0029393D02*
X0031180Y0029950D01*
Y0030590D01*
X0031000Y0030770D01*
Y0030830D01*
X0037650Y0022620D02*
X0037900D01*
X0038420Y0022100D01*
X0039490D01*
X0039717Y0021873D01*
X0040091D01*
X0025480Y0029180D02*
X0024710D01*
X0024650Y0029240D01*
Y0029460D01*
X0031114Y0015260D02*
Y0014614D01*
X0030910Y0014410D01*
X0027390D01*
X0026943Y0013963D01*
Y0009054D01*
X0001780Y0032930D02*
X0002540D01*
X0003030Y0033420D01*
X0006850D01*
X0007340Y0032930D01*
X0059740Y0034750D02*
X0056340D01*
X0040550Y0039355D02*
X0051635D01*
X0053590Y0037400D01*
Y0035560D01*
X0054930Y0034220D01*
X0055870D01*
X0056340Y0033750D01*
X0048619Y0030300D02*
Y0029751D01*
X0049200Y0029170D01*
Y0027630D01*
X0048454Y0026884D01*
X0047530D01*
X0034331Y0041240D02*
Y0044619D01*
X0034040Y0044910D01*
Y0045640D01*
X0034020Y0045660D01*
X0059740Y0038750D02*
X0056340D01*
X0028703Y0037385D02*
X0028175D01*
X0027990Y0037570D01*
X0027080D01*
X0026810Y0037840D01*
X0022380D01*
X0021910Y0037370D01*
Y0028760D01*
X0018050Y0024900D01*
X0016920D01*
X0036660Y0014170D02*
X0036650Y0014160D01*
Y0014460D01*
X0036433Y0014677D01*
Y0015260D01*
X0030194Y0029393D02*
Y0028605D01*
X0029520Y0027929D01*
Y0026170D01*
X0034802Y0020888D01*
X0040091D01*
X0032887Y0015260D02*
Y0013213D01*
X0032970Y0013130D01*
X0033060D01*
X0032890Y0013210D02*
X0032887Y0013207D01*
Y0015260D01*
X0027640Y0040520D02*
Y0040420D01*
X0027870D01*
X0027980Y0040310D01*
Y0040140D01*
X0028174Y0039946D01*
X0028703D01*
X0003600Y0034930D02*
X0005490D01*
X0005990Y0035430D01*
X0006840D01*
X0007340Y0034930D01*
X0011310Y0040900D02*
X0013430D01*
X0013930Y0041400D01*
X0016420D01*
X0016920Y0040900D01*
X0059740Y0037750D02*
X0056340D01*
X0016920Y0027900D02*
X0017950D01*
X0021280Y0031230D01*
Y0037860D01*
X0021880Y0038460D01*
X0027060D01*
X0027347Y0038173D01*
X0028703D01*
X0059740Y0023750D02*
X0056340D01*
X0016920Y0033900D02*
X0016910D01*
X0016420Y0034390D01*
X0012610D01*
X0012120Y0033900D01*
X0011310D01*
X0029820Y0023646D02*
X0028804D01*
X0028500Y0023950D01*
Y0028820D01*
X0031800Y0032120D01*
X0036780D01*
X0038862Y0030038D01*
Y0029393D01*
X0007340Y0030930D02*
X0006830Y0031440D01*
X0005410D01*
X0004880Y0030910D01*
X0001800D01*
X0001780Y0030930D01*
X0025943Y0009054D02*
Y0015393D01*
X0026907Y0016357D01*
X0029820D01*
X0003600Y0036930D02*
X0005390D01*
X0005890Y0037430D01*
X0006840D01*
X0007340Y0036930D01*
X0056340Y0036760D02*
Y0036750D01*
X0007340Y0035930D02*
X0007320D01*
X0006820Y0036430D01*
X0005830D01*
X0005310Y0035910D01*
X0003620D01*
X0003600Y0035930D01*
X0011310Y0039900D02*
X0013500D01*
X0014000Y0040400D01*
X0016420D01*
X0016920Y0039900D01*
Y0026900D02*
X0016430Y0027390D01*
X0014850D01*
X0014340Y0026880D01*
X0013320D01*
X0013300Y0026900D01*
X0028703Y0036794D02*
X0028326D01*
X0027730Y0037390D01*
X0026710D01*
X0026510Y0037590D01*
X0022580D01*
X0022110Y0037120D01*
Y0028060D01*
X0017950Y0023900D01*
X0016920D01*
X0011200Y0017900D02*
X0013360D01*
X0013860Y0018400D01*
X0016420D01*
X0016920Y0017900D01*
X0022950Y0012630D02*
X0022980Y0012660D01*
Y0016290D01*
X0023835Y0017145D01*
X0029820D01*
X0029997Y0029393D02*
Y0028715D01*
X0029320Y0028042D01*
Y0026010D01*
X0034639Y0020691D01*
X0040091D01*
X0059740Y0040750D02*
X0056340D01*
X0011200Y0018900D02*
X0013940D01*
X0014470Y0019430D01*
X0016390D01*
X0016920Y0018900D01*
Y0032900D02*
X0016910D01*
X0016410Y0033400D01*
X0014870D01*
X0014370Y0032900D01*
X0013300D01*
X0007340Y0021930D02*
X0006840Y0022430D01*
X0005590D01*
X0005080Y0021920D01*
X0003700D01*
X0003690Y0021930D01*
X0033346Y0029393D02*
Y0026444D01*
X0033470Y0026320D01*
X0039180Y0024510D02*
X0039453Y0024237D01*
X0040091D01*
X0059740Y0017750D02*
X0056340D01*
X0023680Y0034650D02*
Y0035140D01*
X0023580Y0035240D01*
Y0035360D01*
X0016920Y0022900D02*
X0016420Y0023400D01*
X0014870D01*
X0014360Y0022890D01*
X0011210D01*
X0011200Y0022900D01*
X0035513Y0029393D02*
Y0029023D01*
X0035300Y0028810D01*
Y0027550D01*
X0036039Y0026811D01*
Y0025531D01*
X0040550Y0037976D02*
X0051294D01*
X0052480Y0036790D01*
Y0031770D01*
X0055000Y0029250D01*
X0055840D01*
X0056340Y0028750D01*
X0007340Y0024930D02*
X0006840Y0025430D01*
X0005260D01*
X0004770Y0024940D01*
X0003700D01*
X0003690Y0024930D01*
X0035842Y0025531D02*
Y0026688D01*
X0035119Y0027411D01*
Y0029393D01*
X0016920Y0034900D02*
X0016910D01*
X0016410Y0035400D01*
X0014170D01*
X0013680Y0034910D01*
X0011320D01*
X0011310Y0034900D01*
X0007340Y0018930D02*
X0006840Y0019430D01*
X0005580D01*
X0005070Y0018920D01*
X0003700D01*
X0003690Y0018930D01*
X0016920Y0024900D02*
X0016910D01*
X0016410Y0025400D01*
X0012510D01*
X0012010Y0024900D01*
X0011200D01*
X0035645Y0025531D02*
Y0026535D01*
X0034922Y0027258D01*
Y0029393D01*
X0016920Y0028900D02*
X0016930Y0028890D01*
X0017940D01*
X0021060Y0032010D01*
Y0038090D01*
X0021630Y0038660D01*
X0027260D01*
X0027550Y0038370D01*
X0028703D01*
X0029800Y0029393D02*
Y0028850D01*
X0029100Y0028150D01*
Y0025900D01*
X0034506Y0020494D01*
X0040091D01*
X0033810Y0011120D02*
X0033820Y0011130D01*
X0033880D01*
X0034857Y0012107D01*
Y0015260D01*
X0061940Y0027750D02*
X0056340D01*
X0016920Y0019900D02*
X0016430Y0020390D01*
X0014500D01*
X0014000Y0019890D01*
X0011210D01*
X0011200Y0019900D01*
X0016920Y0028900D02*
X0016910D01*
X0016410Y0029400D01*
X0015090D01*
X0014580Y0028890D01*
X0013310D01*
X0013300Y0028900D01*
X0034528Y0029393D02*
Y0028128D01*
X0034530Y0028126D01*
Y0026990D01*
X0035250Y0026270D01*
Y0025532D01*
X0035251Y0025531D01*
X0013300Y0030900D02*
X0014540D01*
X0015040Y0031400D01*
X0016420D01*
X0016920Y0030900D01*
X0034134Y0029393D02*
Y0028896D01*
X0034280Y0028750D01*
Y0026930D01*
X0035054Y0026156D01*
Y0025531D01*
X0034857D02*
Y0025963D01*
X0034690Y0026130D01*
X0034140D01*
X0033550Y0026720D01*
Y0028740D01*
X0033740Y0028930D01*
Y0029393D01*
X0032558D02*
Y0030738D01*
X0032970Y0031150D01*
Y0031340D01*
X0035760Y0024000D02*
X0035880Y0024120D01*
X0035890D01*
X0035950Y0024180D01*
X0038340D01*
X0039071Y0023449D01*
X0040091D01*
X0040550Y0031278D02*
X0041042D01*
X0041510Y0030810D01*
Y0020260D01*
X0041153Y0019903D01*
X0040091D01*
X0016920Y0020900D02*
X0016910D01*
X0016410Y0021400D01*
X0014550D01*
X0014060Y0020910D01*
X0011210D01*
X0011200Y0020900D01*
X0061940Y0025750D02*
X0056340D01*
X0061940Y0030750D02*
X0056340D01*
X0038797Y0015260D02*
X0038800Y0015263D01*
Y0016270D01*
X0016920Y0025900D02*
X0016910D01*
X0016410Y0026400D01*
X0014870D01*
X0014360Y0025890D01*
X0013310D01*
X0013300Y0025900D01*
X0059740Y0033750D02*
X0056340D01*
X0037615Y0025531D02*
Y0027025D01*
X0036695Y0027945D01*
Y0029393D01*
X0016920Y0031900D02*
Y0031910D01*
X0016420Y0032410D01*
X0015050D01*
X0014550Y0031910D01*
X0013310D01*
X0013300Y0031900D01*
X0044443Y0017140D02*
X0040096D01*
X0040091Y0017145D01*
X0047200Y0046230D02*
Y0045200D01*
X0011310Y0038900D02*
X0013470D01*
X0013970Y0039400D01*
X0016420D01*
X0016920Y0038900D01*
X0031030Y0012120D02*
Y0012286D01*
X0031243Y0012500D01*
X0033350D01*
X0033675Y0012825D01*
Y0015260D01*
X0035448Y0025531D02*
Y0026362D01*
X0034725Y0027085D01*
Y0029393D01*
X0039443Y0009054D02*
Y0010893D01*
X0039740Y0011190D01*
Y0012510D01*
X0039220Y0013030D01*
X0038430D01*
X0037812Y0013648D01*
Y0015260D01*
X0061940Y0031750D02*
X0056340D01*
X0030943Y0009054D02*
Y0010793D01*
X0031080Y0010930D01*
Y0011250D01*
X0037418Y0025531D02*
Y0026882D01*
X0036498Y0027802D01*
Y0029393D01*
X0061940Y0028750D02*
X0056340D01*
X0040550Y0031869D02*
X0041511D01*
X0041700Y0031680D01*
Y0020100D01*
X0041306Y0019706D01*
X0040091D01*
Y0021676D02*
X0039604D01*
X0039380Y0021900D01*
X0037950D01*
X0037620Y0022230D01*
X0037310D01*
X0030340Y0030180D02*
X0030520D01*
X0030790Y0029910D01*
Y0029398D01*
X0030785Y0029393D01*
X0003690Y0022930D02*
X0005060D01*
X0005560Y0023430D01*
X0006840D01*
X0007340Y0022930D01*
X0037943Y0009054D02*
Y0011926D01*
X0037024Y0012846D01*
Y0015260D01*
X0030443Y0009054D02*
Y0010843D01*
X0030680Y0011080D01*
Y0012450D01*
X0030930Y0012700D01*
X0033130D01*
X0033478Y0013048D01*
Y0015260D01*
X0038403Y0025531D02*
Y0027917D01*
X0037680Y0028640D01*
Y0029393D01*
X0016920Y0021900D02*
Y0021910D01*
X0016440Y0022390D01*
X0014390D01*
X0013900Y0021900D01*
X0011200D01*
X0037221Y0025531D02*
Y0026719D01*
X0036301Y0027639D01*
Y0029393D01*
X0059740Y0022750D02*
X0056340D01*
X0038994Y0025531D02*
Y0028196D01*
X0038271Y0028919D01*
Y0029393D01*
X0061940Y0029750D02*
X0056340D01*
X0040091Y0021479D02*
X0039481D01*
X0039300Y0021660D01*
X0037130D01*
X0030800Y0028010D02*
X0030630D01*
X0030391Y0028249D01*
Y0029393D01*
X0046000Y0046230D02*
Y0045200D01*
X0031770Y0029393D02*
Y0031520D01*
X0031860Y0031610D01*
X0037780Y0023320D02*
X0038010D01*
X0038472Y0022858D01*
X0040091D01*
X0039272Y0017342D02*
X0040091D01*
X0001780Y0025930D02*
X0002630D01*
X0003130Y0026430D01*
X0006840D01*
X0007340Y0025930D01*
X0038600Y0025531D02*
Y0028010D01*
X0037877Y0028733D01*
Y0029393D01*
X0044443Y0009054D02*
X0044445Y0009056D01*
Y0016555D01*
X0044052Y0016948D01*
X0040091D01*
X0040550Y0032263D02*
X0041887D01*
X0042100Y0032050D01*
Y0019870D01*
X0041542Y0019312D01*
X0040091D01*
X0040550Y0032460D02*
X0042080D01*
X0042300Y0032240D01*
Y0019780D01*
X0041635Y0019115D01*
X0040091D01*
X0032690Y0015260D02*
Y0013330D01*
X0032260Y0012900D01*
X0030310D01*
X0029943Y0012533D01*
Y0009054D01*
X0040550Y0032066D02*
X0041704D01*
X0041900Y0031870D01*
Y0019990D01*
X0041419Y0019509D01*
X0040091D01*
X0050800Y0044360D02*
Y0041400D01*
X0050160Y0040760D01*
X0037970D01*
X0037877Y0040853D01*
Y0041240D01*
X0059740Y0020750D02*
X0056340D01*
X0040550Y0031081D02*
X0040949D01*
X0041300Y0030730D01*
Y0020450D01*
X0040940Y0020090D01*
X0040101D01*
X0040091Y0020100D01*
X0036443Y0009054D02*
X0036450Y0009061D01*
Y0010640D01*
X0035842Y0011248D01*
Y0015260D01*
X0028703Y0035809D02*
X0028291D01*
X0028290Y0035810D01*
X0026880D01*
X0026210Y0036480D01*
X0023150D01*
X0022740Y0036070D01*
Y0023032D01*
X0023502Y0022267D01*
X0029820D01*
X0032361Y0029393D02*
Y0030940D01*
X0032310Y0030990D01*
X0036140Y0023630D02*
X0036440Y0023930D01*
X0038190D01*
X0038868Y0023252D01*
X0040091D01*
X0016920Y0027900D02*
Y0027910D01*
X0016430Y0028400D01*
X0015180D01*
X0014680Y0027900D01*
X0013300D01*
X0059740Y0039750D02*
X0056340D01*
X0027600Y0041280D02*
Y0041190D01*
X0028090D01*
X0028200Y0041080D01*
Y0040300D01*
X0028357Y0040143D01*
X0028703D01*
X0038797Y0025531D02*
Y0028093D01*
X0038074Y0028816D01*
Y0029393D01*
X0026150Y0020380D02*
Y0019770D01*
X0026300Y0019620D01*
X0026360D01*
X0030600Y0019570D02*
X0030464Y0019706D01*
X0029820D01*
X0040091Y0023843D02*
X0039387D01*
X0038650Y0024580D01*
X0035290D01*
X0034950Y0024240D01*
Y0023990D01*
X0034670Y0030650D02*
X0033730D01*
X0033160Y0030080D01*
Y0029402D01*
X0033149Y0029393D01*
X0040733Y0022267D02*
X0040091D01*
X0011200Y0023900D02*
X0014180D01*
X0014680Y0024400D01*
X0016420D01*
X0016920Y0023900D01*
X0037221Y0015260D02*
Y0013019D01*
X0037950Y0012290D01*
X0038430D01*
X0038550Y0012170D01*
X0029820Y0019115D02*
X0025485D01*
X0025150Y0019450D01*
Y0020380D01*
X0025443Y0009054D02*
X0025400Y0009098D01*
Y0016170D01*
X0025981Y0016751D01*
X0029820D01*
X0028703Y0030687D02*
X0027867D01*
X0027700Y0030520D01*
Y0027300D01*
X0027900Y0027100D01*
Y0023350D01*
X0028200Y0023050D01*
X0029230D01*
X0029422Y0022858D01*
X0029820D01*
X0030917Y0015260D02*
Y0014827D01*
X0030790Y0014700D01*
X0027010D01*
X0026580Y0014270D01*
Y0013280D01*
X0039191Y0025531D02*
Y0028289D01*
X0038468Y0029012D01*
Y0029393D01*
X0029820Y0020297D02*
X0029803Y0020310D01*
X0027990D01*
X0026360Y0021940D01*
X0025950Y0023130D02*
X0025940Y0023120D01*
Y0026750D01*
X0026500Y0027310D01*
Y0031770D01*
X0027270Y0032540D01*
X0028130D01*
X0028210Y0032460D01*
X0028703D01*
X0016920Y0035900D02*
Y0035910D01*
X0016430Y0036400D01*
X0013890D01*
X0013370Y0035880D01*
X0011330D01*
X0011310Y0035900D01*
X0031311Y0015260D02*
X0031310Y0015261D01*
Y0015910D01*
X0031500Y0016100D01*
X0044820Y0046230D02*
Y0045200D01*
X0011310Y0037900D02*
X0013570D01*
X0014080Y0038410D01*
X0016410D01*
X0016920Y0037900D01*
X0059740Y0024750D02*
X0056340D01*
X0040091Y0023055D02*
X0038665D01*
X0038100Y0023620D01*
X0037180D01*
X0032460Y0031800D02*
Y0031670D01*
X0032360Y0031570D01*
Y0031560D01*
X0031967Y0031167D01*
Y0029393D01*
X0035645Y0015260D02*
Y0011115D01*
X0035520Y0010990D01*
Y0010540D01*
X0035443Y0010463D01*
Y0009054D01*
X0033543Y0029393D02*
Y0030083D01*
X0033790Y0030330D01*
X0034020D01*
X0038930Y0024930D02*
X0039200D01*
X0039696Y0024434D01*
X0040091D01*
X0015943Y0009054D02*
Y0010556D01*
X0015650Y0010850D01*
Y0011360D01*
X0048028Y0030300D02*
Y0029931D01*
X0048900Y0029060D01*
Y0027780D01*
X0048260Y0027140D01*
X0047530D01*
X0059740Y0019750D02*
X0056340D01*
X0025160Y0024040D02*
Y0024730D01*
X0025070Y0024820D01*
X0029160Y0024100D02*
X0029220Y0024040D01*
X0029820D01*
X0036236Y0025531D02*
Y0027044D01*
X0035907Y0027373D01*
Y0029393D01*
X0011310Y0036900D02*
X0013560D01*
X0014060Y0037400D01*
X0016420D01*
X0016920Y0036900D01*
X0038540Y0031780D02*
Y0031620D01*
X0039670Y0030490D01*
X0040550D01*
X0037089Y0029393D02*
Y0028869D01*
X0036960Y0028740D01*
Y0028040D01*
X0037812Y0027188D01*
Y0025531D01*
X0007340Y0017930D02*
Y0017940D01*
X0006850Y0018430D01*
X0005650D01*
X0005150Y0017930D01*
X0003690D01*
X0030670Y0017480D02*
X0030611Y0017539D01*
X0029820D01*
X0003690Y0020930D02*
X0005010D01*
X0005520Y0021440D01*
X0006830D01*
X0007340Y0020930D01*
X0028870Y0020900D02*
X0029808D01*
X0029820Y0020888D01*
X0025480Y0030990D02*
Y0030020D01*
X0052000Y0046260D02*
Y0045200D01*
X0029820Y0022661D02*
X0028189D01*
X0027700Y0023150D01*
Y0026920D01*
X0027500Y0027120D01*
Y0030640D01*
X0027744Y0030884D01*
X0028703D01*
X0024950Y0011450D02*
Y0009061D01*
X0024943Y0009054D01*
X0049600Y0046240D02*
Y0045200D01*
X0001780Y0031930D02*
X0004810D01*
X0005310Y0032430D01*
X0006840D01*
X0007340Y0031930D01*
X0059740Y0021750D02*
X0056340D01*
X0040550Y0032657D02*
X0042260D01*
X0042490Y0032427D01*
Y0019600D01*
X0041808Y0018918D01*
X0040091D01*
X0029820Y0019509D02*
X0028151D01*
X0027950Y0019710D01*
X0027670D01*
X0036104Y0029393D02*
Y0027486D01*
X0036450Y0027140D01*
Y0026250D01*
X0036630Y0026070D01*
Y0025531D01*
X0029820Y0020494D02*
X0028586D01*
X0027370Y0021710D01*
X0027040D01*
X0026300Y0023600D02*
Y0026590D01*
X0026800Y0027090D01*
Y0031710D01*
X0027420Y0032330D01*
X0028080D01*
X0028147Y0032263D01*
X0028703D01*
X0029400Y0011950D02*
Y0012891D01*
X0029710Y0013200D01*
X0032160D01*
X0032493Y0013533D01*
Y0015260D01*
X0049209Y0030300D02*
Y0029780D01*
X0049400Y0029590D01*
Y0027120D01*
X0048908Y0026628D01*
X0047530D01*
X0007340Y0019930D02*
X0007320D01*
X0006820Y0020430D01*
X0005470D01*
X0004970Y0019930D01*
X0003690D01*
X0007340Y0037930D02*
X0006840Y0038430D01*
X0005780D01*
X0005270Y0037920D01*
X0003610D01*
X0003600Y0037930D01*
X0028703Y0039355D02*
X0031915D01*
X0033040Y0038230D01*
Y0035110D01*
X0029820Y0031890D01*
X0030530Y0023970D02*
Y0024150D01*
X0030246Y0024434D01*
X0029820D01*
X0040550Y0033051D02*
X0042219D01*
X0042690Y0032580D01*
Y0019460D01*
X0041951Y0018721D01*
X0040091D01*
X0029820Y0023449D02*
X0028521D01*
X0028300Y0023670D01*
Y0028920D01*
X0031730Y0032350D01*
X0036830D01*
X0039256Y0029924D01*
Y0029393D01*
X0037286D02*
Y0028716D01*
X0037180Y0028610D01*
Y0028150D01*
X0038009Y0027321D01*
Y0025531D01*
X0016920Y0029900D02*
X0016840D01*
X0016340Y0030400D01*
X0014900D01*
X0014400Y0029900D01*
X0013300D01*
X0040091Y0018130D02*
X0043900D01*
X0049390Y0025860D02*
X0047530D01*
X0061940Y0026750D02*
X0056340D01*
X0029820Y0022464D02*
X0027986D01*
X0027500Y0022950D01*
Y0026710D01*
X0027200Y0027010D01*
Y0030630D01*
X0027651Y0031081D01*
X0028703D01*
X0040091Y0016751D02*
X0043699D01*
X0043920Y0016527D01*
Y0016530D01*
X0023443Y0009054D02*
Y0016294D01*
X0024099Y0016948D01*
X0029820D01*
X0038403Y0015260D02*
Y0014247D01*
X0038850Y0013800D01*
X0041310D01*
X0041430Y0013680D01*
Y0013670D01*
X0043600Y0044360D02*
X0038074D01*
Y0041240D01*
X0003600Y0033930D02*
X0005430D01*
X0005930Y0034430D01*
X0006840D01*
X0007340Y0033930D01*
X0024320Y0035290D02*
X0024520Y0035090D01*
Y0034650D01*
X0021740Y0016500D02*
X0022470D01*
X0022720Y0016750D01*
Y0018720D01*
X0023200Y0019200D01*
X0024420D01*
X0024650Y0019430D01*
Y0020380D01*
X0040550Y0040340D02*
X0052940D01*
X0053390Y0039890D01*
Y0038900D01*
X0048500Y0028790D02*
X0046240D01*
X0045800Y0028350D01*
Y0026870D01*
X0045558Y0026628D01*
X0044830D01*
X0043600Y0046220D02*
Y0045200D01*
G54D35*
G01X0048666Y0034648D02*
X0049068D01*
X0049470Y0035050D01*
X0046875Y0034392D02*
X0046430D01*
Y0034648D01*
X0046875D01*
X0050230Y0032550D02*
Y0031440D01*
X0046010Y0034840D02*
Y0034570D01*
X0046188Y0034392D01*
X0046875D01*
X0044380Y0032810D02*
X0044400D01*
X0044410Y0032820D02*
X0045310D01*
X0046875Y0034392D02*
X0046188D01*
X0046010Y0034570D01*
Y0034840D01*
X0044380Y0032810D02*
X0044400D01*
X0044410Y0032820D02*
X0045310D01*
X0049470Y0035050D02*
X0049068Y0034648D01*
X0048666D01*
X0045930Y0009068D02*
Y0010770D01*
X0048666Y0034136D02*
X0049260D01*
Y0034300D01*
X0049168Y0034392D01*
X0048666D01*
Y0033880D02*
X0049260D01*
Y0034136D01*
X0048666D01*
X0050240Y0033880D02*
X0048666D01*
X0045310Y0034140D02*
X0044350D01*
X0044170Y0033960D01*
Y0033952D01*
X0044354Y0034136D01*
X0046875D01*
X0045950Y0010620D02*
Y0011400D01*
X0017950Y0011020D02*
Y0011000D01*
X0017940Y0010990D01*
Y0009058D01*
X0044170Y0033680D02*
Y0033952D01*
X0044354Y0034136D01*
X0046875D01*
X0044354D01*
X0044170Y0033952D01*
Y0033680D01*
X0044030Y0034660D02*
Y0034860D01*
X0044140Y0034970D01*
X0045130D01*
X0045310Y0034790D01*
Y0034140D01*
X0045950Y0011400D02*
Y0009061D01*
X0045943Y0009054D01*
X0046875Y0033880D02*
X0046400D01*
X0046240Y0033720D01*
Y0032890D01*
X0046620Y0032510D01*
X0047150D01*
G54D37*
G01X0045890Y0015790D02*
X0047420D01*
X0049062D02*
X0047420D01*
X0048470Y0031300D02*
Y0032510D01*
Y0031300D02*
Y0032510D01*
X0047420Y0014470D02*
Y0013070D01*
X0052550Y0012410D02*
X0051200D01*
X0047420Y0013070D02*
Y0014470D01*
Y0013070D01*
X0049062Y0017702D02*
Y0016790D01*
X0049880Y0012410D02*
X0049230D01*
X0049062Y0012578D01*
Y0014790D01*
X0049880Y0012410D02*
X0049890Y0012420D01*
X0049910Y0012400D01*
Y0011350D01*
X0049920Y0013580D02*
Y0012450D01*
X0049880Y0012410D01*
X0047420Y0015790D02*
X0045890D01*
X0047420Y0017270D02*
Y0015790D01*
G54D38*
G01X0026380Y0041270D02*
X0026390Y0041280D01*
X0026420Y0040520D02*
X0026410Y0040510D01*
X0026390Y0041280D02*
X0026380Y0041270D01*
X0026420Y0040520D02*
X0026410Y0040510D01*
X0026380Y0041270D02*
X0026390Y0041280D01*
X0029580Y0032590D02*
Y0032658D01*
X0029384Y0031290D02*
X0029440D01*
X0029580Y0032590D02*
Y0032658D01*
X0029384Y0031290D02*
X0029440D01*
X0035180Y0031800D02*
X0035212D01*
X0029390Y0011300D02*
Y0011299D01*
X0035180Y0031800D02*
X0035212D01*
X0032360Y0011370D02*
X0032390D01*
X0050240Y0032560D02*
X0050230Y0032550D01*
X0032360Y0011370D02*
X0032350D01*
X0032210Y0028600D02*
X0032249Y0028561D01*
X0042330Y0011160D02*
X0042340Y0011170D01*
X0017910Y0011060D02*
X0017950Y0011020D01*
X0017943Y0009054D02*
X0018443D01*
X0028040Y0011300D02*
X0028030D01*
X0031070Y0011280D02*
X0031110D01*
X0031080Y0011250D01*
X0046443Y0009054D02*
Y0011023D01*
X0046890Y0011470D01*
X0046443Y0011023D01*
Y0009054D01*
X0044160Y0033670D02*
X0044170Y0033680D01*
X0029390Y0011300D02*
Y0011299D01*
X0044170Y0033680D02*
X0044160Y0033670D01*
X0050420Y0035050D02*
X0050240Y0034870D01*
Y0033880D01*
X0044943Y0010816D02*
X0044940Y0010820D01*
X0028040Y0011300D02*
X0028030D01*
X0031080Y0011250D02*
X0031110Y0011280D01*
X0031070D01*
G54D39*
G01X0028703Y0036991D02*
X0029339D01*
X0029450Y0036880D01*
X0028698Y0033440D02*
X0028703Y0033445D01*
X0040550Y0033642D02*
X0039798D01*
X0039500Y0033940D01*
G54D10*
X0047420Y0015790D03*
Y0014470D03*
X0049880Y0012410D03*
X0051200D03*
X0045310Y0034140D03*
Y0032820D03*
X0047150Y0032510D03*
X0048470D03*
X0050240Y0033880D03*
Y0032560D03*
G54D11*
X0027600Y0041280D03*
X0027040D03*
X0027640Y0040520D03*
X0027080D03*
X0027710Y0039750D03*
X0027150D03*
X0027110Y0019710D03*
X0027670D03*
X0027740Y0033170D03*
X0027180D03*
G54D12*
X0043600Y0046780D03*
Y0046220D03*
X0053200Y0046830D03*
Y0046270D03*
X0048400Y0046790D03*
Y0046230D03*
X0046000Y0046790D03*
Y0046230D03*
X0044820Y0046790D03*
Y0046230D03*
X0024310Y0023200D03*
Y0023760D03*
X0025480Y0030990D03*
Y0031550D03*
X0024650Y0029460D03*
Y0030020D03*
X0047200Y0046790D03*
Y0046230D03*
X0050800Y0046810D03*
Y0046250D03*
X0049600Y0046800D03*
Y0046240D03*
X0052000Y0046820D03*
Y0046260D03*
X0015650Y0011920D03*
Y0011360D03*
X0028040Y0018700D03*
Y0018140D03*
X0045950Y0011400D03*
Y0011960D03*
X0024950Y0011450D03*
Y0012010D03*
X0044960Y0011410D03*
Y0011970D03*
G54D13*
X0025160Y0023200D03*
Y0024040D03*
X0023680Y0034650D03*
X0024520D03*
X0025480Y0030020D03*
Y0029180D03*
X0043600Y0045200D03*
Y0044360D03*
X0044820Y0045200D03*
Y0044360D03*
X0046000Y0045200D03*
Y0044360D03*
X0047200Y0045200D03*
Y0044360D03*
X0048400Y0045200D03*
Y0044360D03*
X0049600Y0045200D03*
Y0044360D03*
X0050800Y0045200D03*
Y0044360D03*
X0052000Y0045200D03*
Y0044360D03*
G54D14*
X0061940Y0025750D03*
Y0026750D03*
Y0027750D03*
Y0028750D03*
Y0029750D03*
Y0030750D03*
Y0031750D03*
Y0032750D03*
X0059740Y0017750D03*
Y0018750D03*
Y0019750D03*
Y0020750D03*
Y0021750D03*
Y0022750D03*
Y0023750D03*
Y0024750D03*
Y0033750D03*
Y0034750D03*
Y0035750D03*
Y0036750D03*
Y0037750D03*
Y0038750D03*
Y0039750D03*
Y0040750D03*
X0013300Y0025900D03*
Y0026900D03*
Y0027900D03*
Y0028900D03*
Y0029900D03*
Y0030900D03*
Y0031900D03*
Y0032900D03*
X0011200Y0017900D03*
Y0018900D03*
Y0019900D03*
Y0020900D03*
Y0021900D03*
Y0022900D03*
Y0023900D03*
Y0024900D03*
X0011310Y0033900D03*
Y0034900D03*
Y0035900D03*
Y0036900D03*
Y0037900D03*
Y0038900D03*
Y0039900D03*
Y0040900D03*
X0003600Y0033930D03*
Y0034930D03*
Y0035930D03*
Y0036930D03*
Y0037930D03*
Y0038930D03*
Y0039930D03*
Y0040930D03*
X0001780Y0025930D03*
Y0026930D03*
Y0027930D03*
Y0028930D03*
Y0029930D03*
Y0030930D03*
Y0031930D03*
Y0032930D03*
X0003690Y0017930D03*
Y0018930D03*
Y0019930D03*
Y0020930D03*
Y0021930D03*
Y0022930D03*
Y0023930D03*
Y0024930D03*
X0056340Y0018750D03*
Y0019750D03*
Y0020750D03*
Y0021750D03*
Y0022750D03*
Y0023750D03*
Y0024750D03*
Y0025750D03*
Y0026750D03*
Y0027750D03*
Y0028750D03*
Y0029750D03*
Y0030750D03*
Y0031750D03*
Y0032750D03*
Y0033750D03*
Y0034750D03*
Y0035750D03*
Y0036750D03*
Y0037750D03*
Y0038750D03*
Y0039750D03*
Y0040750D03*
Y0041750D03*
X0055340Y0017750D03*
Y0018750D03*
Y0019750D03*
Y0020750D03*
Y0021750D03*
Y0022750D03*
Y0023750D03*
Y0024750D03*
Y0025750D03*
Y0026750D03*
Y0027750D03*
Y0028750D03*
Y0029750D03*
Y0030750D03*
Y0031750D03*
Y0032750D03*
Y0033750D03*
Y0034750D03*
Y0035750D03*
Y0036750D03*
Y0037750D03*
Y0038750D03*
Y0039750D03*
Y0040750D03*
Y0041750D03*
X0016920Y0018900D03*
Y0019900D03*
Y0020900D03*
Y0021900D03*
Y0022900D03*
Y0023900D03*
Y0024900D03*
Y0025900D03*
Y0026900D03*
Y0027900D03*
Y0028900D03*
Y0029900D03*
Y0030900D03*
Y0031900D03*
Y0032900D03*
Y0033900D03*
Y0034900D03*
Y0035900D03*
Y0036900D03*
Y0037900D03*
Y0038900D03*
Y0039900D03*
Y0040900D03*
Y0041900D03*
X0015920Y0017900D03*
Y0018900D03*
Y0019900D03*
Y0020900D03*
Y0021900D03*
Y0022900D03*
Y0023900D03*
Y0024900D03*
Y0025900D03*
Y0026900D03*
Y0027900D03*
Y0028900D03*
Y0029900D03*
Y0030900D03*
Y0031900D03*
Y0032900D03*
Y0033900D03*
Y0034900D03*
Y0035900D03*
Y0036900D03*
Y0037900D03*
Y0038900D03*
Y0039900D03*
Y0040900D03*
Y0041900D03*
X0007340Y0018930D03*
Y0019930D03*
Y0020930D03*
Y0021930D03*
Y0022930D03*
Y0023930D03*
Y0024930D03*
Y0025930D03*
Y0026930D03*
Y0027930D03*
Y0028930D03*
Y0029930D03*
Y0030930D03*
Y0031930D03*
Y0032930D03*
Y0033930D03*
Y0034930D03*
Y0035930D03*
Y0036930D03*
Y0037930D03*
Y0038930D03*
Y0039930D03*
Y0040930D03*
Y0041930D03*
X0006340Y0017930D03*
Y0018930D03*
Y0019930D03*
Y0020930D03*
Y0021930D03*
Y0022930D03*
Y0023930D03*
Y0024930D03*
Y0025930D03*
Y0026930D03*
Y0027930D03*
Y0028930D03*
Y0029930D03*
Y0030930D03*
Y0031930D03*
Y0032930D03*
Y0033930D03*
Y0034930D03*
Y0035930D03*
Y0036930D03*
Y0037930D03*
Y0038930D03*
Y0039930D03*
Y0040930D03*
Y0041930D03*
G54D15*
X0061940Y0024750D03*
X0059740Y0016750D03*
Y0032750D03*
X0013300Y0024900D03*
X0011200Y0016900D03*
X0011310Y0032900D03*
X0003600Y0032930D03*
X0001780Y0024930D03*
X0003690Y0016930D03*
X0056340Y0017750D03*
X0016920Y0017900D03*
X0007340Y0017930D03*
G54D16*
X0021740Y0015500D03*
Y0016500D03*
X0044770Y0022200D03*
Y0021200D03*
X0057570Y0045140D03*
X0056570D03*
X0016900Y0044600D03*
X0015900D03*
X0006100Y0044800D03*
X0007100D03*
X0040030Y0045610D03*
Y0048020D03*
Y0046820D03*
G54D17*
X0021740Y0014500D03*
X0044770Y0023200D03*
X0058570Y0045140D03*
X0017900Y0044600D03*
X0005100Y0044800D03*
X0041030Y0045610D03*
Y0048020D03*
Y0046820D03*
G54D18*
X0017910Y0011060D03*
X0030390Y0026050D03*
X0049209Y0030300D03*
X0048619D03*
X0048028D03*
X0047438D03*
X0046847D03*
G54D19*
X0049800D03*
G54D20*
X0048666Y0033880D03*
Y0034136D03*
Y0034392D03*
Y0034648D03*
X0046875D03*
Y0034392D03*
Y0034136D03*
Y0033880D03*
G54D21*
X0047530Y0026116D03*
Y0026372D03*
Y0026628D03*
Y0026884D03*
Y0027140D03*
Y0027396D03*
Y0027652D03*
Y0027908D03*
Y0028164D03*
X0044830D03*
Y0027908D03*
Y0027652D03*
Y0027396D03*
Y0027140D03*
Y0026884D03*
Y0026628D03*
Y0026372D03*
Y0026116D03*
Y0025860D03*
G54D22*
X0047530D03*
G54D23*
X0051670Y0015806D03*
G54D24*
X0049092Y0016690D03*
Y0015790D03*
Y0014890D03*
G54D25*
X0040091Y0016160D03*
Y0016357D03*
Y0016554D03*
Y0016751D03*
Y0016948D03*
Y0017342D03*
Y0017539D03*
Y0017736D03*
Y0017933D03*
Y0018130D03*
Y0018327D03*
Y0018524D03*
Y0018721D03*
Y0018918D03*
Y0019312D03*
Y0019509D03*
Y0019706D03*
Y0019903D03*
Y0020100D03*
Y0020297D03*
Y0020494D03*
Y0020691D03*
Y0020888D03*
Y0021282D03*
Y0021479D03*
Y0021676D03*
Y0021873D03*
Y0022070D03*
Y0022267D03*
Y0022464D03*
Y0022661D03*
Y0022858D03*
Y0023252D03*
Y0023449D03*
Y0023646D03*
Y0023843D03*
Y0024040D03*
Y0024237D03*
Y0024434D03*
Y0024631D03*
X0029820D03*
Y0024434D03*
Y0024237D03*
Y0024040D03*
Y0023843D03*
Y0023646D03*
Y0023449D03*
Y0023055D03*
Y0022858D03*
Y0022661D03*
Y0022464D03*
Y0022267D03*
Y0022070D03*
Y0021873D03*
Y0021676D03*
Y0021479D03*
Y0021085D03*
Y0020888D03*
Y0020691D03*
Y0020494D03*
Y0020297D03*
Y0020100D03*
Y0019903D03*
Y0019706D03*
Y0019509D03*
Y0019115D03*
Y0018918D03*
Y0018721D03*
Y0018524D03*
Y0018327D03*
Y0018130D03*
Y0017933D03*
Y0017736D03*
Y0017539D03*
Y0017145D03*
Y0016948D03*
Y0016751D03*
Y0016554D03*
Y0016357D03*
Y0016160D03*
X0028703Y0040340D03*
Y0040143D03*
Y0039946D03*
Y0039749D03*
Y0039552D03*
Y0039355D03*
Y0039158D03*
Y0038764D03*
Y0038567D03*
Y0038370D03*
Y0038173D03*
Y0037976D03*
Y0037779D03*
Y0037582D03*
Y0037385D03*
Y0037188D03*
Y0036794D03*
Y0036597D03*
Y0036400D03*
Y0036203D03*
Y0036006D03*
Y0035809D03*
Y0035612D03*
Y0035415D03*
Y0035218D03*
Y0034824D03*
Y0034627D03*
Y0034430D03*
Y0034233D03*
Y0034036D03*
Y0033839D03*
Y0033642D03*
Y0033445D03*
Y0033248D03*
Y0032854D03*
Y0032657D03*
Y0032460D03*
Y0032263D03*
Y0032066D03*
Y0031869D03*
Y0031672D03*
Y0031475D03*
Y0031278D03*
Y0030884D03*
Y0030687D03*
Y0030490D03*
Y0030293D03*
X0040550D03*
Y0030490D03*
Y0030687D03*
Y0031081D03*
Y0031278D03*
Y0031475D03*
Y0031672D03*
Y0031869D03*
Y0032066D03*
Y0032263D03*
Y0032460D03*
Y0032657D03*
Y0033051D03*
Y0033248D03*
Y0033445D03*
Y0033642D03*
Y0033839D03*
Y0034036D03*
Y0034233D03*
Y0034430D03*
Y0034627D03*
Y0035021D03*
Y0035218D03*
Y0035415D03*
Y0035612D03*
Y0035809D03*
Y0036006D03*
Y0036203D03*
Y0036400D03*
Y0036597D03*
Y0036991D03*
Y0037188D03*
Y0037385D03*
Y0037582D03*
Y0037779D03*
Y0037976D03*
Y0038173D03*
Y0038370D03*
Y0038567D03*
Y0038961D03*
Y0039158D03*
Y0039355D03*
Y0039552D03*
Y0039749D03*
Y0039946D03*
Y0040143D03*
Y0040340D03*
G54D26*
X0040091Y0017145D03*
Y0019115D03*
Y0021085D03*
Y0023055D03*
X0029820Y0023252D03*
Y0021282D03*
Y0019312D03*
Y0017342D03*
X0028703Y0038961D03*
Y0036991D03*
Y0035021D03*
Y0033051D03*
Y0031081D03*
X0040550Y0030884D03*
Y0032854D03*
Y0034824D03*
Y0036794D03*
Y0038764D03*
G54D27*
X0030917Y0015260D03*
X0031114D03*
X0031311D03*
X0031508D03*
X0031705D03*
X0031902D03*
X0032099D03*
X0032296D03*
X0032690D03*
X0032887D03*
X0033084D03*
X0033281D03*
X0033478D03*
X0033675D03*
X0033872D03*
X0034069D03*
X0034266D03*
X0034660D03*
X0034857D03*
X0035054D03*
X0035251D03*
X0035448D03*
X0035645D03*
X0035842D03*
X0036039D03*
X0036236D03*
X0036630D03*
X0036827D03*
X0037024D03*
X0037221D03*
X0037418D03*
X0037615D03*
X0037812D03*
X0038009D03*
X0038206D03*
X0038600D03*
X0038797D03*
X0038994D03*
X0039191D03*
Y0025531D03*
X0038797D03*
X0038600D03*
X0038403D03*
X0038206D03*
X0038009D03*
X0037812D03*
X0037615D03*
X0037418D03*
X0037221D03*
X0036827D03*
X0036630D03*
X0036433D03*
X0036236D03*
X0036039D03*
X0035842D03*
X0035645D03*
X0035448D03*
X0035251D03*
X0034857D03*
X0034660D03*
X0034463D03*
X0034266D03*
X0034069D03*
X0033872D03*
X0033675D03*
X0033478D03*
X0033281D03*
X0032887D03*
X0032690D03*
X0032493D03*
X0032296D03*
X0032099D03*
X0031902D03*
X0031705D03*
X0031508D03*
X0031311D03*
X0030917D03*
X0030720D03*
X0039453Y0041240D03*
X0039256D03*
X0039059D03*
X0038862D03*
X0038665D03*
X0038468D03*
X0038271D03*
X0038074D03*
X0037680D03*
X0037483D03*
X0037286D03*
X0037089D03*
X0036892D03*
X0036695D03*
X0036498D03*
X0036301D03*
X0036104D03*
X0035710D03*
X0035513D03*
X0035316D03*
X0035119D03*
X0034922D03*
X0034725D03*
X0034528D03*
X0034331D03*
X0034134D03*
X0033740D03*
X0033543D03*
X0033346D03*
X0033149D03*
X0032952D03*
X0032755D03*
X0032558D03*
X0032361D03*
X0032164D03*
X0031770D03*
X0031573D03*
X0031376D03*
X0031179D03*
X0030982D03*
X0030785D03*
X0030588D03*
X0030391D03*
X0030194D03*
X0029800D03*
X0029603D03*
Y0029393D03*
X0029800D03*
X0029997D03*
X0030194D03*
X0030391D03*
X0030785D03*
X0030982D03*
X0031179D03*
X0031376D03*
X0031573D03*
X0031770D03*
X0031967D03*
X0032164D03*
X0032361D03*
X0032755D03*
X0032952D03*
X0033149D03*
X0033346D03*
X0033543D03*
X0033740D03*
X0033937D03*
X0034134D03*
X0034331D03*
X0034725D03*
X0034922D03*
X0035119D03*
X0035316D03*
X0035513D03*
X0035710D03*
X0035907D03*
X0036104D03*
X0036301D03*
X0036695D03*
X0036892D03*
X0037089D03*
X0037286D03*
X0037483D03*
X0037680D03*
X0037877D03*
X0038074D03*
X0038271D03*
X0038665D03*
X0038862D03*
X0039059D03*
X0039256D03*
X0039453D03*
X0039650D03*
G54D28*
X0030720Y0015260D03*
X0032493D03*
X0034463D03*
X0036433D03*
X0038403D03*
X0038994Y0025531D03*
X0037024D03*
X0035054D03*
X0033084D03*
X0031114D03*
X0039650Y0041240D03*
X0037877D03*
X0035907D03*
X0033937D03*
X0031967D03*
X0029997D03*
X0030588Y0029393D03*
X0032558D03*
X0034528D03*
X0036498D03*
X0038468D03*
G54D29*
X0015943Y0009054D03*
X0016443D03*
X0016943D03*
X0017443D03*
X0017943D03*
X0018443D03*
X0018943D03*
X0019443D03*
X0019943D03*
X0020443D03*
X0020943D03*
X0022443D03*
X0022943D03*
X0023443D03*
X0023943D03*
X0024443D03*
X0024943D03*
X0025443D03*
X0025943D03*
X0026443D03*
X0026943D03*
X0027443D03*
X0027943D03*
X0028443D03*
X0028943D03*
X0029443D03*
X0029943D03*
X0030443D03*
X0030943D03*
X0031443D03*
X0031943D03*
X0032443D03*
X0032943D03*
X0033443D03*
X0033943D03*
X0034443D03*
X0034943D03*
X0035443D03*
X0035943D03*
X0036443D03*
X0036943D03*
X0037443D03*
X0037943D03*
X0038443D03*
X0038943D03*
X0039443D03*
X0039943D03*
X0041443D03*
X0041943D03*
X0042443D03*
X0042943D03*
X0043443D03*
X0043943D03*
X0044443D03*
X0044943D03*
X0045443D03*
X0045943D03*
X0046443D03*
G54D30*
X0025650Y0020380D03*
X0025150D03*
X0024650D03*
Y0018260D03*
X0025150D03*
X0025650D03*
X0026150D03*
G54D31*
Y0020380D03*
G54D34*
X0029850Y0035390D03*
X0043800Y0042210D03*
X0052690Y0046270D03*
X0025470Y0032070D03*
X0023680Y0037060D03*
X0026520Y0039750D03*
X0032970Y0020560D03*
X0031070Y0019200D03*
X0032080Y0016990D03*
X0037600Y0017330D03*
X0026410Y0040510D03*
X0026380Y0041270D03*
X0024310Y0024340D03*
X0025270Y0021420D03*
X0026670Y0020210D03*
X0030720Y0015850D03*
X0040760Y0024040D03*
X0027910Y0036400D03*
X0033650Y0042130D03*
X0035210Y0042320D03*
X0041300Y0031510D03*
X0035710Y0030140D03*
X0030790Y0028580D03*
X0033937Y0028627D03*
X0029210Y0024630D03*
X0033675Y0024925D03*
X0042720Y0018630D03*
X0036830Y0015940D03*
X0033440Y0015920D03*
X0040880Y0015980D03*
X0023900Y0018500D03*
X0039400Y0021190D03*
X0043850Y0025490D03*
X0037270Y0024890D03*
X0035590Y0028650D03*
X0039230Y0028720D03*
X0027710Y0031400D03*
X0027780Y0034360D03*
X0041430Y0039060D03*
X0030290Y0042090D03*
X0027990Y0039190D03*
X0041380Y0036290D03*
X0041550Y0034370D03*
X0011860Y0031220D03*
X0036990Y0044660D03*
X0036380Y0019770D03*
X0040710Y0020420D03*
X0039510Y0018640D03*
X0039030Y0018100D03*
X0029470Y0038950D03*
X0038790Y0034980D03*
X0039180Y0032600D03*
X0040380Y0027550D03*
X0035540Y0017660D03*
X0036070Y0016290D03*
X0032220Y0026310D03*
X0032830Y0016300D03*
X0031410Y0016770D03*
X0026730Y0026100D03*
X0028810Y0025720D03*
X0033930Y0026940D03*
X0029580Y0032590D03*
X0029440Y0031290D03*
X0030120Y0027420D03*
X0029150Y0028910D03*
X0036440Y0033130D03*
X0031760Y0018840D03*
X0037800Y0016360D03*
X0039191Y0015891D03*
X0042080Y0017440D03*
X0041610Y0015110D03*
X0034330Y0026440D03*
X0062495Y0022795D03*
X0028490Y0021860D03*
X0030460Y0020840D03*
X0030450Y0022010D03*
X0040500Y0025530D03*
X0040120Y0025140D03*
X0040720Y0022800D03*
X0022280Y0017940D03*
X0033650Y0043920D03*
X0033937Y0040517D03*
X0034800Y0040520D03*
X0017090Y0011360D03*
X0019943Y0011406D03*
X0017900Y0012710D03*
X0034255Y0023850D03*
X0034463Y0024603D03*
X0020943Y0011616D03*
X0022280Y0011430D03*
X0024170Y0011160D03*
X0023800Y0011760D03*
X0024950Y0012670D03*
X0030588Y0040522D03*
X0035340Y0039460D03*
X0035180Y0038850D03*
X0037483Y0030263D03*
X0037490Y0030920D03*
X0036240Y0031740D03*
X0035180Y0031800D03*
X0001220Y0022980D03*
X0043340Y0039060D03*
X0042860Y0041300D03*
X0041920Y0048020D03*
X0038540Y0043580D03*
X0041920Y0046820D03*
X0041930Y0045610D03*
X0038170Y0030190D03*
X0039774Y0032854D03*
X0040560Y0042290D03*
X0060105Y0031055D03*
X0036060Y0024890D03*
X0045820Y0023260D03*
X0021450Y0040410D03*
X0016525Y0012620D03*
X0028616Y0017736D03*
X0026260Y0012620D03*
X0033300Y0034820D03*
X0039090Y0035870D03*
X0036980Y0042730D03*
X0032390Y0011370D03*
X0033410Y0011540D03*
X0039880Y0037870D03*
X0034760Y0011150D03*
X0038620Y0038340D03*
X0039844Y0036006D03*
X0041310Y0035020D03*
X0039760Y0035500D03*
X0004250Y0015120D03*
X0002610Y0031560D03*
X0015650Y0012490D03*
X0010640Y0014770D03*
X0043960Y0031640D03*
X0044104Y0028164D03*
X0045330Y0024760D03*
X0060300Y0014740D03*
X0029440Y0034630D03*
X0030550Y0035500D03*
X0026210Y0033170D03*
X0026100Y0030900D03*
X0025200Y0035460D03*
X0025280Y0033210D03*
X0027450Y0017840D03*
X0024070Y0017800D03*
X0030330Y0011310D03*
X0030880Y0030310D03*
X0032210Y0028600D03*
X0045897Y0030520D03*
X0036390Y0011990D03*
X0045940Y0010780D03*
X0024777Y0040890D03*
X0036892Y0030212D03*
X0031210Y0038890D03*
X0029460Y0040470D03*
X0030020Y0039060D03*
X0029480Y0036120D03*
X0029431Y0037779D03*
X0031650Y0040430D03*
X0029100Y0041700D03*
X0025730Y0042130D03*
X0038800Y0011330D03*
X0037100Y0012250D03*
X0029612Y0033248D03*
X0032361Y0040569D03*
X0042340Y0011170D03*
X0039443Y0011496D03*
X0046900Y0012300D03*
X0044060Y0012520D03*
X0044960Y0012580D03*
X0031710Y0011110D03*
X0038770Y0040180D03*
X0027270Y0011340D03*
X0029390Y0011300D03*
X0035230Y0010740D03*
X0033250Y0010840D03*
X0033540Y0031360D03*
X0036500Y0040450D03*
X0030020Y0037320D03*
X0040310Y0011420D03*
X0043300Y0011340D03*
X0038450Y0018020D03*
X0029450Y0036880D03*
X0039800Y0039300D03*
X0040190Y0041850D03*
X0049600Y0047440D03*
X0029030Y0016020D03*
X0026360Y0015000D03*
X0046000Y0047440D03*
X0044820D03*
X0043600Y0047400D03*
X0046590Y0027160D03*
X0037240Y0011120D03*
X0035870Y0010710D03*
X0019443Y0011126D03*
X0024180Y0013340D03*
X0037480Y0028410D03*
X0042060Y0040040D03*
X0039375Y0033445D03*
X0039660Y0037470D03*
X0048400Y0047430D03*
X0047200D03*
X0044940Y0010820D03*
X0027800Y0034950D03*
X0030600Y0023390D03*
X0046150Y0027670D03*
X0032120Y0036780D03*
X0033000Y0019890D03*
X0046650Y0028370D03*
X0039560Y0031520D03*
X0025540Y0021930D03*
X0025530Y0022590D03*
X0025940Y0032660D03*
X0038820Y0018630D03*
X0032300Y0016100D03*
X0028030Y0011300D03*
X0026360Y0011290D03*
X0039500Y0033940D03*
X0042900Y0016200D03*
X0035420Y0016070D03*
X0024380Y0032930D03*
X0039110Y0031940D03*
X0027790Y0032040D03*
X0026590Y0025490D03*
X0026760Y0022780D03*
X0031500Y0045500D03*
X0033550Y0045310D03*
X0037120Y0040390D03*
X0037540Y0040190D03*
X0034370Y0045060D03*
X0030460Y0022710D03*
X0040840Y0020910D03*
X0043870Y0020860D03*
X0032740Y0045220D03*
X0032510Y0036120D03*
X0035430Y0036570D03*
X0023970Y0033320D03*
X0030890Y0045420D03*
X0033350Y0044840D03*
X0031970Y0045050D03*
X0038080Y0040120D03*
X0037160Y0038790D03*
X0026280Y0016340D03*
X0031280Y0021460D03*
X0039940Y0013170D03*
X0039150Y0012480D03*
X0030260Y0045560D03*
X0023510Y0033700D03*
X0023080Y0035740D03*
X0031340Y0031230D03*
X0037290Y0023000D03*
X0034420Y0034210D03*
X0035920Y0036150D03*
X0032290Y0045590D03*
X0028940Y0021550D03*
X0027100Y0023370D03*
X0023390Y0017340D03*
X0033370Y0020980D03*
X0039500Y0026310D03*
X0039696Y0039946D03*
X0034790Y0016220D03*
X0035370Y0023650D03*
X0035000Y0031200D03*
X0027990Y0030320D03*
X0026090D03*
X0036350Y0011210D03*
X0034090Y0015940D03*
X0027950Y0012460D03*
X0031000Y0030830D03*
X0037650Y0022620D03*
X0034020Y0045660D03*
X0036660Y0014170D03*
X0033060Y0013130D03*
X0039810Y0036920D03*
X0022950Y0012630D03*
X0033470Y0026320D03*
X0039180Y0024510D03*
X0023580Y0035360D03*
X0033810Y0011120D03*
X0032970Y0031340D03*
X0035760Y0024000D03*
X0038800Y0016270D03*
X0044443Y0017140D03*
X0031030Y0012120D03*
X0031070Y0011280D03*
X0028740Y0011040D03*
X0037310Y0022230D03*
X0030340Y0030180D03*
X0037130Y0021660D03*
X0030800Y0028010D03*
X0031860Y0031610D03*
X0037780Y0023320D03*
X0039272Y0017342D03*
X0032310Y0030990D03*
X0036140Y0023630D03*
X0026360Y0019620D03*
X0030600Y0019570D03*
X0034950Y0023990D03*
X0034670Y0030650D03*
X0040733Y0022267D03*
X0038550Y0012170D03*
X0026580Y0013280D03*
X0026360Y0021940D03*
X0025950Y0023130D03*
X0031500Y0016100D03*
X0037180Y0023620D03*
X0032460Y0031800D03*
X0034020Y0030330D03*
X0038930Y0024930D03*
X0025070Y0024820D03*
X0029160Y0024100D03*
X0038540Y0031780D03*
X0030670Y0017480D03*
X0028870Y0020900D03*
X0027040Y0021710D03*
X0026300Y0023600D03*
X0029400Y0011950D03*
X0029820Y0031890D03*
X0030530Y0023970D03*
X0043900Y0018130D03*
X0049390Y0025860D03*
X0043920Y0016530D03*
X0041430Y0013670D03*
X0024320Y0035290D03*
X0053390Y0038900D03*
X0048500Y0028790D03*
G54D36*
X0046680Y0036400D03*
X0050230Y0031440D03*
X0046010Y0034840D03*
X0044380Y0032810D03*
X0048220Y0036280D03*
X0049470Y0035050D03*
X0043160Y0036350D03*
X0048470Y0031300D03*
X0052550Y0012410D03*
X0047410Y0013090D03*
X0049062Y0017702D03*
X0049910Y0011350D03*
X0046890Y0011480D03*
X0052860Y0039710D03*
X0019070Y0037400D03*
X0044160Y0033670D03*
X0044030Y0034660D03*
X0049920Y0013580D03*
X0050420Y0035050D03*
X0050690Y0036380D03*
X0044390Y0036370D03*
X0045890Y0015790D03*
X0047420Y0017270D03*
G54D40*
X0044060Y0032160D03*
X0038750Y0042590D03*
X0040490Y0029950D03*
X0039740Y0032200D03*
X0013790Y0023250D03*
G54D41*
X0047438Y0031520D03*
M02*
